<svg xmlns="http://www.w3.org/2000/svg" width="39" height="55" viewBox="0 0 39 55">
  <g id="Grupo_83011" data-name="Grupo 83011" transform="translate(-185 -1883)">
    <path id="Rectángulo_33984" data-name="Rectángulo 33984" d="M5,0h9A25,25,0,0,1,39,25V50a5,5,0,0,1-5,5H5a5,5,0,0,1-5-5V5A5,5,0,0,1,5,0Z" transform="translate(185 1883)" fill="#8979f3"/>
    <g id="Grupo_83010" data-name="Grupo 83010" transform="translate(-166.239 1696.512)">
      <path id="Trazado_100551" data-name="Trazado 100551" d="M365.864,223.429,358.8,230.5l4.875,4.875,7.067-7.067,7.067,7.067,4.875-4.875-7.067-7.067,7.067-7.067-4.875-4.875-7.067,7.067-7.067-7.067-4.875,4.875Z" fill="#f8fcff"/>
    </g>
  </g>
</svg>
