<svg xmlns="http://www.w3.org/2000/svg" width="351.694" height="294.946" viewBox="0 0 351.694 294.946">
  <g id="Grupo_83213" data-name="Grupo 83213" transform="translate(-28.667 -262.988)">
    <path id="Trazado_115918" data-name="Trazado 115918" d="M380.361,381.9s-128.035-9.861-351.694,0C28.667,381.9,193.438,400.393,380.361,381.9Z" transform="translate(0 167.812)" fill="#d0c9fa"/>
    <g id="Grupo_83080" data-name="Grupo 83080" transform="translate(46.168 262.987)">
      <g id="Grupo_83056" data-name="Grupo 83056" transform="translate(186.558 43.959)">
        <g id="Grupo_83043" data-name="Grupo 83043" transform="translate(33.722 64.155)">
          <rect id="Rectángulo_34009" data-name="Rectángulo 34009" width="8.31" height="24.563" transform="translate(13.574)" fill="#2b2923"/>
          <path id="Trazado_115919" data-name="Trazado 115919" d="M160.583,320.482H125.124v-2.889s5.515-2.224,17.937-2.224,17.522,2.224,17.522,2.224Z" transform="translate(-125.124 -294.354)" fill="#2b2923"/>
          <rect id="Rectángulo_34010" data-name="Rectángulo 34010" width="8.31" height="4.346" transform="translate(13.574 10.771)" fill="#2b2923" opacity="0.3" style="mix-blend-mode: multiply;isolation: isolate"/>
        </g>
        <rect id="Rectángulo_34011" data-name="Rectángulo 34011" width="4.021" height="74.976" transform="translate(95.921)" fill="#49453e"/>
        <rect id="Rectángulo_34012" data-name="Rectángulo 34012" width="1.061" height="74.976" transform="translate(96.443)" fill="#322f28" opacity="0.4" style="mix-blend-mode: screen;isolation: isolate"/>
        <rect id="Rectángulo_34013" data-name="Rectángulo 34013" width="96.982" height="74.976" fill="#322f28"/>
        <rect id="Rectángulo_34014" data-name="Rectángulo 34014" width="92.968" height="71.384" transform="translate(2.007 1.796)" fill="#37ccf4"/>
        <g id="Grupo_83055" data-name="Grupo 83055" transform="translate(2.007 11.506)">
          <g id="Grupo_83046" data-name="Grupo 83046" transform="translate(0 45.893)">
            <rect id="Rectángulo_34015" data-name="Rectángulo 34015" width="92.968" height="15.78" transform="translate(0 0)" fill="#d3641a"/>
            <rect id="Rectángulo_34016" data-name="Rectángulo 34016" width="92.968" height="1.504" transform="translate(0 3.761)" fill="#bc5115"/>
            <rect id="Rectángulo_34017" data-name="Rectángulo 34017" width="92.968" height="1.504" transform="translate(0 9.994)" fill="#bc5115"/>
            <g id="Grupo_83044" data-name="Grupo 83044" transform="translate(3.084 0)">
              <rect id="Rectángulo_34018" data-name="Rectángulo 34018" width="6.932" height="4.567" transform="translate(81.082 4.567) rotate(-180)" fill="#bc5115"/>
              <rect id="Rectángulo_34019" data-name="Rectángulo 34019" width="2.901" height="1.827" transform="translate(71.41 1.827) rotate(-180)" fill="#bc5115"/>
              <rect id="Rectángulo_34020" data-name="Rectángulo 34020" width="6.287" height="4.352" transform="translate(62.866 7.147) rotate(-180)" fill="#bc5115"/>
              <rect id="Rectángulo_34021" data-name="Rectángulo 34021" width="5.32" height="3.063" transform="translate(76.246 11.499) rotate(-180)" fill="#bc5115"/>
              <rect id="Rectángulo_34022" data-name="Rectángulo 34022" width="3.385" height="2.901" transform="translate(49.326 11.499) rotate(-180)" fill="#bc5115"/>
              <rect id="Rectángulo_34023" data-name="Rectángulo 34023" width="7.415" height="3.224" transform="translate(36.753 14.723) rotate(-180)" fill="#bc5115"/>
              <rect id="Rectángulo_34024" data-name="Rectángulo 34024" width="4.352" height="3.707" transform="translate(28.532 7.469) rotate(-180)" fill="#bc5115"/>
              <rect id="Rectángulo_34025" data-name="Rectángulo 34025" width="2.74" height="1.988" transform="translate(37.236 1.988) rotate(-180)" fill="#bc5115"/>
              <rect id="Rectángulo_34026" data-name="Rectángulo 34026" width="2.901" height="1.773" transform="translate(18.538 3.761) rotate(-180)" fill="#bc5115"/>
              <rect id="Rectángulo_34027" data-name="Rectángulo 34027" width="6.448" height="2.311" transform="translate(6.77 2.311) rotate(-180)" fill="#bc5115"/>
              <rect id="Rectángulo_34028" data-name="Rectángulo 34028" width="3.869" height="2.096" transform="translate(9.188 8.92) rotate(-180)" fill="#bc5115"/>
              <rect id="Rectángulo_34029" data-name="Rectángulo 34029" width="3.063" height="1.934" transform="translate(14.346 12.627) rotate(-180)" fill="#bc5115"/>
              <rect id="Rectángulo_34030" data-name="Rectángulo 34030" width="4.03" height="1.864" transform="translate(4.03 15.78) rotate(-180)" fill="#bc5115"/>
              <rect id="Rectángulo_34031" data-name="Rectángulo 34031" width="3.869" height="2.257" transform="translate(60.448 12.95) rotate(-180)" fill="#bc5115"/>
              <rect id="Rectángulo_34032" data-name="Rectángulo 34032" width="4.836" height="1.864" transform="translate(84.95 15.78) rotate(-180)" fill="#bc5115"/>
            </g>
            <rect id="Rectángulo_34033" data-name="Rectángulo 34033" width="6.287" height="3.761" transform="translate(52.248 3.761) rotate(-180)" fill="#e26e20"/>
            <g id="Grupo_83045" data-name="Grupo 83045" transform="translate(0.988 0)">
              <rect id="Rectángulo_34034" data-name="Rectángulo 34034" width="4.191" height="2.418" transform="translate(66.09 8.758) rotate(-180)" fill="#ea7424"/>
              <rect id="Rectángulo_34035" data-name="Rectángulo 34035" width="4.675" height="3.224" transform="translate(85.595 6.985) rotate(-180)" fill="#ea7424"/>
              <rect id="Rectángulo_34036" data-name="Rectángulo 34036" width="3.063" height="1.934" transform="translate(73.022 13.433) rotate(-180)" fill="#ea7424"/>
              <rect id="Rectángulo_34037" data-name="Rectángulo 34037" width="4.191" height="2.418" transform="translate(40.299 11.499) rotate(-180)" fill="#ea7424"/>
              <rect id="Rectángulo_34038" data-name="Rectángulo 34038" width="4.191" height="2.509" transform="translate(24.018 15.781) rotate(-180)" fill="#ea7424"/>
              <rect id="Rectángulo_34039" data-name="Rectángulo 34039" width="5.642" height="4.11" transform="translate(14.991 7.872) rotate(-180)" fill="#ea7424"/>
              <rect id="Rectángulo_34040" data-name="Rectángulo 34040" width="2.901" height="2.095" transform="translate(2.901 10.693) rotate(-180)" fill="#ea7424"/>
              <rect id="Rectángulo_34041" data-name="Rectángulo 34041" width="6.125" height="2.992" transform="translate(83.016 15.781) rotate(-180)" fill="#ea7424"/>
              <rect id="Rectángulo_34042" data-name="Rectángulo 34042" width="6.125" height="2.875" transform="translate(25.308 2.875) rotate(-180)" fill="#ea7424"/>
            </g>
          </g>
          <g id="Grupo_83047" data-name="Grupo 83047" transform="translate(53.425 23.945)">
            <rect id="Rectángulo_34043" data-name="Rectángulo 34043" width="3.043" height="3.043" transform="translate(18.204 6.146) rotate(-180)" fill="#fff"/>
            <rect id="Rectángulo_34044" data-name="Rectángulo 34044" width="3.043" height="3.043" transform="translate(4.499 6.146) rotate(-180)" fill="#fff"/>
            <rect id="Rectángulo_34045" data-name="Rectángulo 34045" width="1.647" height="1.647" transform="translate(19.66 6.146) rotate(-180)" fill="#fff"/>
            <rect id="Rectángulo_34046" data-name="Rectángulo 34046" width="1.647" height="1.647" transform="translate(1.647 6.146) rotate(-180)" fill="#fff"/>
            <rect id="Rectángulo_34047" data-name="Rectángulo 34047" width="0.971" height="0.971" transform="translate(20.631 6.146) rotate(-180)" fill="#fff"/>
            <rect id="Rectángulo_34048" data-name="Rectángulo 34048" width="2.051" height="2.051" transform="translate(15.218 6.146) rotate(-180)" fill="#fff"/>
            <rect id="Rectángulo_34049" data-name="Rectángulo 34049" width="4.066" height="4.066" transform="translate(13.48 6.146) rotate(-180)" fill="#fff"/>
            <rect id="Rectángulo_34050" data-name="Rectángulo 34050" width="4.066" height="4.066" transform="translate(8.261 6.146) rotate(-180)" fill="#fff"/>
            <rect id="Rectángulo_34051" data-name="Rectángulo 34051" width="6.146" height="6.146" transform="translate(11.988 6.146) rotate(-180)" fill="#fff"/>
          </g>
          <g id="Grupo_83048" data-name="Grupo 83048" transform="translate(5.022 4.788)">
            <rect id="Rectángulo_34052" data-name="Rectángulo 34052" width="1.441" height="1.441" transform="translate(24.586 6.615) rotate(-180)" fill="#fff"/>
            <rect id="Rectángulo_34053" data-name="Rectángulo 34053" width="1.305" height="0.659" transform="translate(25.507 6.616) rotate(-180)" fill="#fff"/>
            <rect id="Rectángulo_34054" data-name="Rectángulo 34054" width="1.045" height="0.659" transform="translate(1.045 6.616) rotate(-180)" fill="#fff"/>
            <rect id="Rectángulo_34055" data-name="Rectángulo 34055" width="2.64" height="2.64" transform="translate(23.651 6.615) rotate(-180)" fill="#fff"/>
            <rect id="Rectángulo_34056" data-name="Rectángulo 34056" width="3.389" height="3.389" transform="translate(21.753 6.615) rotate(-180)" fill="#fff"/>
            <rect id="Rectángulo_34057" data-name="Rectángulo 34057" width="2.548" height="2.548" transform="translate(18.664 6.615) rotate(-180)" fill="#fff"/>
            <rect id="Rectángulo_34058" data-name="Rectángulo 34058" width="4.36" height="4.36" transform="translate(16.401 6.615) rotate(-180)" fill="#fff"/>
            <rect id="Rectángulo_34059" data-name="Rectángulo 34059" width="5.537" height="5.538" transform="translate(14.872 6.615) rotate(-180)" fill="#fff"/>
            <rect id="Rectángulo_34060" data-name="Rectángulo 34060" width="3.997" height="3.997" transform="translate(12.096 6.615) rotate(-180)" fill="#fff"/>
            <rect id="Rectángulo_34061" data-name="Rectángulo 34061" width="2.398" height="2.398" transform="translate(8.898 6.615) rotate(-180)" fill="#fff"/>
            <rect id="Rectángulo_34062" data-name="Rectángulo 34062" width="3.347" height="3.347" transform="translate(6.95 6.615) rotate(-180)" fill="#fff"/>
            <rect id="Rectángulo_34063" data-name="Rectángulo 34063" width="2.398" height="2.398" transform="translate(4.352 6.615) rotate(-180)" fill="#fff"/>
            <rect id="Rectángulo_34064" data-name="Rectángulo 34064" width="1.293" height="1.699" transform="translate(2.254 6.615) rotate(-180)" fill="#fff"/>
            <rect id="Rectángulo_34065" data-name="Rectángulo 34065" width="2.418" height="2.418" transform="translate(13.36 2.418) rotate(-180)" fill="#fff"/>
          </g>
          <g id="Grupo_83049" data-name="Grupo 83049" transform="translate(56.76)">
            <rect id="Rectángulo_34066" data-name="Rectángulo 34066" width="2.306" height="2.306" transform="translate(1.924 6.19)" fill="#fff"/>
            <rect id="Rectángulo_34067" data-name="Rectángulo 34067" width="2.852" height="2.852" transform="translate(2.956 5.644)" fill="#fff"/>
            <rect id="Rectángulo_34068" data-name="Rectángulo 34068" width="3.093" height="2.265" transform="translate(5.053 6.229) rotate(-0.1)" fill="#fff"/>
            <rect id="Rectángulo_34069" data-name="Rectángulo 34069" width="3.237" height="3.237" transform="translate(7.971 5.259)" fill="#fff"/>
            <rect id="Rectángulo_34070" data-name="Rectángulo 34070" width="4.451" height="4.451" transform="translate(9.305 4.045)" fill="#fff"/>
            <rect id="Rectángulo_34071" data-name="Rectángulo 34071" width="1.942" height="1.942" transform="translate(10.519 3.459)" fill="#fff"/>
            <rect id="Rectángulo_34072" data-name="Rectángulo 34072" width="4.638" height="3.359" transform="translate(11.591 5.137)" fill="#fff"/>
            <rect id="Rectángulo_34073" data-name="Rectángulo 34073" width="5.847" height="5.847" transform="translate(15.561 2.649)" fill="#fff"/>
            <rect id="Rectángulo_34074" data-name="Rectángulo 34074" width="7.182" height="7.182" transform="translate(16.775 1.314)" fill="#fff"/>
            <rect id="Rectángulo_34075" data-name="Rectángulo 34075" width="5.401" height="5.401" transform="translate(19.748 3.095)" fill="#fff"/>
            <rect id="Rectángulo_34076" data-name="Rectángulo 34076" width="4.309" height="4.309" transform="translate(18.11)" fill="#fff"/>
            <rect id="Rectángulo_34077" data-name="Rectángulo 34077" width="2.488" height="2.488" transform="translate(24.118 6.008)" fill="#fff"/>
            <rect id="Rectángulo_34078" data-name="Rectángulo 34078" width="3.338" height="3.338" transform="translate(26.059 5.158)" fill="#fff"/>
            <rect id="Rectángulo_34079" data-name="Rectángulo 34079" width="2.185" height="2.185" transform="translate(28.608 6.311)" fill="#fff"/>
            <rect id="Rectángulo_34080" data-name="Rectángulo 34080" width="1.397" height="1.397" transform="matrix(1, -0.002, 0.002, 1, 0.666, 7.097)" fill="#fff"/>
            <rect id="Rectángulo_34081" data-name="Rectángulo 34081" width="1.397" height="1.397" transform="matrix(1, -0.002, 0.002, 1, 30.446, 7.097)" fill="#fff"/>
            <rect id="Rectángulo_34082" data-name="Rectángulo 34082" width="0.804" height="0.804" transform="translate(0 7.688) rotate(-0.14)" fill="#fff"/>
            <rect id="Rectángulo_34083" data-name="Rectángulo 34083" width="0.804" height="0.804" transform="translate(31.629 7.688) rotate(-0.141)" fill="#fff"/>
          </g>
          <path id="Trazado_115920" data-name="Trazado 115920" d="M169.287,299.7h-2.624v1.782h-1.827v2.268h-4.728v2.592h-2.149v2.493h-1.4v-1.827h-2.579v-3.581H151.4v-1.62h-3.439v.972H144.74v2.268h-3.224v2.43h-3.439V309.7h-1.289v.86h32.5Z" transform="translate(-76.319 -264.661)" fill="#91ad1e"/>
          <path id="Trazado_115921" data-name="Trazado 115921" d="M112.258,312.79h26.3v-.833h-1.29V310.1h-2.1v-.725H133.96v-2.337h-2.579v-1.37H129.85V302.85h-2.821v-1.531h-1.29v.886h-1.693v2.176h-2.015V306.4h-1.773v-1.209h-.806v-1.854h-2.5v-1.37h-1.692v-1.37h-1.048v-2.418h-1.955Z" transform="translate(-112.258 -266.897)" fill="#689314"/>
          <path id="Trazado_115922" data-name="Trazado 115922" d="M140.148,308.128v-.752h-1.5v-1.612h-2.472v-1.182H134.99v-2.257h-2.9v-.967h-3.976v2.686h-2.687v1.719h-1.182v1.075h-2.364v1.29Z" transform="translate(-98.163 -262.234)" fill="#91ad1e"/>
          <g id="Grupo_83052" data-name="Grupo 83052" transform="translate(17.806 24.186)">
            <rect id="Rectángulo_34084" data-name="Rectángulo 34084" width="28.156" height="7.522" transform="translate(28.156 7.522) rotate(-180)" fill="#d3641a"/>
            <rect id="Rectángulo_34085" data-name="Rectángulo 34085" width="28.156" height="1.504" transform="translate(0 3.009)" fill="#bc5115"/>
            <g id="Grupo_83050" data-name="Grupo 83050" transform="translate(0 0)">
              <rect id="Rectángulo_34086" data-name="Rectángulo 34086" width="4.594" height="3.546" transform="translate(25.738 3.546) rotate(-180)" fill="#bc5115"/>
              <rect id="Rectángulo_34087" data-name="Rectángulo 34087" width="3.224" height="1.478" transform="translate(21.385 7.522) rotate(-180)" fill="#bc5115"/>
              <rect id="Rectángulo_34088" data-name="Rectángulo 34088" width="3.546" height="2.66" transform="translate(14.615 5.078) rotate(-180)" fill="#bc5115"/>
              <rect id="Rectángulo_34089" data-name="Rectángulo 34089" width="3.143" height="1.693" transform="translate(6.958 1.693) rotate(-180)" fill="#bc5115"/>
              <rect id="Rectángulo_34090" data-name="Rectángulo 34090" width="5.427" height="3.412" transform="translate(5.427 7.522) rotate(-180)" fill="#bc5115"/>
            </g>
            <g id="Grupo_83051" data-name="Grupo 83051" transform="translate(3.251 0)">
              <rect id="Rectángulo_34091" data-name="Rectángulo 34091" width="3.869" height="2.095" transform="translate(24.905 6.045) rotate(-180)" fill="#e26e20"/>
              <rect id="Rectángulo_34092" data-name="Rectángulo 34092" width="3.305" height="1.854" transform="translate(14.75 1.854) rotate(-180)" fill="#e26e20"/>
              <rect id="Rectángulo_34093" data-name="Rectángulo 34093" width="4.11" height="2.498" transform="translate(4.11 6.206) rotate(-180)" fill="#e26e20"/>
            </g>
          </g>
          <g id="Grupo_83053" data-name="Grupo 83053" transform="translate(53.348 13.188)">
            <rect id="Rectángulo_34094" data-name="Rectángulo 34094" width="4.717" height="4.114" transform="translate(4.717 4.941) rotate(-180)" fill="#fc9c1d"/>
            <rect id="Rectángulo_34095" data-name="Rectángulo 34095" width="2.097" height="4.114" transform="translate(4.565 4.941) rotate(-180)" fill="#fc9c1d"/>
            <rect id="Rectángulo_34096" data-name="Rectángulo 34096" width="3.375" height="5.767" transform="translate(4.282 5.767) rotate(-180)" fill="#fc9c1d"/>
            <rect id="Rectángulo_34097" data-name="Rectángulo 34097" width="3.375" height="5.767" transform="translate(5.138 5.767) rotate(-180)" fill="#fd3"/>
            <rect id="Rectángulo_34098" data-name="Rectángulo 34098" width="4.717" height="4.114" transform="translate(5.998 4.941) rotate(-180)" fill="#fd3"/>
            <rect id="Rectángulo_34099" data-name="Rectángulo 34099" width="1.19" height="5.163" transform="translate(4.112 5.465) rotate(-180)" fill="#fc9c1d"/>
          </g>
          <g id="Grupo_83054" data-name="Grupo 83054" transform="translate(28.885 13.188)">
            <rect id="Rectángulo_34100" data-name="Rectángulo 34100" width="4.717" height="4.114" transform="translate(4.717 4.941) rotate(-180)" fill="#fc9c1d"/>
            <rect id="Rectángulo_34101" data-name="Rectángulo 34101" width="2.097" height="4.114" transform="translate(4.565 4.941) rotate(-180)" fill="#fc9c1d"/>
            <rect id="Rectángulo_34102" data-name="Rectángulo 34102" width="3.375" height="5.767" transform="translate(4.282 5.767) rotate(-180)" fill="#fc9c1d"/>
            <rect id="Rectángulo_34103" data-name="Rectángulo 34103" width="3.375" height="5.767" transform="translate(5.138 5.767) rotate(-180)" fill="#fd3"/>
            <rect id="Rectángulo_34104" data-name="Rectángulo 34104" width="4.716" height="4.114" transform="translate(5.998 4.941) rotate(-180)" fill="#fd3"/>
            <rect id="Rectángulo_34105" data-name="Rectángulo 34105" width="1.191" height="5.163" transform="translate(4.112 5.465) rotate(-180)" fill="#fc9c1d"/>
          </g>
        </g>
      </g>
      <g id="table" transform="translate(160.054 134.431)">
        <rect id="Rectángulo_34106" data-name="Rectángulo 34106" width="60.558" height="135.413" transform="translate(9.723 4.862)" fill="#c99799"/>
        <rect id="Rectángulo_34107" data-name="Rectángulo 34107" width="4.842" height="147.151" transform="translate(67.882 4.452)" fill="#c99799"/>
        <g id="Grupo_83064" data-name="Grupo 83064" transform="translate(39.739 28.719)">
          <rect id="Rectángulo_34108" data-name="Rectángulo 34108" width="35.378" height="9.671" transform="translate(69.068 19.343) rotate(-180)" fill="#2b2923"/>
          <rect id="Rectángulo_34109" data-name="Rectángulo 34109" width="35.378" height="7.791" transform="translate(69.068 16.281) rotate(-180)" fill="#d8bcd3"/>
          <rect id="Rectángulo_34110" data-name="Rectángulo 34110" width="35.378" height="6.555" transform="translate(35.378 19.343) rotate(-180)" fill="#322f28"/>
          <path id="Trazado_115923" data-name="Trazado 115923" d="M152.191,340.4H116.813V336.37l3.224-3.756h35.378l-3.224,3.756Z" transform="translate(-116.813 -324.124)" fill="#f4e4ec"/>
          <g id="Grupo_83062" data-name="Grupo 83062" transform="translate(1.795 13.597)">
            <g id="Grupo_83060" data-name="Grupo 83060" transform="translate(21.885 0)">
              <rect id="Rectángulo_34111" data-name="Rectángulo 34111" width="8.311" height="3.869" rx="0.451" transform="translate(8.311 3.869) rotate(-180)" fill="#2b2923"/>
              <rect id="Rectángulo_34112" data-name="Rectángulo 34112" width="7.189" height="2.834" rx="0.33" transform="translate(7.75 3.352) rotate(-180)" fill="#f4e4ec"/>
              <rect id="Rectángulo_34113" data-name="Rectángulo 34113" width="6.395" height="2.205" rx="0.257" transform="translate(7.36 3.037) rotate(-180)" fill="#2b2923"/>
              <g id="Grupo_83059" data-name="Grupo 83059" transform="translate(1.594 1.352)">
                <g id="Grupo_83057" data-name="Grupo 83057">
                  <circle id="Elipse_4769" data-name="Elipse 4769" cx="0.175" cy="0.175" r="0.175" transform="translate(4.787 0)" fill="#f4e4ec"/>
                  <circle id="Elipse_4770" data-name="Elipse 4770" cx="0.175" cy="0.175" r="0.175" transform="translate(3.829 0)" fill="#f4e4ec"/>
                  <circle id="Elipse_4771" data-name="Elipse 4771" cx="0.175" cy="0.175" r="0.175" transform="translate(2.872 0)" fill="#f4e4ec"/>
                  <circle id="Elipse_4772" data-name="Elipse 4772" cx="0.175" cy="0.175" r="0.175" transform="translate(1.914 0)" fill="#f4e4ec"/>
                  <path id="Trazado_115924" data-name="Trazado 115924" d="M127.454,335.409a.175.175,0,1,0,.175-.175A.174.174,0,0,0,127.454,335.409Z" transform="translate(-126.498 -335.234)" fill="#f4e4ec"/>
                  <path id="Trazado_115925" data-name="Trazado 115925" d="M127.066,335.409a.175.175,0,1,0,.35,0,.175.175,0,0,0-.35,0Z" transform="translate(-127.066 -335.234)" fill="#f4e4ec"/>
                </g>
                <g id="Grupo_83058" data-name="Grupo 83058" transform="translate(0.489 0.715)">
                  <path id="Trazado_115926" data-name="Trazado 115926" d="M128.818,335.7a.175.175,0,1,0,.175-.175A.174.174,0,0,0,128.818,335.7Z" transform="translate(-124.988 -335.524)" fill="#f4e4ec"/>
                  <circle id="Elipse_4773" data-name="Elipse 4773" cx="0.175" cy="0.175" r="0.175" transform="translate(2.872 0)" fill="#f4e4ec"/>
                  <circle id="Elipse_4774" data-name="Elipse 4774" cx="0.175" cy="0.175" r="0.175" transform="translate(1.915 0)" fill="#f4e4ec"/>
                  <circle id="Elipse_4775" data-name="Elipse 4775" cx="0.175" cy="0.175" r="0.175" transform="translate(0.957 0)" fill="#f4e4ec"/>
                  <circle id="Elipse_4776" data-name="Elipse 4776" cx="0.175" cy="0.175" r="0.175" transform="translate(0 0)" fill="#f4e4ec"/>
                </g>
              </g>
            </g>
            <g id="Grupo_83061" data-name="Grupo 83061" transform="translate(0 0)">
              <rect id="Rectángulo_34114" data-name="Rectángulo 34114" width="8.311" height="3.869" rx="0.451" transform="translate(9.903 3.869) rotate(-180)" fill="#2b2923"/>
              <rect id="Rectángulo_34115" data-name="Rectángulo 34115" width="7.189" height="2.834" rx="0.33" transform="translate(9.342 3.352) rotate(-180)" fill="#f4e4ec"/>
              <rect id="Rectángulo_34116" data-name="Rectángulo 34116" width="6.395" height="2.205" rx="0.257" transform="translate(8.952 3.037) rotate(-180)" fill="#2b2923"/>
              <rect id="Rectángulo_34117" data-name="Rectángulo 34117" width="6.395" height="2.205" rx="0.257" transform="translate(6.395 3.037) rotate(-180)" fill="#322f28"/>
            </g>
          </g>
          <rect id="Rectángulo_34118" data-name="Rectángulo 34118" width="7.178" height="2.337" rx="0.262" transform="translate(21.278 17.409) rotate(-180)" fill="#49453e"/>
          <path id="Trazado_115927" data-name="Trazado 115927" d="M120.121,333.072H147.31l-1.5,1.72H118.617Z" transform="translate(-114.171 -323.454)" fill="#49453e"/>
          <g id="Grupo_83063" data-name="Grupo 83063" transform="translate(23.208 0)">
            <rect id="Rectángulo_34119" data-name="Rectángulo 34119" width="16.799" height="8.49" transform="translate(18.779 8.49) rotate(-180)" fill="#ef6b07"/>
            <rect id="Rectángulo_34120" data-name="Rectángulo 34120" width="17.858" height="7.039" transform="translate(19.309 8.49) rotate(-180)" fill="#ef6b07"/>
            <rect id="Rectángulo_34121" data-name="Rectángulo 34121" width="16.799" height="8.49" transform="translate(17.329 8.49) rotate(-180)" fill="#ff8c1a"/>
            <rect id="Rectángulo_34122" data-name="Rectángulo 34122" width="17.858" height="7.039" transform="translate(17.858 8.49) rotate(-180)" fill="#ff8c1a"/>
            <rect id="Rectángulo_34123" data-name="Rectángulo 34123" width="13.667" height="5.83" transform="translate(15.763 8.49) rotate(-180)" fill="#ef6b07"/>
          </g>
        </g>
        <rect id="Rectángulo_34124" data-name="Rectángulo 34124" width="4.842" height="147.151" transform="translate(143.153 4.452)" fill="#edc7c4"/>
        <rect id="Rectángulo_34125" data-name="Rectángulo 34125" width="2.881" height="147.151" transform="translate(85.174 4.452)" fill="#edc7c4"/>
        <rect id="Rectángulo_34126" data-name="Rectángulo 34126" width="65.612" height="135.628" transform="translate(82.383 4.862)" fill="#edc7c4"/>
        <rect id="Rectángulo_34127" data-name="Rectángulo 34127" width="4.842" height="147.151" transform="translate(9.723 4.452)" fill="#d3aaa6"/>
        <rect id="Rectángulo_34128" data-name="Rectángulo 34128" width="75.451" height="14.107" transform="translate(9.723 4.862)" fill="#d3aaa6"/>
        <rect id="Rectángulo_34129" data-name="Rectángulo 34129" width="75.451" height="10.196" transform="translate(9.723 48.062)" fill="#d3aaa6"/>
        <rect id="Rectángulo_34130" data-name="Rectángulo 34130" width="62.821" height="8.167" transform="translate(85.174 4.862)" fill="#d3aaa6"/>
        <rect id="Rectángulo_34131" data-name="Rectángulo 34131" width="73.261" height="9.252" transform="translate(83.377)" fill="#f2ccc9"/>
        <rect id="Rectángulo_34132" data-name="Rectángulo 34132" width="2.881" height="142.35" transform="translate(82.293 9.252)" fill="#d3aaa6"/>
        <rect id="Rectángulo_34133" data-name="Rectángulo 34133" width="75.451" height="8.538" transform="translate(9.723 4.49)" fill="#c49294"/>
        <rect id="Rectángulo_34134" data-name="Rectángulo 34134" width="85.264" height="9.252" fill="#ddb4b0"/>
        <rect id="Rectángulo_34135" data-name="Rectángulo 34135" width="156.638" height="1.912" fill="#ffe4eb"/>
      </g>
      <g id="Grupo_83079" data-name="Grupo 83079">
        <g id="Grupo_83072" data-name="Grupo 83072" transform="translate(37.565)">
          <path id="Trazado_115928" data-name="Trazado 115928" d="M71.53,342.516c14.591-2.342,29.745-34.017,29.745-34.017l-4.837-1.832-25.79,17.71Z" transform="translate(-22.226 -198.989)" fill="#ed9558"/>
          <path id="Trazado_115929" data-name="Trazado 115929" d="M134.6,423.674c6.343,0,10.817-10.487,14.764-19.746,3.173-7.428,6.165-14.441,9.419-14.559l-.02-.619c-3.651.121-6.582,6.989-9.974,14.936-3.87,9.079-8.258,19.369-14.189,19.369-10.76,0-15.676-32.747-20.431-64.4-4.58-30.5-8.907-59.312-18.353-59.753-.044,0-.1,0-.143,0-2.717,0-4.031,3.683-4.087,3.846l.589.2c.01-.034,1.23-3.422,3.505-3.422h.106c8.939.417,13.428,30.312,17.764,59.221C118.342,390.663,123.3,423.674,134.6,423.674Z" transform="translate(8.449 -210.377)" fill="#322f28"/>
          <path id="Trazado_115930" data-name="Trazado 115930" d="M83.565,311.643a9.4,9.4,0,0,0,6.932-1.891c3.143-2.542-4.593-5.2-4.593-5.2l-4.272,2.98Z" transform="translate(-6.131 -202.09)" fill="#ed9558"/>
          <path id="Trazado_115931" data-name="Trazado 115931" d="M99.545,318.647c2.544-5.611,4.137-9.833,3.708-11.123s-4.112-4.837-5.724-5.16-1.238,8.6-1.055,9.027-3,3.6-1.925,5.988S99.545,318.647,99.545,318.647Z" transform="translate(12.467 -205.306)" fill="#ffb476"/>
          <path id="Trazado_115932" data-name="Trazado 115932" d="M97.884,304.106a1.57,1.57,0,0,1,.451.961c.081.643-1.723,3.525-2.529,3.362S97.884,304.106,97.884,304.106Z" transform="translate(14.429 -202.742)" fill="#ed9558"/>
          <g id="Grupo_83070" data-name="Grupo 83070" transform="translate(80.067 91.743)">
            <path id="Trazado_115933" data-name="Trazado 115933" d="M90.946,303.107h1.774l1.323-2.9H92.269Z" transform="translate(-72.551 -300.203)" fill="#322f28"/>
            <path id="Trazado_115934" data-name="Trazado 115934" d="M86.139,315.573h22.729a6.365,6.365,0,0,0,5.179-3.535l3.407-7.334c.907-1.952.059-3.535-1.893-3.535H92.1a6.358,6.358,0,0,0-5.177,3.535l-3.069,6.6C82.949,313.261,83.7,315.573,86.139,315.573Z" transform="translate(-83.484 -298.788)" fill="#322f28"/>
            <path id="Trazado_115935" data-name="Trazado 115935" d="M85.891,314.143h21.619a6.358,6.358,0,0,0,5.179-3.535l2.7-5.9c.907-1.952.059-3.535-1.893-3.535H91.879A6.358,6.358,0,0,0,86.7,304.7l-2.7,5.9C83.093,312.56,83.939,314.143,85.891,314.143Z" transform="translate(-83.261 -298.788)" fill="#49453e"/>
            <path id="Trazado_115936" data-name="Trazado 115936" d="M86.165,313.31h20.688a6.11,6.11,0,0,0,4.982-3.333l2.473-5.263c.868-1.842.047-3.333-1.837-3.333H91.783a6.106,6.106,0,0,0-4.98,3.333l-2.475,5.263C83.461,311.818,84.284,313.31,86.165,313.31Z" transform="translate(-82.753 -298.477)" fill="#f4e4ec"/>
            <path id="Trazado_115937" data-name="Trazado 115937" d="M84,305.106h28.012l.193-.433H84.194Z" transform="translate(-82.727 -293.655)" fill="#49453e"/>
            <g id="Grupo_83065" data-name="Grupo 83065" transform="translate(22.227 5.536)">
              <path id="Trazado_115938" data-name="Trazado 115938" d="M99.054,304.917l.55-1.205c.076-.17,0-.308-.168-.308H93.529a.547.547,0,0,0-.449.308l-.55,1.205c-.076.17,0,.308.168.308h5.907A.547.547,0,0,0,99.054,304.917Z" transform="translate(-92.501 -301.051)" fill="#2b2923"/>
              <path id="Trazado_115939" data-name="Trazado 115939" d="M97.4,302.449H96.19a.548.548,0,0,0-.449.311l-2.689,5.907c-.079.17,0,.308.168.308h1.2a.55.55,0,0,0,.449-.308l2.692-5.907C97.639,302.587,97.565,302.449,97.4,302.449Z" transform="translate(-91.74 -302.449)" fill="#2b2923"/>
            </g>
            <g id="Grupo_83066" data-name="Grupo 83066" transform="translate(21.571 5.536)">
              <path id="Trazado_115940" data-name="Trazado 115940" d="M98.788,304.917l.547-1.205c.079-.17,0-.308-.168-.308H93.261a.55.55,0,0,0-.449.308l-.547,1.205c-.079.17,0,.308.168.308H98.34A.55.55,0,0,0,98.788,304.917Z" transform="translate(-92.234 -301.051)" fill="#49453e"/>
              <path id="Trazado_115941" data-name="Trazado 115941" d="M97.128,302.449h-1.2a.545.545,0,0,0-.449.311l-2.692,5.907c-.079.17,0,.308.168.308h1.2a.547.547,0,0,0,.449-.308L97.3,302.76C97.375,302.587,97.3,302.449,97.128,302.449Z" transform="translate(-91.474 -302.449)" fill="#49453e"/>
            </g>
            <g id="Grupo_83068" data-name="Grupo 83068" transform="translate(10.899 9.836)">
              <path id="Trazado_115942" data-name="Trazado 115942" d="M88.486,306.749h6.653a1.62,1.62,0,0,0,1.324-.888l.385-.784c.232-.488.012-.885-.488-.885H89.706a1.63,1.63,0,0,0-1.326.885l-.382.784C87.766,306.352,87.986,306.749,88.486,306.749Z" transform="translate(-87.906 -304.193)" fill="#49453e"/>
              <g id="Grupo_83067" data-name="Grupo 83067" transform="translate(0.98 0.801)">
                <path id="Trazado_115943" data-name="Trazado 115943" d="M90.021,305.472H92.5a.607.607,0,0,0,.5-.33l.143-.293c.086-.182,0-.33-.182-.33H90.477a.607.607,0,0,0-.5.33l-.143.293C89.752,305.324,89.834,305.472,90.021,305.472Z" transform="translate(-86.104 -304.518)" fill="#2b2923"/>
                <path id="Trazado_115944" data-name="Trazado 115944" d="M88.52,305.472H91a.607.607,0,0,0,.493-.33l.143-.293c.086-.182,0-.33-.182-.33H88.976a.607.607,0,0,0-.5.33l-.143.293C88.251,305.324,88.335,305.472,88.52,305.472Z" transform="translate(-88.303 -304.518)" fill="#2b2923"/>
              </g>
            </g>
            <g id="Grupo_83069" data-name="Grupo 83069" transform="translate(2.287 5.536)">
              <path id="Trazado_115945" data-name="Trazado 115945" d="M86.156,306.4h.7l.94-2.282h-.7Z" transform="translate(-81.857 -300.004)" fill="#2b2923"/>
              <path id="Trazado_115946" data-name="Trazado 115946" d="M84.716,306.4h.7l.941-2.282h-.7Z" transform="translate(-83.966 -300.004)" fill="#2b2923"/>
              <path id="Trazado_115947" data-name="Trazado 115947" d="M86.094,305.281h3.782a2.517,2.517,0,0,0,2.061-1.415h0c.357-.781.012-1.417-.769-1.417H87.383a2.516,2.516,0,0,0-2.058,1.417h0C84.967,304.648,85.313,305.281,86.094,305.281Z" transform="translate(-83.281 -302.449)" fill="#49453e"/>
              <path id="Trazado_115948" data-name="Trazado 115948" d="M86.9,303.7c-.288.629-.01,1.141.621,1.141a2.031,2.031,0,0,0,1.659-1.141c.288-.631.01-1.141-.621-1.141A2.025,2.025,0,0,0,86.9,303.7Z" transform="translate(-80.936 -302.285)" fill="#e0243f"/>
              <path id="Trazado_115949" data-name="Trazado 115949" d="M85.471,303.7c-.288.629-.01,1.141.621,1.141a2.034,2.034,0,0,0,1.662-1.141c.286-.631.01-1.141-.621-1.141A2.026,2.026,0,0,0,85.471,303.7Z" transform="translate(-83.027 -302.285)" fill="#e0243f"/>
              <path id="Trazado_115950" data-name="Trazado 115950" d="M86.186,305.26c-.286.631-.007,1.141.621,1.141a2.026,2.026,0,0,0,1.662-1.141c.288-.629.01-1.141-.621-1.141A2.038,2.038,0,0,0,86.186,305.26Z" transform="translate(-81.977 -300.002)" fill="#2b2923"/>
              <path id="Trazado_115951" data-name="Trazado 115951" d="M84.761,305.26c-.288.631-.01,1.141.621,1.141a2.032,2.032,0,0,0,1.662-1.141c.286-.629.007-1.141-.621-1.141A2.031,2.031,0,0,0,84.761,305.26Z" transform="translate(-84.068 -300.002)" fill="#2b2923"/>
              <path id="Trazado_115952" data-name="Trazado 115952" d="M85.951,305.26c-.286.631-.007,1.141.621,1.141a2.026,2.026,0,0,0,1.662-1.141c.288-.629.01-1.141-.621-1.141A2.037,2.037,0,0,0,85.951,305.26Z" transform="translate(-82.322 -300.002)" fill="#49453e"/>
              <path id="Trazado_115953" data-name="Trazado 115953" d="M84.526,305.26c-.288.631-.01,1.141.621,1.141a2.033,2.033,0,0,0,1.662-1.141c.286-.629.007-1.141-.621-1.141A2.031,2.031,0,0,0,84.526,305.26Z" transform="translate(-84.412 -300.002)" fill="#49453e"/>
              <path id="Trazado_115954" data-name="Trazado 115954" d="M86.839,304.843h.7l.94-2.283h-.7Z" transform="translate(-80.856 -302.285)" fill="#e0243f"/>
              <path id="Trazado_115955" data-name="Trazado 115955" d="M85.438,304.843h.7l.941-2.283h-.7Z" transform="translate(-82.909 -302.285)" fill="#e0243f"/>
              <path id="Trazado_115956" data-name="Trazado 115956" d="M86.663,303.7c-.288.629-.01,1.141.621,1.141a2.031,2.031,0,0,0,1.659-1.141c.288-.631.01-1.141-.621-1.141A2.025,2.025,0,0,0,86.663,303.7Z" transform="translate(-81.281 -302.285)" fill="#f43149"/>
              <path id="Trazado_115957" data-name="Trazado 115957" d="M85.235,303.7c-.286.629-.01,1.141.621,1.141a2.034,2.034,0,0,0,1.662-1.141c.286-.631.01-1.141-.621-1.141A2.029,2.029,0,0,0,85.235,303.7Z" transform="translate(-83.371 -302.285)" fill="#f43149"/>
            </g>
          </g>
          <path id="Trazado_115958" data-name="Trazado 115958" d="M93,302.687c.392.89-1.538,2.542-3.234,2.586l-1.7,1.44s-1.272,6.934-5.3,5.968l-1.129-2.016s4.351-6.286,5.238-6.688S92.572,301.724,93,302.687Z" transform="translate(-6.131 -205.224)" fill="#ffb476"/>
          <g id="Grupo_83071" data-name="Grupo 83071">
            <path id="Trazado_115959" data-name="Trazado 115959" d="M82.368,294.8c-4.514.525-15.634-2.7-15.634-2.7l3.922-3.868,11.818,1.612Z" transform="translate(-27.959 -225.994)" fill="#822d0f"/>
            <path id="Trazado_115960" data-name="Trazado 115960" d="M79.661,296.344c-21.716,1.592,8.85,74.317,24.067,65.056,7-4.257-.984-17.434-6.345-31.584S85.583,295.91,79.661,296.344Z" transform="translate(-20.068 -214.125)" fill="#ffb476"/>
            <path id="Trazado_115961" data-name="Trazado 115961" d="M84.838,344.3c14.591-2.344,29.9-34.581,29.9-34.581a20.132,20.132,0,0,0-5-1.267c-8.867,8.2-25.793,17.707-25.793,17.707Z" transform="translate(-2.73 -196.376)" fill="#ffb476"/>
            <path id="Trazado_115962" data-name="Trazado 115962" d="M98.35,343.5l-.118.032-.027.01,0,0c-7.181,1.79-16.948-11.633-23.372-26.8l19.046-4.228,1.75,4.321-11.848,7.659S91.3,340.4,96.891,339.967s22.781-13.756,31.219-31C128.109,308.965,112.9,340.97,98.35,343.5Z" transform="translate(-16.097 -195.623)" fill="#ed9558"/>
            <path id="Trazado_115963" data-name="Trazado 115963" d="M80.658,334.431A10.6,10.6,0,0,0,90.07,339.4c5.7-.32,12.683-7.822,9.242-18.052-2.771-8.239-12.143-7.095-12.143-7.095Z" transform="translate(-7.558 -187.96)" fill="#fff27d"/>
            <path id="Trazado_115964" data-name="Trazado 115964" d="M97.225,375.663a22.51,22.51,0,0,0,9.442,6.663c6.387,2.5,10.275,1.94,10,3.609s-24.154.828-24.156-1.112,1.109-4.718.831-9.16S97.225,375.663,97.225,375.663Z" transform="translate(9.802 -100.794)" fill="#2d313d"/>
            <path id="Trazado_115965" data-name="Trazado 115965" d="M76.514,279.875c1.479,6.461,3.885,7.916,3.353,9.227s-5.68,2.359-5.68,2.359S75.779,281.909,76.514,279.875Z" transform="translate(-17.039 -238.245)" fill="#ed9558"/>
            <path id="Trazado_115966" data-name="Trazado 115966" d="M76.105,285.669a5.162,5.162,0,0,1-1.388-.175.468.468,0,0,1-.353-.587.512.512,0,0,1,.636-.328,3.048,3.048,0,0,0,2.507-.278c1.9-1.193,2.3-4.489,2.3-4.524a.5.5,0,0,1,.562-.424.484.484,0,0,1,.458.52c-.017.153-.446,3.767-2.744,5.211A3.8,3.8,0,0,1,76.105,285.669Z" transform="translate(-16.808 -239.012)" fill="#363942"/>
            <path id="Trazado_115967" data-name="Trazado 115967" d="M88.9,270.243s2.916,1.218,2.7,12.232a93,93,0,0,1-1.79,12.4c-.21,2.549,1.09,5.13,1.048,8.133-.044,3.318-4.834,16.194-5.685,17.261,0,0-6.809.158-20.1-5.778Z" transform="translate(-30.394 -252.357)" fill="#ffb476"/>
            <path id="Trazado_115968" data-name="Trazado 115968" d="M72.022,287.451c.767,13.194,10.7,17.55,10.7,17.55s-3.052.537-14.236-2.386l-1.733-21.95Z" transform="translate(-27.937 -237.089)" fill="#d1652f"/>
            <path id="Trazado_115969" data-name="Trazado 115969" d="M79.559,273.3s-5.771,8.024-4.945,24.563l-3.925.032s.818-4.568-.757-6.488l4.156-19.822Z" transform="translate(-23.272 -250.385)" fill="#822d0f"/>
            <path id="Trazado_115970" data-name="Trazado 115970" d="M62.057,292.739c1.371,5.312,0,11.071-1.109,12.809H82.06c-1.082-3.047-.846-12.111-.846-12.111-.039-2.643-3.091-5.783-3-8.6Z" transform="translate(-36.436 -230.976)" fill="#d1652f"/>
            <path id="Trazado_115971" data-name="Trazado 115971" d="M99.683,287.719c5.073-3.885,17.251-10.63,12.447-16.729-6.777-8.6-54.805-12.9-53.455,5.633C45.718,294.2,66.245,320.7,71.405,323.668c2.1,2.142,13.536,1.753,17.663-11.668.594-5.549,2.473-6,4.27-8.426C95.751,300.308,99.683,287.719,99.683,287.719Z" transform="translate(-45.952 -262.05)" fill="#822d0f"/>
            <path id="Trazado_115972" data-name="Trazado 115972" d="M74.332,280.438c-.892-.486-.663-1.277.091-1.883,1.008-.811,3.607-2.162,4.76-1.5.557.321.259,1.514.1,1.9C78.713,280.3,75.745,280.832,74.332,280.438Z" transform="translate(-17.673 -242.633)" fill="#822d0f"/>
            <path id="Trazado_115973" data-name="Trazado 115973" d="M69.583,289.739a.524.524,0,0,1-.407-.173c-.086-.094-2.071-2.357-1.622-4.731a4.453,4.453,0,0,1,2.463-3.02c4.415-2.441,19.7-2.463,20.347-2.465a.491.491,0,0,1,.513.473.505.505,0,0,1-.515.476c-.165,0-15.646.022-19.817,2.33a3.541,3.541,0,0,0-1.977,2.362c-.37,1.942,1.385,3.952,1.4,3.971a.451.451,0,0,1-.071.668A.555.555,0,0,1,69.583,289.739Z" transform="translate(-26.854 -239.012)" fill="#363942"/>
            <ellipse id="Elipse_4777" data-name="Elipse 4777" cx="3.798" cy="5.048" rx="3.798" ry="5.048" transform="matrix(0.998, -0.055, 0.055, 0.998, 41.276, 40.848)" fill="#ffb476"/>
            <path id="Trazado_115974" data-name="Trazado 115974" d="M71.712,285.68c-1,.17-1.943-.772-2.1-2.105a2.328,2.328,0,0,1,1.521-2.721,1.443,1.443,0,0,1,1.05.283,1.941,1.941,0,0,0-1.8-.8c-1.223.207-2.053,1.694-1.859,3.321s1.343,2.781,2.564,2.571a1.974,1.974,0,0,0,1.188-.8A1.507,1.507,0,0,1,71.712,285.68Z" transform="translate(-25.384 -237.603)" fill="#d1652f"/>
            <path id="Trazado_115975" data-name="Trazado 115975" d="M87.429,375.663s-.2,4.164,5.576,6.663,6.178,1.94,5.926,3.607-15.77.831-15.772-1.109,1-4.718.752-9.16S87.429,375.663,87.429,375.663Z" transform="translate(-3.894 -100.794)" fill="#2d313d"/>
            <path id="Trazado_115976" data-name="Trazado 115976" d="M115.8,442.252c.74-56.05,10.351-98.123,3.382-104.671-10.216-9.6-53.425-8.8-53.425-8.8l34.764,28.46a212.248,212.248,0,0,0-3.242,29.141c-.878,17.653,8.872,55.87,8.872,55.87Z" transform="translate(-29.392 -166.614)" fill="#0e89a5"/>
            <path id="Trazado_115977" data-name="Trazado 115977" d="M158.244,446.742c1.77-58.577,16.5-94.669,8.507-103.64-6.476-7.265-50.686-12.9-50.686-12.9l-9.267-4.5-53.755,8.532s.944,27.615,21.442,30.008h71.369s-3.705,8.236-4.583,25.887,7.322,56.615,7.322,56.615Z" transform="translate(-48.019 -171.104)" fill="#18a1ba"/>
            <path id="Trazado_115978" data-name="Trazado 115978" d="M144.475,435.4s-8.2-38.964-7.322-56.615,4.583-25.887,4.583-25.887H70.368a20.305,20.305,0,0,1-14.515-8.69l31.818-10.765,12.885,6.279c18.07,4.883,48.391,7.832,48.391,7.832s4.344-4.556,5.184-2.869-4.738,3.71-4.738,3.71,4.344-1.21,4.344.473-4.5.791-4.5.791a109.875,109.875,0,0,0-5.132,29.059c-.422,15.37,4.213,56.681,4.213,56.681Z" transform="translate(-43.901 -159.76)" fill="#0e89a5"/>
            <path id="Trazado_115979" data-name="Trazado 115979" d="M56.554,306.368c1.1-4.026,7.4-11.086,19.241-13.075,0,0,17.286-.207,21.23,0,5.623,1.136,14.12,3.737,17.939,8.054l-.062.121c8.635,10.77-5.238,54.017-2.1,65.973A13.236,13.236,0,0,0,122.99,377c-10.694,30.957-47.716,38.2-57.527,30.432C43.837,390.3,51.518,324.788,56.554,306.368Z" transform="translate(-51.005 -218.72)" fill="#ffd44d"/>
            <path id="Trazado_115980" data-name="Trazado 115980" d="M107.66,398.681c-15.168,12.24-35.331,14.192-42.2,8.756C43.837,390.3,51.518,324.788,56.554,306.368c1.1-4.026,7.4-11.086,19.241-13.075,0,0,17.286-.207,21.23,0,5.623,1.136,14.12,3.737,17.939,8.054,0,0-13.258,5.307.525,35.843-1.087,6.979-2.815,16.048-3.121,26.624a92.706,92.706,0,0,1-13.657-28.349S94.668,392.508,107.66,398.681Z" transform="translate(-51.005 -218.72)" fill="#ffac33"/>
            <path id="Trazado_115981" data-name="Trazado 115981" d="M87.576,294.791s-4.319,1.657-15.935,1.625c-8.463-.025-12.129-1.494-12.129-1.494A45.237,45.237,0,0,1,87.576,294.791Z" transform="translate(-38.539 -219.514)" fill="#d1652f"/>
            <path id="Trazado_115982" data-name="Trazado 115982" d="M84.024,297.434c4.985,3.008,11.889,20.739,19.559,44.528,5.044,13.652,3.079,20.951-2.938,22.455-1.136.276-7.415,1.935-16.982-16.07-7.013-13.2-14.912-42.388-10.026-49.429C77.694,293.075,84.024,297.434,84.024,297.434Z" transform="translate(-20.065 -214.808)" fill="#ffd44d"/>
            <path id="Trazado_115983" data-name="Trazado 115983" d="M57.266,269.6c9.789-9.851,43.643-6.04,50.309.974-.222,5.12-13.689,12.784-30.085,10.921C64.42,280.012,58.513,274.115,57.266,269.6Z" transform="translate(-41.831 -262.027)" fill="#933914"/>
            <path id="Trazado_115984" data-name="Trazado 115984" d="M100.135,318.79c.6,8.024-5.182,13.6-10.065,13.874a10.6,10.6,0,0,1-9.412-4.965l.34-1.05,11.867-3.87C97.241,322.779,99.97,319.022,100.135,318.79Z" transform="translate(-7.558 -181.228)" fill="#ffd44d"/>
            <path id="Trazado_115985" data-name="Trazado 115985" d="M57.266,270.564s3.459-4.011,12.057-7.021L66.9,265.89s13.81-4.711,27.565-2.13l-6.878,2.364Z" transform="translate(-41.831 -262.988)" fill="#933914"/>
            <path id="Trazado_115986" data-name="Trazado 115986" d="M87.435,267.644c.279,5.3-4.4,9.659-4.4,9.659l.757-2.953c-4.63,4.58-9.873,7.484-11.761,15.516l.042-7.888L75.3,277.14Z" transform="translate(-20.192 -256.165)" fill="#822d0f"/>
            <path id="Trazado_115987" data-name="Trazado 115987" d="M73.074,298.632c5.8-7.524,11.751-.249,11.751-.249s-10.248-1.9-5.948,20.882,14.175,42.566,21.7,40.9c7.1-1.57,5.347-11.739,4.669-14.611,3.816,11.907,1.807,18.41-3.8,19.81-1.136.276-7.415,1.935-16.982-16.07C77.449,336.1,67.84,305.417,73.074,298.632Z" transform="translate(-20.866 -215.757)" fill="#ffac33"/>
            <path id="Trazado_115988" data-name="Trazado 115988" d="M76.011,282.64c0,11.32,5.431,15.4,5.431,15.4.86.643-.752,5.815-2.364,5.921-2.184.146-9.725-8.717-10.1-14.244.111-1.287,4-3.035,4.814-7.741Z" transform="translate(-24.668 -235.157)" fill="#822d0f"/>
          </g>
          <path id="Trazado_115989" data-name="Trazado 115989" d="M95.613,316.608a16.7,16.7,0,0,1-1.519-4.617c-.212-2.016.071-2.946-.108-4.7s-.875-3.764.2-4.329,1.915,2.024,2.29,3.789a8,8,0,0,0,2.354,3.468S98.7,314.732,95.613,316.608Z" transform="translate(11.403 -204.533)" fill="#ffb476"/>
        </g>
        <g id="chair" transform="translate(0 70.638)">
          <g id="Grupo_83073" data-name="Grupo 83073" transform="translate(61.29 208.869)">
            <rect id="Rectángulo_34136" data-name="Rectángulo 34136" width="0.526" height="5.814" transform="translate(4.558 0.876)" fill="#423e36"/>
            <rect id="Rectángulo_34137" data-name="Rectángulo 34137" width="0.526" height="5.814" transform="translate(0 0.876)" fill="#423e36"/>
            <rect id="Rectángulo_34138" data-name="Rectángulo 34138" width="2.086" height="7.567" transform="translate(0.281)" fill="#2b2923"/>
            <rect id="Rectángulo_34139" data-name="Rectángulo 34139" width="2.086" height="7.567" transform="translate(2.735)" fill="#2b2923"/>
            <rect id="Rectángulo_34140" data-name="Rectángulo 34140" width="2.086" height="5.814" transform="translate(1.683 0.876)" fill="#2b2923"/>
            <rect id="Rectángulo_34141" data-name="Rectángulo 34141" width="1.56" height="3.254" transform="translate(0.543 0.427)" fill="#35322b" opacity="0.2" style="mix-blend-mode: screen;isolation: isolate"/>
            <rect id="Rectángulo_34142" data-name="Rectángulo 34142" width="1.735" height="3.254" transform="translate(2.91 0.427)" fill="#35322b" opacity="0.2" style="mix-blend-mode: screen;isolation: isolate"/>
          </g>
          <g id="Grupo_83074" data-name="Grupo 83074" transform="translate(34.896 208.986)">
            <path id="Trazado_115990" data-name="Trazado 115990" d="M57.372,380.143a3.725,3.725,0,1,1-3.725-3.725A3.725,3.725,0,0,1,57.372,380.143Z" transform="translate(-49.922 -376.418)" fill="#2b2923"/>
            <path id="Trazado_115991" data-name="Trazado 115991" d="M54.628,379.122a2,2,0,1,1-2-2.007A2,2,0,0,1,54.628,379.122Z" transform="translate(-48.899 -375.397)" fill="#423e36"/>
          </g>
          <g id="Grupo_83075" data-name="Grupo 83075" transform="translate(85.318 208.986)">
            <path id="Trazado_115992" data-name="Trazado 115992" d="M77.826,380.143a3.725,3.725,0,1,1-3.725-3.725A3.726,3.726,0,0,1,77.826,380.143Z" transform="translate(-70.376 -376.418)" fill="#2b2923"/>
            <path id="Trazado_115993" data-name="Trazado 115993" d="M75.082,379.122a2,2,0,1,1-2-2.007A2,2,0,0,1,75.082,379.122Z" transform="translate(-69.353 -375.397)" fill="#423e36"/>
          </g>
          <rect id="Rectángulo_34143" data-name="Rectángulo 34143" width="67.962" height="5.148" transform="translate(66.406 136.523) rotate(90)" fill="#8091bf"/>
          <rect id="Rectángulo_34144" data-name="Rectángulo 34144" width="67.962" height="1.881" transform="translate(63.139 136.523) rotate(90)" fill="#606f96"/>
          <path id="Trazado_115994" data-name="Trazado 115994" d="M68.585,365.153l4.092-19.283H58.857l4.092,19.283Z" transform="translate(-1.935 -212.19)" fill="#606f96"/>
          <path id="Trazado_115995" data-name="Trazado 115995" d="M49.922,379.792h57.872v-1.587l-23.247-3.879H73.168l-23.246,3.879Z" transform="translate(-15.026 -170.497)" fill="#8091bf"/>
          <path id="Trazado_115996" data-name="Trazado 115996" d="M58.8,384.365h14.09l-2.617-16.442H61.419Z" transform="translate(-2.015 -179.879)" fill="#8091bf"/>
          <path id="Trazado_115997" data-name="Trazado 115997" d="M64.287,359.019a4.106,4.106,0,0,0,1.366-.185c2.847-1.038,2.263-9.912,2.184-10.921a.429.429,0,0,0-.426-.394l-.035,0a.424.424,0,0,0-.392.459c.266,3.56.062,9.434-1.622,10.048-2.039.725-9.772-1.642-12.582-2.623a.431.431,0,0,0-.286.814C53.42,356.539,60.646,359.019,64.287,359.019Z" transform="translate(-11.679 -209.773)" fill="#2b2923"/>
          <path id="Trazado_115998" data-name="Trazado 115998" d="M53.923,349.608c1.874.5,4.647,2.492,4.262,3.949s-3.782,1.822-5.658,1.326-3.079-2.078-2.694-3.535S52.05,349.112,53.923,349.608Z" transform="translate(-15.261 -206.932)" fill="#2b2923"/>
          <path id="Trazado_115999" data-name="Trazado 115999" d="M74.43,367.922h8.857l-5.546,2.483L76,389.175H49.922v-1.587l21.873-3.661Z" transform="translate(-15.026 -179.879)" fill="#606f96"/>
          <g id="Grupo_83078" data-name="Grupo 83078">
            <path id="Rectángulo_34145" data-name="Rectángulo 34145" d="M3.508,0H83.27a3.394,3.394,0,0,1,3.394,3.394V16.989a0,0,0,0,1,0,0H0a0,0,0,0,1,0,0V3.508A3.508,3.508,0,0,1,3.508,0Z" transform="translate(33.473 121.578)" fill="#2b2923"/>
            <path id="Trazado_116000" data-name="Trazado 116000" d="M57.8,340.96a8.529,8.529,0,0,0-8.325,7.055h86.078a8.261,8.261,0,0,0-8.1-7.055Z" transform="translate(-15.681 -219.383)" fill="#322f28"/>
            <g id="Grupo_83076" data-name="Grupo 83076">
              <path id="Trazado_116001" data-name="Trazado 116001" d="M107.6,348.148l-.091-.481-.113-2.869c-.907-15.471-1.292-27.989-1.42-34.078l-.145-3.713a16.05,16.05,0,0,0-15.977-15.365H55.222A15.389,15.389,0,0,0,39.792,307.7s.311,18.6,1.652,39.97c.471,7.5,6.5,82.541,27.178,82.541h57.8L120.263,414.8C111.27,392.95,108.058,354.905,107.6,348.148Z" transform="translate(-29.886 -291.642)" fill="#2b2923"/>
              <path id="Trazado_116002" data-name="Trazado 116002" d="M102.84,348.148l-.081-.481-.064-2.869c-.641-15.471-.772-27.989-.794-34.078l-.081-3.713a15.714,15.714,0,0,0-15.71-15.365H51.478A15.713,15.713,0,0,0,35.77,307.7c-.062,26.069.385,122.511,26.671,122.511H117.01L114.347,414.8C105.732,392.95,103.183,354.905,102.84,348.148Z" transform="translate(-35.766 -291.642)" fill="#322f28"/>
              <path id="Trazado_116003" data-name="Trazado 116003" d="M67.854,336.12a72.537,72.537,0,0,0,35.7-9.237c1.772,12.412,4.457,26.1,8.473,36.28l2.662,15.412H60.116c-12.592,0-19.246-22.615-22.763-49.035A73.231,73.231,0,0,0,67.854,336.12Z" transform="translate(-33.442 -240.008)" fill="#2b2923"/>
              <rect id="Rectángulo_34146" data-name="Rectángulo 34146" width="58.625" height="26.52" rx="3.733" transform="translate(4.09 5.777)" fill="#322f28" opacity="0.2" style="mix-blend-mode: screen;isolation: isolate"/>
            </g>
            <g id="Grupo_83077" data-name="Grupo 83077" transform="translate(70.862 87.111)">
              <path id="Trazado_116004" data-name="Trazado 116004" d="M65.782,329.672s4.726,44.809,22.177,44.809H112.4V329.672Zm42.489,40.387H88.4c-14.187,0-18.028-36.428-18.028-36.428h37.9Z" transform="translate(-62.651 -323.033)" fill="#606f96"/>
              <path id="Trazado_116005" data-name="Trazado 116005" d="M64.875,329.672s4.726,44.809,22.177,44.809h24.44V329.672Zm42.489,40.387H87.5c-14.187,0-18.028-36.428-18.028-36.428h37.9Z" transform="translate(-63.98 -323.033)" fill="#8091bf"/>
              <path id="Trazado_116006" data-name="Trazado 116006" d="M66.1,337.856h3.954c-.4-2.554-.587-4.225-.587-4.225h37.9v4.225h4.127v-8.184H64.875S65.242,333.034,66.1,337.856Z" transform="translate(-63.98 -323.033)" fill="#606f96"/>
              <path id="Trazado_116007" data-name="Trazado 116007" d="M120.289,328.076c-1.4-1.514-55.777-1.021-55.777-1.021l1.04,7.994h55.7S121.686,329.59,120.289,328.076Z" transform="translate(-64.512 -326.979)" fill="#2b2923"/>
            </g>
          </g>
        </g>
      </g>
    </g>
  </g>
</svg>
