<svg xmlns="http://www.w3.org/2000/svg" viewBox="0 0 60.22 59.08"><defs><style>.cls-1{fill:#fff;}.cls-2{fill:#010101;}.cls-3{fill:#4b7dbe;}.cls-4{opacity:0.13;}</style></defs><g id="Capa_2" data-name="Capa 2"><g id="txt"><rect class="cls-1" x="3.16" y="21.57" width="56.67" height="37.11"/><path class="cls-2" d="M59.83,59.08H3.16a.4.4,0,0,1-.4-.4V21.57a.4.4,0,0,1,.4-.4H59.83a.39.39,0,0,1,.39.4V58.68A.39.39,0,0,1,59.83,59.08Zm-56.28-.8H59.43V22H3.55Z"/><rect class="cls-3" x="52.27" y="21.57" width="7.56" height="37.11"/><path class="cls-2" d="M59.83,59.08H52.27a.4.4,0,0,1-.4-.4V21.57a.4.4,0,0,1,.4-.4h7.56a.39.39,0,0,1,.39.4V58.68A.39.39,0,0,1,59.83,59.08Zm-7.16-.8h6.76V22H52.67Z"/><rect class="cls-3" x="0.4" y="21.57" width="4.42" height="37.11"/><path class="cls-2" d="M4.82,59.08H.4a.4.4,0,0,1-.4-.4V21.57a.4.4,0,0,1,.4-.4H4.82a.4.4,0,0,1,.4.4V58.68A.4.4,0,0,1,4.82,59.08Zm-4-.8H4.42V22H.8Z"/><path class="cls-1" d="M19.57,12.55c0,5.37-.17,10.74-.45,16.33a15.26,15.26,0,0,0,10.54,3.44,22.12,22.12,0,0,0,11-3.66c0-5.3,0-10.6.07-16-6-1.77-12.47-1.31-18.68-.35C21.37,12.36,20.75,12.46,19.57,12.55Z"/><path class="cls-2" d="M29,32.73a15.56,15.56,0,0,1-10.14-3.55.37.37,0,0,1-.14-.32c.34-6.56.47-11.59.45-16.31a.4.4,0,0,1,.37-.4,22.21,22.21,0,0,0,2.31-.27h.09c5.37-.83,12.37-1.54,18.85.36a.4.4,0,0,1,.29.39c-.1,5.44-.09,10.83-.08,16a.4.4,0,0,1-.18.34,22.57,22.57,0,0,1-11.15,3.73Zm-9.48-4a14.94,14.94,0,0,0,10.12,3.21,21.54,21.54,0,0,0,10.57-3.49c0-5,0-10.25.07-15.52-6.25-1.75-13-1.06-18.22-.25H22c-.54.09-1.09.17-2,.25C20,17.5,19.85,22.4,19.52,28.71Z"/><path class="cls-1" d="M14.35,21.37a7.41,7.41,0,0,0-1.73,5.28l3.44,0C16,24.73,15.73,22.8,14.35,21.37Z"/><path class="cls-2" d="M12.62,27.05a.39.39,0,0,1-.28-.11.4.4,0,0,1-.12-.29,7.72,7.72,0,0,1,1.84-5.55.39.39,0,0,1,.29-.13.4.4,0,0,1,.29.12c1.47,1.53,1.7,3.55,1.82,5.49a.41.41,0,0,1-.1.3.46.46,0,0,1-.29.13l-3.45,0ZM14.36,22A7,7,0,0,0,13,26.25l2.62,0A7.58,7.58,0,0,0,14.36,22Z"/><polygon class="cls-3" points="29.88 0.4 10.21 10.51 30.2 20.24 49.33 9.93 29.88 0.4"/><path class="cls-2" d="M30.2,20.64a.33.33,0,0,1-.17,0L10,10.86a.39.39,0,0,1-.22-.35.41.41,0,0,1,.21-.36L29.69,0a.41.41,0,0,1,.36,0L49.51,9.57a.41.41,0,0,1,.22.35.41.41,0,0,1-.21.36L30.39,20.59A.32.32,0,0,1,30.2,20.64ZM11.1,10.5l19.09,9.3L48.46,10,29.88.84Z"/><path class="cls-2" d="M14.49,20.35a.4.4,0,0,1-.4-.37c-.24-3.84,2.65-7,5.61-8.53C23,9.83,26.71,9.63,30,9.57a.41.41,0,0,1,.4.4.39.39,0,0,1-.39.4c-3.18.06-6.83.24-9.93,1.79-2.73,1.37-5.39,4.3-5.18,7.77a.39.39,0,0,1-.37.42Z"/><path class="cls-1" d="M14.58,19.55a1.59,1.59,0,0,0-1.29.45,1.77,1.77,0,0,0-.49,1.2,1.26,1.26,0,0,0,1.11,1.32,2,2,0,0,0,1.38-.27,1.17,1.17,0,0,0,.47-.44,1.4,1.4,0,0,0,.14-.7,1.53,1.53,0,0,0-.17-.87A1.61,1.61,0,0,0,14.58,19.55Z"/><path class="cls-2" d="M14.24,23a2.58,2.58,0,0,1-.4,0,1.76,1.76,0,0,1-1.35-1.09,1.78,1.78,0,0,1-.09-.63A2.16,2.16,0,0,1,13,19.72a2,2,0,0,1,3.06.31,2,2,0,0,1,.23,1.09,1.81,1.81,0,0,1-.19.89,1.71,1.71,0,0,1-.61.58A2.51,2.51,0,0,1,14.24,23Zm.14-3a1.19,1.19,0,0,0-.81.34,1.37,1.37,0,0,0-.37.93.94.94,0,0,0,0,.35,1,1,0,0,0,.75.57,1.58,1.58,0,0,0,1.1-.22.77.77,0,0,0,.32-.29,1.19,1.19,0,0,0,.1-.51,1.34,1.34,0,0,0-.12-.67,1.21,1.21,0,0,0-.87-.49h-.14Z"/><path class="cls-2" d="M38.68,28.42h0a.13.13,0,0,1-.13-.13l.19-10.94a.13.13,0,0,1,.26,0l-.18,10.94A.14.14,0,0,1,38.68,28.42Z"/><path class="cls-2" d="M36.78,29.25h0a.12.12,0,0,1-.12-.14c.16-3.56.25-7.17.26-10.73a.13.13,0,0,1,.13-.14h0a.14.14,0,0,1,.14.14c0,3.57-.11,7.18-.27,10.75A.12.12,0,0,1,36.78,29.25Z"/><path class="cls-2" d="M35.07,30.16h0a.13.13,0,0,1-.13-.13L35,19.48a.13.13,0,0,1,.13-.13h0a.13.13,0,0,1,.13.13L35.2,30A.13.13,0,0,1,35.07,30.16Z"/><path class="cls-2" d="M33.29,30.86h0a.13.13,0,0,1-.13-.14l.06-10.39a.13.13,0,0,1,.13-.13h0a.13.13,0,0,1,.13.13l-.06,10.4A.13.13,0,0,1,33.29,30.86Z"/><path class="cls-2" d="M31.37,31.12a.13.13,0,0,1-.13-.13c0-3.25-.09-6.54-.17-9.78a.14.14,0,0,1,.27,0c.08,3.24.13,6.54.16,9.79a.13.13,0,0,1-.13.13Z"/><path class="cls-2" d="M29.08,31.37h0a.13.13,0,0,1-.13-.14l0-10a.13.13,0,0,1,.13-.13h0a.13.13,0,0,1,.14.13l0,10.06A.13.13,0,0,1,29.08,31.37Z"/><path class="cls-2" d="M27.1,31h0a.13.13,0,0,1-.13-.14L27,20.43a.13.13,0,0,1,.14-.13h0a.13.13,0,0,1,.13.13l-.07,10.44A.13.13,0,0,1,27.1,31Z"/><path class="cls-2" d="M25.29,30.69a.15.15,0,0,1-.14-.13c-.09-1.61-.08-3.24-.07-4.82a59.09,59.09,0,0,0-.19-6.23.14.14,0,0,1,.12-.15.15.15,0,0,1,.15.12,62.57,62.57,0,0,1,.18,6.26c0,1.58,0,3.21.08,4.81a.14.14,0,0,1-.13.14Z"/><path class="cls-2" d="M23.32,29.89a.13.13,0,0,1-.13-.13c-.15-3.71-.18-7.48-.09-11.2a.13.13,0,0,1,.13-.13.13.13,0,0,1,.13.14c-.08,3.71-.05,7.47.1,11.18a.15.15,0,0,1-.13.14Z"/><path class="cls-2" d="M21.29,28.67a.13.13,0,0,1-.13-.13c-.08-3.73-.08-7.51,0-11.24a.14.14,0,0,1,.14-.13.15.15,0,0,1,.13.14c-.07,3.72-.06,7.5,0,11.22a.13.13,0,0,1-.13.14Z"/><g class="cls-4"><path class="cls-2" d="M40.87,15.4A.8.8,0,0,0,39.46,15l-.06,0a31.41,31.41,0,0,0-5,2.78c-1.33.73-2.64,1.49-4,2.22a6.56,6.56,0,0,0-.62-.23h0l-2.21-1c-1.42-.67-2.84-1.34-4.22-2.09-1-.5-2-.85-2.92-1.42a.8.8,0,0,0-.81,1.37,30.93,30.93,0,0,0,2.87,1.46c1.85,1,2.84,1.4,4.61,2.28.61.27.77.3,1.74.78a5.1,5.1,0,0,0,1.1.48.81.81,0,0,0,.76,0,106.2,106.2,0,0,0,9.38-5.29A.79.79,0,0,0,40.87,15.4Z"/></g><path class="cls-2" d="M56.05,43.11a.4.4,0,0,1-.4-.4V37.53a.4.4,0,0,1,.4-.4.39.39,0,0,1,.39.4v5.18A.39.39,0,0,1,56.05,43.11Z"/><path class="cls-2" d="M43.51,40.3H28a.4.4,0,1,1,0-.8H43.51a.4.4,0,0,1,0,.8Z"/><path class="cls-2" d="M33.82,46.2H13a.4.4,0,1,1,0-.8H33.82a.4.4,0,0,1,0,.8Z"/><path class="cls-2" d="M22,40.3H12.89a.4.4,0,1,1,0-.8H22a.4.4,0,1,1,0,.8Z"/><path class="cls-2" d="M28.2,52.1H12.66a.4.4,0,1,1,0-.8H28.2a.4.4,0,0,1,0,.8Z"/><g class="cls-4"><path class="cls-2" d="M41.35,29c-.76-.65-1.28,0-1.81.54a.75.75,0,0,0-.74,0,16.45,16.45,0,0,1-6.47,2.49c-.33.1-2.56.23-2.89.39a.72.72,0,0,0-.34.24,13.1,13.1,0,0,1-5.7-1.39,12.24,12.24,0,0,0-1.12-.5,8.77,8.77,0,0,1-1.84-1.19c-.28-.18-.54-.48-.89-.5A.92.92,0,0,0,19,30.85l.07,0,0,0a12.58,12.58,0,0,0,2.2,1.57c.57.25,1.1.58,1.68.81h0l.06,0-.05,0,.08,0a11.21,11.21,0,0,0,2.86,1,20.47,20.47,0,0,0,8.43-.21A14.45,14.45,0,0,0,37,33.21a10.16,10.16,0,0,0,2.52-1.44,14.14,14.14,0,0,0,1.66-1.32l0,0-.06.05.11-.09h0l.09-.07-.17.13.2-.15A.89.89,0,0,0,41.35,29Z"/></g><g class="cls-4"><path class="cls-2" d="M23,33.31h0Z"/></g><g class="cls-4"><path class="cls-2" d="M41.18,30.41l0,0h0Z"/></g><g class="cls-4"><path class="cls-2" d="M23,33.31h0Z"/></g></g></g></svg>