<svg xmlns="http://www.w3.org/2000/svg" width="267" height="267.35" viewBox="0 0 267 267.35">
  <g id="Grupo_83312" data-name="Grupo 83312" transform="translate(-150.55 -105.354)">
    <g id="chair" transform="translate(150.55 165.26)">
      <g id="Grupo_83236" data-name="Grupo 83236" transform="translate(63.132 86.207)">
        <path id="Trazado_116307" data-name="Trazado 116307" d="M163.982,136.323s4.571,43.318,21.44,43.318h23.627V136.323Zm41.077,39.043H185.85c-13.717,0-17.431-35.216-17.431-35.216h36.64Z" transform="translate(-160.958 -129.905)" fill="#606f96"/>
        <path id="Trazado_116308" data-name="Trazado 116308" d="M163.543,136.323s4.571,43.318,21.44,43.318H208.61V136.323Zm41.077,39.043H185.411c-13.712,0-17.426-35.216-17.426-35.216H204.62Z" transform="translate(-162.681 -129.905)" fill="#8091bf"/>
        <path id="Trazado_116309" data-name="Trazado 116309" d="M164.73,144.233h3.822c-.389-2.468-.566-4.083-.566-4.083H204.62v4.083h3.989v-7.91H163.543S163.9,139.574,164.73,144.233Z" transform="translate(-162.681 -129.905)" fill="#606f96"/>
        <path id="Trazado_116310" data-name="Trazado 116310" d="M217.286,136.079c-1.35-1.463-53.918-.985-53.918-.985l1,7.728h53.844S218.635,137.542,217.286,136.079Z" transform="translate(-163.368 -135.02)" fill="#2b2923"/>
      </g>
      <path id="Trazado_116311" data-name="Trazado 116311" d="M215.391,174.138l-.079-.468-.059-2.773c-.621-14.953-.749-29.049-.768-34.935l-.079-3.591a15.193,15.193,0,0,0-15.19-14.855H165.739a15.193,15.193,0,0,0-15.185,15.525c-.059,25.2.374,120.424,25.784,120.424h52.75l-2.571-14.9C218.188,217.447,215.721,180.669,215.391,174.138Z" transform="translate(-150.55 -117.517)" fill="#2b2923"/>
      <path id="Trazado_116312" data-name="Trazado 116312" d="M218.056,174.138l-.089-.468-.113-2.773c-.877-14.953-1.246-29.049-1.374-34.935l-.138-3.591A15.516,15.516,0,0,0,200.9,117.517H167.418A14.877,14.877,0,0,0,152.5,133.042s.3,19.972,1.6,40.629c.453,7.255,6.285,79.8,26.272,79.8h52.755l-2.832-14.9C221.6,217.447,218.494,180.669,218.056,174.138Z" transform="translate(-142.926 -117.517)" fill="#2b2923"/>
      <g id="Grupo_83237" data-name="Grupo 83237" transform="translate(66.418 198.998)">
        <rect id="Rectángulo_34262" data-name="Rectángulo 34262" width="0.508" height="5.621" transform="translate(4.406 0.847)" fill="#423e36"/>
        <rect id="Rectángulo_34263" data-name="Rectángulo 34263" width="0.508" height="5.621" transform="translate(0 0.847)" fill="#423e36"/>
        <rect id="Rectángulo_34264" data-name="Rectángulo 34264" width="2.016" height="7.316" transform="translate(0.271)" fill="#2b2923"/>
        <rect id="Rectángulo_34265" data-name="Rectángulo 34265" width="2.016" height="7.316" transform="translate(2.644)" fill="#2b2923"/>
        <rect id="Rectángulo_34266" data-name="Rectángulo 34266" width="2.017" height="5.621" transform="translate(1.627 0.847)" fill="#2b2923"/>
        <rect id="Rectángulo_34267" data-name="Rectángulo 34267" width="1.508" height="3.146" transform="translate(0.526 0.413)" fill="#35322b" opacity="0.2" style="mix-blend-mode: screen;isolation: isolate"/>
        <rect id="Rectángulo_34268" data-name="Rectángulo 34268" width="1.678" height="3.146" transform="translate(2.813 0.413)" fill="#35322b" opacity="0.2" style="mix-blend-mode: screen;isolation: isolate"/>
      </g>
      <g id="Grupo_83238" data-name="Grupo 83238" transform="translate(40.902 199.11)">
        <circle id="Elipse_4796" data-name="Elipse 4796" cx="3.601" cy="3.601" r="3.601" fill="#2b2923"/>
        <path id="Trazado_116313" data-name="Trazado 116313" d="M163.068,160.217a1.938,1.938,0,1,1-1.936-1.936A1.94,1.94,0,0,1,163.068,160.217Z" transform="translate(-157.531 -156.616)" fill="#423e36"/>
      </g>
      <g id="Grupo_83239" data-name="Grupo 83239" transform="translate(89.645 199.111)">
        <path id="Trazado_116314" data-name="Trazado 116314" d="M175.952,161.543a3.6,3.6,0,1,1-3.6-3.6A3.6,3.6,0,0,1,175.952,161.543Z" transform="translate(-168.751 -157.943)" fill="#2b2923"/>
        <path id="Trazado_116315" data-name="Trazado 116315" d="M172.965,160.217a1.938,1.938,0,1,1-1.941-1.936A1.941,1.941,0,0,1,172.965,160.217Z" transform="translate(-167.424 -156.616)" fill="#423e36"/>
      </g>
      <rect id="Rectángulo_34269" data-name="Rectángulo 34269" width="64.694" height="4.977" transform="translate(71.363 130.066) rotate(90)" fill="#8091bf"/>
      <rect id="Rectángulo_34270" data-name="Rectángulo 34270" width="64.694" height="1.818" transform="translate(68.205 130.066) rotate(90)" fill="#606f96"/>
      <path id="Trazado_116316" data-name="Trazado 116316" d="M172.582,162.8l3.956-18.642h-13.36l3.956,18.642Z" transform="translate(-100.983 -12.934)" fill="#606f96"/>
      <path id="Trazado_116317" data-name="Trazado 116317" d="M158.855,162.215H214.8v-1.534l-22.473-3.75h-11l-22.473,3.75Z" transform="translate(-117.953 37.195)" fill="#8091bf"/>
      <path id="Trazado_116318" data-name="Trazado 116318" d="M163.151,169.727h13.621l-2.53-15.895h-8.562Z" transform="translate(-101.087 25.033)" fill="#8091bf"/>
      <path id="Trazado_116319" data-name="Trazado 116319" d="M171.636,156.074a4,4,0,0,0,1.32-.177c2.753-1,2.187-9.58,2.113-10.555a.421.421,0,0,0-.414-.384l-.035,0a.407.407,0,0,0-.379.443c.261,3.438.064,9.117-1.566,9.713-1.97.7-9.447-1.586-12.166-2.537a.417.417,0,0,0-.271.788C161.131,153.676,168.115,156.074,171.636,156.074Z" transform="translate(-113.612 -9.802)" fill="#2b2923"/>
      <path id="Trazado_116320" data-name="Trazado 116320" d="M162.8,146.04c1.813.478,4.492,2.409,4.123,3.817s-3.66,1.758-5.472,1.281-2.975-2.01-2.606-3.418S160.988,145.563,162.8,146.04Z" transform="translate(-118.257 -6.117)" fill="#2b2923"/>
      <path id="Trazado_116321" data-name="Trazado 116321" d="M182.547,153.833h8.562l-5.361,2.4-1.681,18.144H158.855v-1.534L180,169.3Z" transform="translate(-117.953 25.033)" fill="#606f96"/>
      <path id="Rectángulo_34271" data-name="Rectángulo 34271" d="M1.7,0H82.136a1.642,1.642,0,0,1,1.642,1.642V16.423a0,0,0,0,1,0,0H0a0,0,0,0,1,0,0V1.7A1.7,1.7,0,0,1,1.7,0Z" transform="translate(26.986 119.527)" fill="#2b2923"/>
      <path id="Trazado_116322" data-name="Trazado 116322" d="M164.14,141.785a8.246,8.246,0,0,0-8.048,6.817h83.213a7.983,7.983,0,0,0-7.831-6.817Z" transform="translate(-128.797 -22.257)" fill="#322f28"/>
      <path id="Trazado_116323" data-name="Trazado 116323" d="M224.03,217.127a340.037,340.037,0,0,1-5.974-42.988l-.089-.468-.113-2.773c-.877-14.953-1.246-29.049-1.374-34.935l-.138-3.591A15.516,15.516,0,0,0,200.9,117.517H167.418A14.877,14.877,0,0,0,152.5,133.042s.3,19.972,1.6,40.629A351.459,351.459,0,0,0,158.681,210c9.806,9.777,22.77,15.781,37.043,15.781A51.222,51.222,0,0,0,224.03,217.127Z" transform="translate(-142.926 -117.517)" fill="#322f28"/>
      <rect id="Rectángulo_34272" data-name="Rectángulo 34272" width="56.673" height="25.637" rx="1.806" transform="translate(13.115 4.976)" fill="#322f28" opacity="0.2" style="mix-blend-mode: screen;isolation: isolate"/>
    </g>
    <g id="Grupo_83259" data-name="Grupo 83259" transform="translate(169.963 105.354)">
      <path id="Trazado_116324" data-name="Trazado 116324" d="M176.491,120.335c7.344,5.147,21.4,45.032,21.4,45.032-6.743,1.9-13.431,9.457-10.24,18.1,0,0-10.072-.177-16.933-22.391-2.2-7.112.571-19.524,1.542-27.6A33.6,33.6,0,0,1,176.491,120.335Z" transform="translate(-94.06 -46.549)" fill="#d31c2e"/>
      <path id="Trazado_116325" data-name="Trazado 116325" d="M195.052,136.866c-1.463-9.136-11.742-10.205-17.652-5.093-7.56,6.531-6.457,17.761.35,20.814,8.078,3.635,12.934-2.354,12.934-2.354Z" transform="translate(-85.088 -13.62)" fill="#aa0b22"/>
      <path id="Trazado_116326" data-name="Trazado 116326" d="M183.111,121.3c-.463,5.31-4.044,9.333-7.994,8.984s-6.777-4.93-6.314-10.235,4.044-9.329,7.994-8.984S183.574,115.991,183.111,121.3Z" transform="translate(-98.512 -83.036)" fill="#322f28"/>
      <g id="Grupo_83241" data-name="Grupo 83241" transform="translate(96.125 116.089)">
        <path id="Trazado_116327" data-name="Trazado 116327" d="M175.534,150.443c14.653.315,30.311-16.618,41.767-15.736l-1.611-5.4c-6.92-1.729-27.252,2.975-33.216,3.684C173.195,134.741,172.692,150.384,175.534,150.443Z" transform="translate(-174.008 -128.924)" fill="#ed9558"/>
        <g id="Grupo_83240" data-name="Grupo 83240" transform="translate(38.248 0.034)">
          <path id="Trazado_116328" data-name="Trazado 116328" d="M182.578,128.931c5.57.074,13.919,2.753,15.047,4.093.749.887-.744,3.27-.744,3.27a12.8,12.8,0,0,1,2.507,3.1c.882,1.625,1.3,3.655.975,3.861-1.015.645-1.768-1.276-2.975-3.054a9.3,9.3,0,0,0-2.862-2.665c-2.743-1.527-3.866-2.024-4.4-1.675-.65.429.355,1.817.9,2.546s2.482,2.931,1.532,3.64c-.576.433-3.034-1.665-4.132-2.847s-5.777-3.28-6.157-6.034C182.189,132.591,181.022,128.906,182.578,128.931Z" transform="translate(-181.774 -128.931)" fill="#ed9558"/>
          <path id="Trazado_116329" data-name="Trazado 116329" d="M185.381,130.072a20.82,20.82,0,0,1,4.635,3.945c.951,1.034,2.734,4.049,2.305,4.384-1,.783-2.364-1.67-3.9-3.024-1.044-.921-3.714-3.019-3.714-3.019Z" transform="translate(-170.263 -124.452)" fill="#ed9558"/>
          <path id="Trazado_116330" data-name="Trazado 116330" d="M185.5,129.721a20.991,20.991,0,0,1,4.576,4.019c.931,1.049,3.049,4.147,2.546,4.364-1.123.5-2.65-1.65-4.167-3.029-1.029-.936-3.664-3.078-3.664-3.078Z" transform="translate(-169.922 -125.83)" fill="#ed9558"/>
        </g>
      </g>
      <g id="Grupo_83246" data-name="Grupo 83246" transform="translate(20.138 146.424)">
        <g id="Grupo_83243" data-name="Grupo 83243" transform="translate(97.657 110.291)">
          <g id="Grupo_83242" data-name="Grupo 83242">
            <path id="Trazado_116331" data-name="Trazado 116331" d="M182.614,159.074a16.883,16.883,0,0,0,7.354,5.393c5.063,2.024,8.235,1.571,7.94,2.921s-19.583.67-19.5-.9,1.1-3.817,1.059-7.413S182.614,159.074,182.614,159.074Z" transform="translate(-178.408 -157.476)" fill="#2b2923"/>
          </g>
        </g>
        <g id="Grupo_83245" data-name="Grupo 83245" transform="translate(64.168 108.151)">
          <g id="Grupo_83244" data-name="Grupo 83244">
            <path id="Trazado_116332" data-name="Trazado 116332" d="M175.221,158.961s.049,4.049,5.817,6.477,6.122,1.886,5.979,3.507-15.278.808-15.4-1.079.69-4.586.182-8.905S175.221,158.961,175.221,158.961Z" transform="translate(-171.609 -157.041)" fill="#2b2923"/>
          </g>
        </g>
        <path id="Trazado_116333" data-name="Trazado 116333" d="M216.435,135.2l-57.854.51,55.751,13.508Z" transform="translate(-158.58 -134.631)" fill="#2a2e3d"/>
        <path id="Trazado_116334" data-name="Trazado 116334" d="M193.281,137.181c-18.9-5.91-29.483.059-27.567,25.676l73.382-.941s1.581-10.57-7.506-15.475C226.906,143.914,206.658,139.309,193.281,137.181Z" transform="translate(-131.451 -135.083)" fill="#007ca0"/>
        <path id="Trazado_116335" data-name="Trazado 116335" d="M169.9,138.044a112.939,112.939,0,0,0,19.327,4.6c11.575,1.783,15.121,1.931,15.983,3.911s-1.507,29.32-1.118,37.89c.335,7.4,8.368,40.388,10.314,51.016h-3.714s-12.934-35.856-13.18-53.844a211.262,211.262,0,0,1,.99-24.927H176.953C172.205,155.529,169.9,138.044,169.9,138.044Z" transform="translate(-114.147 -123.46)" fill="#006b91"/>
        <path id="Trazado_116336" data-name="Trazado 116336" d="M211.7,160.343c-.133,1.8-.266,3.541-.389,5.24H194.255c-1.542-.379-2.807-2.517-3.837-5.176l.015-.079h-.049c-.069-.177-.148-.34-.212-.522l-24.459.315c-.936-12.505,1.128-20.3,5.659-24.341,20.282,0,32.359,3.842,36.339,7.216C213.523,147.916,211.7,160.343,211.7,160.343Z" transform="translate(-131.45 -132.347)" fill="#006b91"/>
        <path id="Trazado_116337" data-name="Trazado 116337" d="M158.885,135.387s2.236,18.583,8.777,26.459l65.581.039s1.827-12.427-3.985-17.347C222.343,138.682,180.084,135.88,158.885,135.387Z" transform="translate(-157.385 -133.89)" fill="#099ebf"/>
        <path id="Trazado_116338" data-name="Trazado 116338" d="M202.657,137.118s-4.95-.586-7.294-1.024c-6.1-1.148-16.052-1.034-35.925,13.958l4.472,7.482S189.94,137.975,202.657,137.118Z" transform="translate(-155.218 -132.803)" fill="#007ca0"/>
        <path id="Trazado_116339" data-name="Trazado 116339" d="M206.528,183.144a103,103,0,0,1,1.3-22.464H170.5c-8.215-6.171-9.082-10.476-11.067-15.983l15.786-7.669s2.325,7.954,5.684,9.742,35.236,1.817,36.718,3.256-3.891,23.8-4.546,33.985,7.851,55.434,7.851,55.434l0,0h-3.94S206.72,196.8,206.528,183.144Z" transform="translate(-155.218 -127.448)" fill="#007ca0"/>
        <path id="Trazado_116340" data-name="Trazado 116340" d="M198.071,145a750.861,750.861,0,0,0-3.088,85.169h-8.127s-11.254-40.186-10.9-53.844.217-36.93.217-36.93Z" transform="translate(-90.425 -118.165)" fill="#007ca0"/>
        <path id="Trazado_116341" data-name="Trazado 116341" d="M193.55,146.16c-4.546,60.788-4.177,60.852-4.866,84.006h-9.225S169.194,187.518,169,173.86s4.718-34.467,4.718-34.467Z" transform="translate(-117.692 -118.165)" fill="#099ebf"/>
        <path id="Trazado_116342" data-name="Trazado 116342" d="M169,173.511v-.02c-.163-12.2,3.7-31.744,4.551-34.009.616.039,1.207.084,1.758.123l5.034,1.783c.025,3.669-4.211,23.986-4.792,32.99-.655,10.176,7.851,55.434,7.851,55.434l0,0h-3.94s-.626-2.906-1.571-7.482C175.06,208.619,169.145,183.756,169,173.511Z" transform="translate(-117.692 -117.815)" fill="#007ca0"/>
        <path id="Trazado_116343" data-name="Trazado 116343" d="M177.944,139.393c2.1.143,5.689.438,6.945,1.527,1.35,1.98-3.246,29.66-2.862,38.23.335,7.4,8.368,40.388,10.319,51.016h-3.714c-2.96-11.136-11.909-34.295-13.027-51.972C175.053,169.467,176.619,146.254,177.944,139.393Z" transform="translate(-92.201 -118.165)" fill="#006b91"/>
        <path id="Trazado_116344" data-name="Trazado 116344" d="M190.474,136.47s-6.152-.241-7.733,3.054l-16.534-1.95S183.273,133.219,190.474,136.47Z" transform="translate(-128.644 -134.371)" fill="#006b91"/>
      </g>
      <path id="Trazado_116345" data-name="Trazado 116345" d="M167.142,107.479c8.324-1.591,12.121,3.29,14.012,9.984-4.256,6.487-3.792,16.431-3.792,16.431l-1.867-.31h0A4.571,4.571,0,0,0,171.806,130a4.445,4.445,0,0,0-5.137,3.7,4.582,4.582,0,0,0,3.758,5.2,4.376,4.376,0,0,0,4.068-1.542c-.01.424-.03.778-.044,1.217a38.817,38.817,0,0,0,.956,8.009C165.576,145.315,156.277,119.61,167.142,107.479Z" transform="translate(-123.99 -98.2)" fill="#ed9558"/>
      <path id="Trazado_116346" data-name="Trazado 116346" d="M167.142,107.479c8.324-1.591,12.121,3.29,14.012,9.984-4.256,6.487-3.792,16.431-3.792,16.431l-1.867-.31h0A4.571,4.571,0,0,0,171.806,130a4.445,4.445,0,0,0-5.137,3.7,4.582,4.582,0,0,0,3.758,5.2,4.376,4.376,0,0,0,4.068-1.542c-.01.424-.03.778-.044,1.217a38.817,38.817,0,0,0,.956,8.009C165.576,145.315,156.277,119.61,167.142,107.479Z" transform="translate(-123.99 -98.2)" fill="#822d0f"/>
      <path id="Trazado_116347" data-name="Trazado 116347" d="M200.682,138.343s.985.177,4.31-11.6c5.763-5.58,5.068-11.269,4.187-13.9-3.527-10.545-18-3.8-25.932-6.235-15.209-4.679-21.923,4.925-20.085,9.851,3.1,3.655,16,7.378,16,7.378A181.272,181.272,0,0,1,200.682,138.343Z" transform="translate(-121.624 -105.354)" fill="#822d0f"/>
      <path id="Trazado_116348" data-name="Trazado 116348" d="M163.919,220.216c-7.812-8.176-7.289-77.682,1.463-98.27,0,0,10.708-5.324,32.414-2.734,16.032,1.916,23.71,8.284,23.71,8.284,3.6,8.014-.729,28.542-3.916,50.007-3.2,21.538,5.511,24.764,5.511,24.764s-11.875-1.625-29.424,3.443A103.705,103.705,0,0,0,163.919,220.216Z" transform="translate(-139.084 -53.746)" fill="#d31c2e"/>
      <path id="Trazado_116349" data-name="Trazado 116349" d="M162.52,119.367c.724-.1,2.936-.4,3.729-.483a86.47,86.47,0,0,1,19.046.32,60.463,60.463,0,0,1,15.347,3.8C188.358,145.993,155.737,139.452,162.52,119.367Z" transform="translate(-126.583 -53.738)" fill="#bf0c16"/>
      <path id="Trazado_116350" data-name="Trazado 116350" d="M165.575,121.25a39.079,39.079,0,0,1,9.639-2.571c.369,7.344,2.97,40.358,20.12,47.337,12.8,5.211,21.474-1.5,24.932-5.063-.8,5.1-1.68,10.447-2.482,15.855-3.2,21.538,5.511,24.76,5.511,24.76s-11.875-1.62-29.424,3.448c-16.835,4.861-27.69,19.583-27.69,19.583C154.927,213.792,156.823,141.838,165.575,121.25Z" transform="translate(-139.277 -53.05)" fill="#bf0c16"/>
      <path id="Trazado_116351" data-name="Trazado 116351" d="M165.928,111.936s2.94,21.987-2.33,33.049c6.447,3.078,19.12,7.619,21.873,1.635,0,0-.734-3.64.852-13.229Z" transform="translate(-118.747 -79.518)" fill="#ed9558"/>
      <path id="Trazado_116352" data-name="Trazado 116352" d="M194.583,122.285a15.118,15.118,0,0,1-15.2,8.619c-11.259-.877-16.835-11.875-16.835-11.875S179.374,116.444,194.583,122.285Z" transform="translate(-122.884 -53.912)" fill="#ed9558"/>
      <path id="Trazado_116353" data-name="Trazado 116353" d="M170.365,112.513l3.2.842,16.894,17.766a66.3,66.3,0,0,0-1.02,10.205c-1.936,2.793-6.831,8.319-16.362,11.156a25.437,25.437,0,0,1-10.535-10.112s2.133-.32,5.531-.478C171.779,133.13,170.932,118.591,170.365,112.513Z" transform="translate(-122.884 -77.253)" fill="#d1652f"/>
      <path id="Trazado_116354" data-name="Trazado 116354" d="M164.737,135.14c.571,11.136,1.3,10.919,10.407,18.76,1.95,1.68,8.206,2.118,9.919,1.246s1.891-2.527,4.324-6.152a28.561,28.561,0,0,0,4.6-10.816c.4-3.226.2-5.442.428-7.733.433-4.413,1.527-8.309,1.675-13.372.148-4.994-5.6-8.595-13.121-8.959C165.747,107.283,165.358,114.483,164.737,135.14Z" transform="translate(-114.276 -94.768)" fill="#ffb476"/>
      <path id="Trazado_116355" data-name="Trazado 116355" d="M177.57,151.465c-12.668-9.309-9.205-38.9-3.581-42.811-10.919,1.3-9.6,11.624-8.9,26.444.517,8.082,1.6,10.392,10.934,17.248,1.995,1.468,8.033,1.419,9.614.453a2.721,2.721,0,0,0,.621-.532C183.968,152.864,179.284,152.726,177.57,151.465Z" transform="translate(-114.672 -92.401)" fill="#ed9558"/>
      <path id="Trazado_116356" data-name="Trazado 116356" d="M172.935,111.488a8.156,8.156,0,0,0-2.226,2.832c-2.911,7.122,3.586,8.2,3.078,9.939-.749,2.546-5.782,1.31-5.782,1.31.433,1.793,6.068,1.7,6.758-.882.813-3.049-5.772-3.261-3.477-10.043A20.478,20.478,0,0,1,172.935,111.488Z" transform="translate(-101.448 -81.277)" fill="#ed9558"/>
      <path id="Trazado_116357" data-name="Trazado 116357" d="M165.349,119.362l4.147-.2s3.359-5.442,13.993-4.418c9.737.936,10.373,7.659,10.373,7.659s3.073-16.613-16.318-15.83C173.968,106.714,164.827,114.23,165.349,119.362Z" transform="translate(-111.957 -100.681)" fill="#822d0f"/>
      <g id="Grupo_83247" data-name="Grupo 83247" transform="translate(42.626 31.74)">
        <path id="Trazado_116358" data-name="Trazado 116358" d="M172.095,117.057a4.433,4.433,0,0,1-5.137,3.7,4.579,4.579,0,0,1-3.758-5.2,4.445,4.445,0,0,1,5.137-3.7A4.577,4.577,0,0,1,172.095,117.057Z" transform="translate(-163.146 -111.798)" fill="#ed9558"/>
        <path id="Trazado_116359" data-name="Trazado 116359" d="M166.729,116.879a2.157,2.157,0,0,1-1.64-2.532,2.079,2.079,0,0,1,2.423-1.611,2.527,2.527,0,0,0-.946-.438,2.467,2.467,0,0,0-2.96,1.9,2.547,2.547,0,0,0,1.936,2.99,2.468,2.468,0,0,0,1.793-.3A2.084,2.084,0,0,1,166.729,116.879Z" transform="translate(-161.548 -110.074)" fill="#d1652f"/>
      </g>
      <path id="Trazado_116360" data-name="Trazado 116360" d="M165.892,110.677c.419-.847,2.67.749,5.94,1.443s5.807.054,5.7,1.433c-.123,1.616-3.108,2.2-6.373,1.487C166.932,114.125,165.415,111.652,165.892,110.677Z" transform="translate(-110.072 -85.41)" fill="#822d0f"/>
      <path id="Trazado_116361" data-name="Trazado 116361" d="M178.059,111.359c-.236-.887-1.685-.2-4.147.108s-4.561-.2-4.6,1.172c-.039,1.611,2.059,2.157,4.521,1.832C177.02,114.058,178.335,112.378,178.059,111.359Z" transform="translate(-96.302 -83.502)" fill="#822d0f"/>
      <path id="Trazado_116362" data-name="Trazado 116362" d="M175.126,110.358h-.01s-2.1-.616-4.787-1.571l-6.432,7.659,3.664,8.26.882,3.448,2.28.217S171.033,115.549,175.126,110.358Z" transform="translate(-117.577 -91.879)" fill="#822d0f"/>
      <g id="Grupo_83250" data-name="Grupo 83250" transform="translate(56.948 31.482)">
        <g id="Grupo_83248" data-name="Grupo 83248">
          <path id="Trazado_116363" data-name="Trazado 116363" d="M173.806,114.918c3.152-3.778-6.748-4.206-7.752-1.153l.448.438S173.447,115.43,173.806,114.918Z" transform="translate(-166.054 -111.746)" fill="#562824"/>
          <path id="Trazado_116364" data-name="Trazado 116364" d="M173.385,114.081c.256-.823-.591-1.734-2.477-2.009-1.645-.31-4.753.359-4.763,1.157C166.135,113.973,171.267,118.223,173.385,114.081Z" transform="translate(-165.697 -110.771)" fill="#f7eee2"/>
          <path id="Trazado_116365" data-name="Trazado 116365" d="M169.025,111.938a1.97,1.97,0,0,1,.512.054,4.052,4.052,0,0,1,.714.217,1.931,1.931,0,0,1,1.074,1.822,2.6,2.6,0,0,1-.96,1.832,2.946,2.946,0,0,1-1.63.276,5.4,5.4,0,0,1-2-.734,2.084,2.084,0,0,1-.2-.951A2.748,2.748,0,0,1,169.025,111.938Z" transform="translate(-164.163 -111.011)" fill="#562824"/>
        </g>
        <g id="Grupo_83249" data-name="Grupo 83249" transform="translate(15.426 1.247)">
          <path id="Trazado_116366" data-name="Trazado 116366" d="M176.027,114.915c2.778-3.33-5.763-4.034-6.841-.926l.458.463S175.687,115.4,176.027,114.915Z" transform="translate(-169.186 -111.999)" fill="#562824"/>
          <path id="Trazado_116367" data-name="Trazado 116367" d="M175.647,114.21c.236-.783-1.192-1.753-2.33-1.9-2.069-.374-4.039.409-4.049,1.162C169.259,114.176,173.643,118.116,175.647,114.21Z" transform="translate(-168.86 -111.162)" fill="#f7eee2"/>
          <path id="Trazado_116368" data-name="Trazado 116368" d="M171.407,112.206a6.072,6.072,0,0,1,.729.034,3.472,3.472,0,0,1,1.414.6,1.75,1.75,0,0,1,.394,1.162,2.377,2.377,0,0,1-.995,1.758,2.583,2.583,0,0,1-1.433.192,4.589,4.589,0,0,1-1.812-.788,1.816,1.816,0,0,1-.133-.773A2.471,2.471,0,0,1,171.407,112.206Z" transform="translate(-167.689 -111.187)" fill="#562824"/>
        </g>
      </g>
      <path id="Trazado_116369" data-name="Trazado 116369" d="M190.317,106.181s-19.8-.547-22.622,25.548l-4.467-1.714s.719-21.686,17.968-24.444Z" transform="translate(-120.199 -104.507)" fill="#322f28"/>
      <g id="Grupo_83251" data-name="Grupo 83251" transform="translate(35.388 25.486)">
        <path id="Trazado_116370" data-name="Trazado 116370" d="M162.114,123.612c1.389,6.1,6.2,10.215,10.742,9.181s7.1-6.822,5.713-12.924-6.2-10.215-10.742-9.181S160.73,117.51,162.114,123.612Z" transform="translate(-161.437 -110.529)" fill="#2b2923"/>
        <path id="Trazado_116371" data-name="Trazado 116371" d="M162,122.005c1.182,5.191,5.275,8.693,9.141,7.812s6.043-5.8,4.861-11-5.27-8.693-9.141-7.816S160.816,116.809,162,122.005Z" transform="translate(-161.677 -109.198)" fill="#322f28"/>
        <path id="Trazado_116372" data-name="Trazado 116372" d="M164.048,118.113c1.655,2.867,4.206,4.482,5.708,3.615s1.374-3.886-.276-6.748-4.206-4.482-5.708-3.615S162.4,115.251,164.048,118.113Z" transform="translate(-157.57 -108.162)" fill="#322f28" opacity="0.4" style="mix-blend-mode: screen;isolation: isolate"/>
        <path id="Trazado_116373" data-name="Trazado 116373" d="M163.773,114.964c-.246.916.039,1.783.631,1.946s1.271-.453,1.517-1.369-.035-1.783-.631-1.946S164.019,114.048,163.773,114.964Z" transform="translate(-153.797 -98.591)" fill="#322f28" opacity="0.4" style="mix-blend-mode: screen;isolation: isolate"/>
      </g>
      <path id="Trazado_116374" data-name="Trazado 116374" d="M188.912,107.6c-6.432-4.536-22.765.453-22.08,5.846.315,2.473,7.753-1.167,15.938,2.2,6.378,2.615,5.851,6.285,7.462,4.97S194.684,111.667,188.912,107.6Z" transform="translate(-106.135 -103.477)" fill="#933914"/>
      <path id="Trazado_116375" data-name="Trazado 116375" d="M172.217,107.814c-2.6-1.995-9.205,5.152-6.541,7.255S174.394,109.489,172.217,107.814Z" transform="translate(-113.028 -97.063)" fill="#933914"/>
      <path id="Trazado_116376" data-name="Trazado 116376" d="M187.914,118.978c-5.487-.581-10.2,2.522-14.269,7.615-6.309,7.91-25.449,45.047-17.042,55.976-.222-8.452,10-13.924,18.366-11.087C174.971,171.482,193.593,119.579,187.914,118.978Z" transform="translate(-154.441 -52.147)" fill="#bf0c16"/>
      <g id="Grupo_83252" data-name="Grupo 83252" transform="translate(60.709 48.571)">
        <path id="Trazado_116377" data-name="Trazado 116377" d="M179.8,115.531l-12.924-.256s2.108,5.772,6.462,5.856S179.8,115.531,179.8,115.531Z" transform="translate(-166.589 -114.983)" fill="#562824"/>
        <path id="Trazado_116378" data-name="Trazado 116378" d="M177.25,115.565l-10.181-.177s2.738,1.6,9.383,1.532Z" transform="translate(-165.831 -114.539)" fill="#efe5d8"/>
        <path id="Trazado_116379" data-name="Trazado 116379" d="M167.2,116.122a6.416,6.416,0,0,0,4.881,2.985,4.891,4.891,0,0,0,2.418-.6A6.263,6.263,0,0,0,167.2,116.122Z" transform="translate(-165.329 -112.958)" fill="#a52131"/>
        <path id="Trazado_116380" data-name="Trazado 116380" d="M167.189,115.276c.143.094.31.374.266.438s-.364.01-.507-.089a.217.217,0,1,1,.241-.35Z" transform="translate(-166.818 -115.216)" fill="#562824"/>
        <path id="Trazado_116381" data-name="Trazado 116381" d="M169.954,115.7c-.153.074-.478.084-.512.015s.172-.32.325-.4a.224.224,0,0,1,.325.079C170.146,115.5,170.112,115.623,169.954,115.7Z" transform="translate(-156.531 -114.976)" fill="#562824"/>
      </g>
      <g id="Grupo_83253" data-name="Grupo 83253" transform="translate(47.304 46.613)">
        <path id="Trazado_116382" data-name="Trazado 116382" d="M180.512,126.328c-2.5,0-8.191-.241-10.821-2.34-3.985-3.187-5.536-8.806-5.6-9.043l.468-.128c.02.054,1.581,5.7,5.438,8.787,3.2,2.556,11.6,2.211,11.7,2.211l.02.488C181.64,126.309,181.2,126.328,180.512,126.328Z" transform="translate(-164.096 -114.818)" fill="#2b2923"/>
        <path id="Trazado_116383" data-name="Trazado 116383" d="M172.362,118.194c.044.842-1,1.581-2.325,1.65s-2.438-.557-2.482-1.394.995-1.581,2.325-1.65S172.318,117.352,172.362,118.194Z" transform="translate(-150.523 -107.058)" fill="#2b2923"/>
      </g>
      <path id="Trazado_116384" data-name="Trazado 116384" d="M177.352,136.144c-2.044-9.772-13.564-9.388-18.864-3.645-6.777,7.344-4.3,19.194,2.709,21.745,7.644,2.778,13.087-3.221,13.087-3.221Z" transform="translate(-154.492 -14.74)" fill="#aa0b22"/>
      <g id="Grupo_83256" data-name="Grupo 83256" transform="translate(77.193 127.619)">
        <rect id="Rectángulo_34273" data-name="Rectángulo 34273" width="63.379" height="3.941" transform="translate(27.457 0.685)" fill="#2b2923"/>
        <rect id="Rectángulo_34274" data-name="Rectángulo 34274" width="27.458" height="3.941" transform="translate(0 0.685)" fill="#49453e"/>
        <g id="Grupo_83254" data-name="Grupo 83254" transform="translate(30.59)">
          <rect id="Rectángulo_34275" data-name="Rectángulo 34275" width="3.388" height="1.351" transform="translate(55.011)" fill="#2b2923"/>
          <rect id="Rectángulo_34276" data-name="Rectángulo 34276" width="3.388" height="1.351" transform="translate(49.483)" fill="#2b2923"/>
          <rect id="Rectángulo_34277" data-name="Rectángulo 34277" width="3.388" height="1.351" transform="translate(45.293)" fill="#2b2923"/>
          <rect id="Rectángulo_34278" data-name="Rectángulo 34278" width="3.388" height="1.351" transform="translate(41.102)" fill="#2b2923"/>
          <rect id="Rectángulo_34279" data-name="Rectángulo 34279" width="3.388" height="1.351" transform="translate(36.912)" fill="#2b2923"/>
          <rect id="Rectángulo_34280" data-name="Rectángulo 34280" width="3.388" height="1.351" transform="translate(31.027)" fill="#2b2923"/>
          <rect id="Rectángulo_34281" data-name="Rectángulo 34281" width="3.388" height="1.351" transform="translate(26.837)" fill="#2b2923"/>
          <rect id="Rectángulo_34282" data-name="Rectángulo 34282" width="3.388" height="1.351" transform="translate(22.647)" fill="#2b2923"/>
          <rect id="Rectángulo_34283" data-name="Rectángulo 34283" width="3.388" height="1.351" transform="translate(18.456)" fill="#2b2923"/>
          <rect id="Rectángulo_34284" data-name="Rectángulo 34284" width="3.388" height="1.351" transform="translate(12.571)" fill="#2b2923"/>
          <rect id="Rectángulo_34285" data-name="Rectángulo 34285" width="3.388" height="1.351" transform="translate(8.381)" fill="#2b2923"/>
          <rect id="Rectángulo_34286" data-name="Rectángulo 34286" width="3.388" height="1.351" transform="translate(4.19)" fill="#2b2923"/>
          <rect id="Rectángulo_34287" data-name="Rectángulo 34287" width="3.388" height="1.351" fill="#2b2923"/>
        </g>
        <g id="Grupo_83255" data-name="Grupo 83255" transform="translate(2.561)">
          <rect id="Rectángulo_34288" data-name="Rectángulo 34288" width="3.388" height="1.351" transform="translate(20.542)" fill="#49453e"/>
          <rect id="Rectángulo_34289" data-name="Rectángulo 34289" width="3.388" height="1.351" transform="translate(15.271)" fill="#49453e"/>
          <rect id="Rectángulo_34290" data-name="Rectángulo 34290" width="6.918" height="1.351" transform="translate(7.57)" fill="#49453e"/>
          <rect id="Rectángulo_34291" data-name="Rectángulo 34291" width="6.918" height="1.351" fill="#49453e"/>
        </g>
      </g>
      <g id="Grupo_83258" data-name="Grupo 83258" transform="translate(8.65 118.685)">
        <g id="Grupo_83257" data-name="Grupo 83257" transform="translate(41.333 6.942)">
          <path id="Trazado_116385" data-name="Trazado 116385" d="M164.64,137.478h20.179c1.31-.532-4.241-6.772-11.3-6.615A9.468,9.468,0,0,0,164.64,137.478Z" transform="translate(-164.64 -130.86)" fill="#2b2923"/>
          <path id="Trazado_116386" data-name="Trazado 116386" d="M172.138,130.863a9.037,9.037,0,0,0-7.147,3.448,6.121,6.121,0,0,1,4.62-1.675c2.753.049,4.083,2.645,5.359,4.842h8.471C184.751,136.946,179.2,130.706,172.138,130.863Z" transform="translate(-163.262 -130.86)" fill="#322f28"/>
          <path id="Trazado_116387" data-name="Trazado 116387" d="M167.567,131.319a.134.134,0,0,0-.207.054.183.183,0,0,0,.049.232,19.157,19.157,0,0,1,3.911,4.2h.369A19.513,19.513,0,0,0,167.567,131.319Z" transform="translate(-154.052 -129.183)" fill="#2b2923"/>
          <path id="Trazado_116388" data-name="Trazado 116388" d="M168.524,131.58c.488.374.754.911.586,1.2s-.7.212-1.2-.162-.754-.916-.586-1.2S168.032,131.2,168.524,131.58Z" transform="translate(-154.29 -129.375)" fill="#2b2923"/>
        </g>
        <path id="Trazado_116389" data-name="Trazado 116389" d="M158.78,147.044c8.9,1.246,22.553-1.817,39.974-5.137l-.946-4.6c-17.3-2.078-27-7-32.453-7.861C152.859,131.007,155.962,146.65,158.78,147.044Z" transform="translate(-156.248 -129.451)" fill="#ffb476"/>
        <path id="Trazado_116390" data-name="Trazado 116390" d="M165.5,133.307c2.669-.507,8.368-3.265,10.3-2.778a16.93,16.93,0,0,1,5.211,2.276c1.551,1.029,2.906,2.142,2.679,2.477-.5.749-1.975-.364-3.389-1.157a6.845,6.845,0,0,0-2.684-1.044c-.182.118,1.369.837,2.6,1.867,1.138.946,2.4,2.256,2.187,2.473-.655.665-1.96-.271-3.2-1.345-.98-.847-3.054-2.083-3.3-1.837-.143.143,1.458,1.468,2.118,2.034,1.354,1.157,1.891,2.147,1.665,2.29-.763.478-2.138-.837-2.876-1.468a8.312,8.312,0,0,0-2.94-1.586c-.32.094.433.433,1.468,1.443.759.739,1.458,1.773,1.133,1.921-.645.286-1.192-.2-2.118-1.133a4.862,4.862,0,0,0-2.034-1.015s-3.137,1.95-5.861,1.177C164.8,137.434,163.485,133.691,165.5,133.307Z" transform="translate(-123.94 -125.446)" fill="#ffb476"/>
        <path id="Trazado_116391" data-name="Trazado 116391" d="M165.355,129.451c-12.5,1.556-9.393,17.2-6.575,17.593,8.9,1.246,22.553-1.817,39.974-5.137,2.724.773,5.861-1.177,5.861-1.177a4.861,4.861,0,0,1,2.034,1.015c.793.793,1.305,1.157,1.837,1.1-.566-.419-1.133-1.138-1.64-1.576a11.567,11.567,0,0,0-2.482-1.419A8.346,8.346,0,0,1,197.6,141s-30.6,7.555-35.856.655S165.355,129.451,165.355,129.451Z" transform="translate(-156.248 -129.451)" fill="#ed9558"/>
      </g>
    </g>
    <g id="Grupo_83260" data-name="Grupo 83260" transform="translate(154.036 251.467)">
      <path id="Trazado_116392" data-name="Trazado 116392" d="M151.872,136.323s4.566,43.318,21.44,43.318h23.622V136.323Zm41.072,39.043h-19.2c-13.717,0-17.431-35.216-17.431-35.216h36.635Z" transform="translate(-148.848 -129.905)" fill="#606f96"/>
      <path id="Trazado_116393" data-name="Trazado 116393" d="M151.433,136.323s4.571,43.318,21.44,43.318H196.5V136.323Zm41.077,39.043H173.3c-13.712,0-17.426-35.216-17.426-35.216H192.51Z" transform="translate(-150.571 -129.905)" fill="#8091bf"/>
      <path id="Trazado_116394" data-name="Trazado 116394" d="M152.62,144.233h3.822c-.389-2.468-.566-4.083-.566-4.083H192.51v4.083h3.99v-7.91H151.433S151.788,139.574,152.62,144.233Z" transform="translate(-150.571 -129.905)" fill="#606f96"/>
      <path id="Trazado_116395" data-name="Trazado 116395" d="M205.175,136.079c-1.35-1.463-53.917-.985-53.917-.985l1,7.728H206.1S206.525,137.542,205.175,136.079Z" transform="translate(-151.258 -135.02)" fill="#2b2923"/>
    </g>
    <g id="Grupo_83311" data-name="Grupo 83311" transform="translate(166.969 150.399)">
      <g id="table" transform="translate(0 87.176)">
        <rect id="Rectángulo_34292" data-name="Rectángulo 34292" width="4.681" height="130.825" transform="translate(180.278 4.303)" fill="#a13d1f"/>
        <g id="Grupo_83291" data-name="Grupo 83291" transform="translate(148.802 38.952)">
          <rect id="Rectángulo_34293" data-name="Rectángulo 34293" width="52.355" height="82.995" fill="#322f28"/>
          <g id="Grupo_83262" data-name="Grupo 83262" transform="translate(16.297 71.714)">
            <path id="Trazado_116396" data-name="Trazado 116396" d="M190.609,156.209a.611.611,0,1,1,.611.616A.614.614,0,0,1,190.609,156.209Z" transform="translate(-174.825 -151.017)" fill="#26241f"/>
            <circle id="Elipse_4797" data-name="Elipse 4797" cx="0.612" cy="0.612" r="0.612" transform="translate(12.904 4.582)" fill="#26241f"/>
            <circle id="Elipse_4798" data-name="Elipse 4798" cx="0.612" cy="0.612" r="0.612" transform="translate(10.026 4.582)" fill="#26241f"/>
            <circle id="Elipse_4799" data-name="Elipse 4799" cx="0.612" cy="0.612" r="0.612" transform="translate(7.147 4.582)" fill="#26241f"/>
            <path id="Trazado_116397" data-name="Trazado 116397" d="M188.271,156.209a.611.611,0,1,1,.611.616A.611.611,0,0,1,188.271,156.209Z" transform="translate(-184.003 -151.017)" fill="#26241f"/>
            <circle id="Elipse_4800" data-name="Elipse 4800" cx="0.612" cy="0.612" r="0.612" transform="translate(1.388 4.582)" fill="#26241f"/>
            <g id="Grupo_83261" data-name="Grupo 83261" transform="translate(0 2.354)">
              <circle id="Elipse_4801" data-name="Elipse 4801" cx="0.612" cy="0.612" r="0.612" transform="translate(17.275)" fill="#26241f"/>
              <circle id="Elipse_4802" data-name="Elipse 4802" cx="0.612" cy="0.612" r="0.612" transform="translate(14.395)" fill="#26241f"/>
              <path id="Trazado_116398" data-name="Trazado 116398" d="M189.743,155.757a.611.611,0,1,1,.611.611A.611.611,0,0,1,189.743,155.757Z" transform="translate(-178.225 -155.146)" fill="#26241f"/>
              <circle id="Elipse_4803" data-name="Elipse 4803" cx="0.612" cy="0.612" r="0.612" transform="translate(8.638)" fill="#26241f"/>
              <circle id="Elipse_4804" data-name="Elipse 4804" cx="0.612" cy="0.612" r="0.612" transform="translate(5.758)" fill="#26241f"/>
              <path id="Trazado_116399" data-name="Trazado 116399" d="M187.989,155.757a.611.611,0,1,1,1.221,0,.611.611,0,0,1-1.221,0Z" transform="translate(-185.11 -155.146)" fill="#26241f"/>
              <circle id="Elipse_4805" data-name="Elipse 4805" cx="0.612" cy="0.612" r="0.612" fill="#26241f"/>
            </g>
            <circle id="Elipse_4806" data-name="Elipse 4806" cx="0.612" cy="0.612" r="0.612" transform="translate(24.466 4.582)" fill="#26241f"/>
            <circle id="Elipse_4807" data-name="Elipse 4807" cx="0.612" cy="0.612" r="0.612" transform="translate(21.586 4.582)" fill="#26241f"/>
            <path id="Trazado_116400" data-name="Trazado 116400" d="M191.2,156.209a.611.611,0,1,1,.611.616A.611.611,0,0,1,191.2,156.209Z" transform="translate(-172.494 -151.017)" fill="#26241f"/>
            <path id="Trazado_116401" data-name="Trazado 116401" d="M190.609,155.284a.611.611,0,1,1,.611.611A.615.615,0,0,1,190.609,155.284Z" transform="translate(-174.825 -154.668)" fill="#26241f"/>
            <path id="Trazado_116402" data-name="Trazado 116402" d="M190.024,155.284a.613.613,0,1,1,.616.611A.616.616,0,0,1,190.024,155.284Z" transform="translate(-177.122 -154.668)" fill="#26241f"/>
            <path id="Trazado_116403" data-name="Trazado 116403" d="M189.44,155.284a.611.611,0,1,1,.611.611A.612.612,0,0,1,189.44,155.284Z" transform="translate(-179.414 -154.668)" fill="#26241f"/>
            <path id="Trazado_116404" data-name="Trazado 116404" d="M188.855,155.284a.613.613,0,1,1,.616.611A.616.616,0,0,1,188.855,155.284Z" transform="translate(-181.71 -154.668)" fill="#26241f"/>
            <path id="Trazado_116405" data-name="Trazado 116405" d="M188.271,155.284a.611.611,0,1,1,.611.611A.612.612,0,0,1,188.271,155.284Z" transform="translate(-184.003 -154.668)" fill="#26241f"/>
            <path id="Trazado_116406" data-name="Trazado 116406" d="M187.686,155.284a.613.613,0,1,1,.611.611A.615.615,0,0,1,187.686,155.284Z" transform="translate(-186.299 -154.668)" fill="#26241f"/>
            <path id="Trazado_116407" data-name="Trazado 116407" d="M192.372,155.284a.611.611,0,1,1,.611.611A.612.612,0,0,1,192.372,155.284Z" transform="translate(-167.905 -154.668)" fill="#26241f"/>
            <path id="Trazado_116408" data-name="Trazado 116408" d="M191.787,155.284a.611.611,0,1,1,.611.611A.615.615,0,0,1,191.787,155.284Z" transform="translate(-170.201 -154.668)" fill="#26241f"/>
            <path id="Trazado_116409" data-name="Trazado 116409" d="M191.2,155.284a.611.611,0,1,1,.611.611A.612.612,0,0,1,191.2,155.284Z" transform="translate(-172.494 -154.668)" fill="#26241f"/>
            <path id="Trazado_116410" data-name="Trazado 116410" d="M192.674,155.757a.613.613,0,1,1,.616.611A.615.615,0,0,1,192.674,155.757Z" transform="translate(-166.72 -152.792)" fill="#26241f"/>
            <path id="Trazado_116411" data-name="Trazado 116411" d="M192.09,155.757a.611.611,0,1,1,.611.611A.611.611,0,0,1,192.09,155.757Z" transform="translate(-169.012 -152.792)" fill="#26241f"/>
            <circle id="Elipse_4808" data-name="Elipse 4808" cx="0.612" cy="0.612" r="0.612" transform="translate(20.198 2.354)" fill="#26241f"/>
          </g>
          <g id="Grupo_83263" data-name="Grupo 83263" transform="translate(22.066 24.562)">
            <circle id="Elipse_4809" data-name="Elipse 4809" cx="0.612" cy="0.612" r="0.612" transform="translate(4.276 3.607)" fill="#26241f"/>
            <circle id="Elipse_4810" data-name="Elipse 4810" cx="0.612" cy="0.612" r="0.612" transform="translate(7.155 3.607)" fill="#26241f"/>
            <path id="Trazado_116412" data-name="Trazado 116412" d="M191.834,146.438a.611.611,0,1,1-1.221,0,.611.611,0,1,1,1.221,0Z" transform="translate(-180.579 -142.219)" fill="#26241f"/>
            <path id="Trazado_116413" data-name="Trazado 116413" d="M190.383,146.9a.611.611,0,1,1-.611-.616A.611.611,0,0,1,190.383,146.9Z" transform="translate(-186.274 -140.441)" fill="#26241f"/>
            <path id="Trazado_116414" data-name="Trazado 116414" d="M190.968,146.9a.611.611,0,1,1-.611-.616A.614.614,0,0,1,190.968,146.9Z" transform="translate(-183.978 -140.441)" fill="#26241f"/>
            <circle id="Elipse_4811" data-name="Elipse 4811" cx="0.612" cy="0.612" r="0.612" transform="translate(8.646 5.84)" fill="#26241f"/>
            <path id="Trazado_116415" data-name="Trazado 116415" d="M190.968,146.041a.611.611,0,0,1-1.221,0,.611.611,0,1,1,1.221,0Z" transform="translate(-183.978 -143.778)" fill="#26241f"/>
            <circle id="Elipse_4812" data-name="Elipse 4812" cx="0.612" cy="0.612" r="0.612" transform="translate(8.646 1.65)" fill="#26241f"/>
            <path id="Trazado_116416" data-name="Trazado 116416" d="M190.383,146.041a.611.611,0,1,1-.611-.611A.611.611,0,0,1,190.383,146.041Z" transform="translate(-186.274 -143.778)" fill="#26241f"/>
            <path id="Trazado_116417" data-name="Trazado 116417" d="M190.968,148.646a.611.611,0,1,1-.611-.611A.611.611,0,0,1,190.968,148.646Z" transform="translate(-183.978 -133.552)" fill="#26241f"/>
            <circle id="Elipse_4813" data-name="Elipse 4813" cx="0.612" cy="0.612" r="0.612" transform="translate(8.646 14.481)" fill="#26241f"/>
            <path id="Trazado_116418" data-name="Trazado 116418" d="M192.138,146.9a.611.611,0,1,1-.611-.616A.614.614,0,0,1,192.138,146.9Z" transform="translate(-179.389 -140.441)" fill="#26241f"/>
            <path id="Trazado_116419" data-name="Trazado 116419" d="M190.086,147.344a.613.613,0,1,1-.616-.611A.615.615,0,0,1,190.086,147.344Z" transform="translate(-187.464 -138.663)" fill="#26241f"/>
            <path id="Trazado_116420" data-name="Trazado 116420" d="M190.666,147.344a.611.611,0,1,1-.611-.611A.611.611,0,0,1,190.666,147.344Z" transform="translate(-185.167 -138.663)" fill="#26241f"/>
            <path id="Trazado_116421" data-name="Trazado 116421" d="M191.254,147.344a.613.613,0,1,1-.611-.611A.614.614,0,0,1,191.254,147.344Z" transform="translate(-182.875 -138.663)" fill="#26241f"/>
            <circle id="Elipse_4814" data-name="Elipse 4814" cx="0.612" cy="0.612" r="0.612" transform="translate(1.388 3.607)" fill="#26241f"/>
            <circle id="Elipse_4815" data-name="Elipse 4815" cx="0.612" cy="0.612" r="0.612" transform="translate(0 5.84)" fill="#26241f"/>
            <path id="Trazado_116422" data-name="Trazado 116422" d="M191.834,147.344a.611.611,0,1,1-.611-.611A.611.611,0,0,1,191.834,147.344Z" transform="translate(-180.579 -138.663)" fill="#26241f"/>
            <path id="Trazado_116423" data-name="Trazado 116423" d="M192.423,147.344a.613.613,0,1,1-.611-.611A.614.614,0,0,1,192.423,147.344Z" transform="translate(-178.286 -138.663)" fill="#26241f"/>
            <path id="Trazado_116424" data-name="Trazado 116424" d="M190.383,147.8a.611.611,0,1,1-1.221,0,.611.611,0,0,1,1.221,0Z" transform="translate(-186.274 -136.885)" fill="#26241f"/>
            <path id="Trazado_116425" data-name="Trazado 116425" d="M190.968,147.8a.611.611,0,1,1-.611-.611A.611.611,0,0,1,190.968,147.8Z" transform="translate(-183.978 -136.885)" fill="#26241f"/>
            <circle id="Elipse_4816" data-name="Elipse 4816" cx="0.612" cy="0.612" r="0.612" transform="translate(8.646 10.301)" fill="#26241f"/>
            <path id="Trazado_116426" data-name="Trazado 116426" d="M192.138,147.8a.611.611,0,1,1-.611-.611A.611.611,0,0,1,192.138,147.8Z" transform="translate(-179.389 -136.885)" fill="#26241f"/>
            <path id="Trazado_116427" data-name="Trazado 116427" d="M190.666,148.254a.611.611,0,1,1-.611-.616A.611.611,0,0,1,190.666,148.254Z" transform="translate(-185.167 -135.11)" fill="#26241f"/>
            <circle id="Elipse_4817" data-name="Elipse 4817" cx="0.612" cy="0.612" r="0.612" transform="translate(0.041 10.301)" fill="#26241f"/>
            <path id="Trazado_116428" data-name="Trazado 116428" d="M190.088,148.254a.611.611,0,1,1-.611-.616A.611.611,0,0,1,190.088,148.254Z" transform="translate(-187.436 -135.11)" fill="#26241f"/>
            <path id="Trazado_116429" data-name="Trazado 116429" d="M191.254,148.254a.613.613,0,1,1-.611-.616A.614.614,0,0,1,191.254,148.254Z" transform="translate(-182.875 -135.11)" fill="#26241f"/>
            <circle id="Elipse_4818" data-name="Elipse 4818" cx="0.612" cy="0.612" r="0.612" transform="translate(7.155 16.173)" fill="#26241f"/>
            <circle id="Elipse_4819" data-name="Elipse 4819" cx="0.612" cy="0.612" r="0.612" transform="translate(7.155)" fill="#26241f"/>
            <circle id="Elipse_4820" data-name="Elipse 4820" cx="0.612" cy="0.612" r="0.612" transform="translate(2.879 14.481)" fill="#26241f"/>
            <path id="Trazado_116430" data-name="Trazado 116430" d="M190.917,146.041a.611.611,0,1,0,.611-.611A.611.611,0,0,0,190.917,146.041Z" transform="translate(-179.385 -143.778)" fill="#26241f"/>
            <circle id="Elipse_4821" data-name="Elipse 4821" cx="0.612" cy="0.612" r="0.612" transform="translate(13.03 3.607)" fill="#26241f"/>
            <circle id="Elipse_4822" data-name="Elipse 4822" cx="0.612" cy="0.612" r="0.612" transform="translate(14.418 5.84)" fill="#26241f"/>
            <circle id="Elipse_4823" data-name="Elipse 4823" cx="0.612" cy="0.612" r="0.612" transform="translate(14.377 10.301)" fill="#26241f"/>
            <path id="Trazado_116431" data-name="Trazado 116431" d="M191.213,148.254a.611.611,0,1,0,.611-.616A.611.611,0,0,0,191.213,148.254Z" transform="translate(-178.223 -135.11)" fill="#26241f"/>
            <path id="Trazado_116432" data-name="Trazado 116432" d="M190.919,148.646a.611.611,0,1,0,.611-.611A.608.608,0,0,0,190.919,148.646Z" transform="translate(-179.377 -133.552)" fill="#26241f"/>
            <path id="Trazado_116433" data-name="Trazado 116433" d="M190.663,148.254a.611.611,0,1,1-.611-.616A.611.611,0,0,1,190.663,148.254Z" transform="translate(-185.175 -135.11)" fill="#26241f"/>
            <path id="Trazado_116434" data-name="Trazado 116434" d="M191.834,148.254a.611.611,0,1,1-.611-.616A.611.611,0,0,1,191.834,148.254Z" transform="translate(-180.579 -135.11)" fill="#26241f"/>
          </g>
          <g id="Grupo_83290" data-name="Grupo 83290" transform="translate(52.073)">
            <rect id="Rectángulo_34294" data-name="Rectángulo 34294" width="36.821" height="82.995" fill="#2b2923"/>
            <rect id="Rectángulo_34295" data-name="Rectángulo 34295" width="31.269" height="77.734" transform="translate(2.776 2.338)" fill="#827d79"/>
            <g id="Grupo_83264" data-name="Grupo 83264" transform="translate(16.84 25.352)" opacity="0.2" style="mix-blend-mode: multiply;isolation: isolate">
              <path id="Trazado_116435" data-name="Trazado 116435" d="M213.868,153.145a7.89,7.89,0,1,1-7.89-7.89A7.889,7.889,0,0,1,213.868,153.145Z" transform="translate(-198.087 -145.255)" fill="#706b64"/>
            </g>
            <g id="Grupo_83265" data-name="Grupo 83265" transform="translate(5.021 10.891)">
              <rect id="Rectángulo_34296" data-name="Rectángulo 34296" width="6.524" height="4.091" fill="#322f28"/>
              <rect id="Rectángulo_34297" data-name="Rectángulo 34297" width="5.184" height="2.992" transform="translate(0.67 0.55)" fill="#23211d"/>
              <rect id="Rectángulo_34298" data-name="Rectángulo 34298" width="4.876" height="2.701" transform="translate(0.824 0.695)" fill="#2b2923"/>
              <rect id="Rectángulo_34299" data-name="Rectángulo 34299" width="0.659" height="2.701" transform="translate(0.824 0.695)" fill="#2b2923"/>
              <rect id="Rectángulo_34300" data-name="Rectángulo 34300" width="2.244" height="2.701" transform="translate(1.153 0.695)" fill="#23211d"/>
            </g>
            <g id="Grupo_83267" data-name="Grupo 83267" transform="translate(5.021 4.775)">
              <rect id="Rectángulo_34301" data-name="Rectángulo 34301" width="7.487" height="5.039" rx="0.453" fill="#322f28"/>
              <rect id="Rectángulo_34302" data-name="Rectángulo 34302" width="5.95" height="3.685" rx="0.369" transform="translate(0.769 0.677)" fill="#23211d"/>
              <g id="Grupo_83266" data-name="Grupo 83266" transform="translate(2.446 1.418)">
                <path id="Trazado_116436" data-name="Trazado 116436" d="M196.859,141.969a.341.341,0,0,1-.34.34.34.34,0,0,1,0-.68A.341.341,0,0,1,196.859,141.969Z" transform="translate(-196.184 -140.329)" fill="#49453e"/>
                <path id="Trazado_116437" data-name="Trazado 116437" d="M197.249,141.969a.341.341,0,0,1-.34.34.34.34,0,0,1,0-.68A.341.341,0,0,1,197.249,141.969Z" transform="translate(-194.653 -140.329)" fill="#49453e"/>
                <path id="Trazado_116438" data-name="Trazado 116438" d="M197.07,141.7a.34.34,0,1,1-.34-.34A.341.341,0,0,1,197.07,141.7Z" transform="translate(-195.375 -141.365)" fill="#49453e"/>
              </g>
            </g>
            <g id="Grupo_83271" data-name="Grupo 83271" transform="translate(6.312 4.917)">
              <g id="Grupo_83268" data-name="Grupo 83268" transform="translate(7.191)">
                <circle id="Elipse_4824" data-name="Elipse 4824" cx="0.612" cy="0.612" r="0.612" transform="translate(0 0.001)" fill="#2b2923"/>
                <path id="Trazado_116439" data-name="Trazado 116439" d="M199.216,141.717a.611.611,0,1,1-.611-.611A.612.612,0,0,1,199.216,141.717Z" transform="translate(-195.115 -141.106)" fill="#2b2923"/>
                <circle id="Elipse_4825" data-name="Elipse 4825" cx="0.612" cy="0.612" r="0.612" transform="translate(5.758 0.001)" fill="#2b2923"/>
                <circle id="Elipse_4826" data-name="Elipse 4826" cx="0.612" cy="0.612" r="0.612" transform="translate(8.637 0.001)" fill="#2b2923"/>
                <path id="Trazado_116440" data-name="Trazado 116440" d="M200.97,141.717a.611.611,0,1,1-.611-.611A.615.615,0,0,1,200.97,141.717Z" transform="translate(-188.23 -141.106)" fill="#2b2923"/>
                <circle id="Elipse_4827" data-name="Elipse 4827" cx="0.612" cy="0.612" r="0.612" transform="translate(14.395 0.001)" fill="#2b2923"/>
                <circle id="Elipse_4828" data-name="Elipse 4828" cx="0.612" cy="0.612" r="0.612" transform="translate(17.274 0.001)" fill="#2b2923"/>
              </g>
              <circle id="Elipse_4829" data-name="Elipse 4829" cx="0.612" cy="0.612" r="0.612" transform="translate(8.682 2.235)" fill="#2b2923"/>
              <circle id="Elipse_4830" data-name="Elipse 4830" cx="0.612" cy="0.612" r="0.612" transform="translate(11.561 2.235)" fill="#2b2923"/>
              <circle id="Elipse_4831" data-name="Elipse 4831" cx="0.612" cy="0.612" r="0.612" transform="translate(14.44 2.235)" fill="#2b2923"/>
              <path id="Trazado_116441" data-name="Trazado 116441" d="M200.687,142.171a.611.611,0,1,1-.611-.611A.607.607,0,0,1,200.687,142.171Z" transform="translate(-182.146 -139.324)" fill="#2b2923"/>
              <circle id="Elipse_4832" data-name="Elipse 4832" cx="0.612" cy="0.612" r="0.612" transform="translate(20.198 2.235)" fill="#2b2923"/>
              <circle id="Elipse_4833" data-name="Elipse 4833" cx="0.612" cy="0.612" r="0.612" transform="translate(23.077 2.235)" fill="#2b2923"/>
              <g id="Grupo_83269" data-name="Grupo 83269" transform="translate(7.191 4.462)">
                <circle id="Elipse_4834" data-name="Elipse 4834" cx="0.612" cy="0.612" r="0.612" fill="#2b2923"/>
                <path id="Trazado_116442" data-name="Trazado 116442" d="M199.216,142.623a.611.611,0,0,1-1.221,0,.611.611,0,1,1,1.221,0Z" transform="translate(-195.115 -142.012)" fill="#2b2923"/>
                <circle id="Elipse_4835" data-name="Elipse 4835" cx="0.612" cy="0.612" r="0.612" transform="translate(5.758)" fill="#2b2923"/>
                <circle id="Elipse_4836" data-name="Elipse 4836" cx="0.612" cy="0.612" r="0.612" transform="translate(8.637)" fill="#2b2923"/>
                <path id="Trazado_116443" data-name="Trazado 116443" d="M200.97,142.623a.611.611,0,1,1-.611-.611A.611.611,0,0,1,200.97,142.623Z" transform="translate(-188.23 -142.012)" fill="#2b2923"/>
                <circle id="Elipse_4837" data-name="Elipse 4837" cx="0.612" cy="0.612" r="0.612" transform="translate(14.395)" fill="#2b2923"/>
                <circle id="Elipse_4838" data-name="Elipse 4838" cx="0.612" cy="0.612" r="0.612" transform="translate(17.274)" fill="#2b2923"/>
              </g>
              <circle id="Elipse_4839" data-name="Elipse 4839" cx="0.612" cy="0.612" r="0.612" transform="translate(8.682 6.695)" fill="#2b2923"/>
              <circle id="Elipse_4840" data-name="Elipse 4840" cx="0.612" cy="0.612" r="0.612" transform="translate(11.561 6.695)" fill="#2b2923"/>
              <circle id="Elipse_4841" data-name="Elipse 4841" cx="0.612" cy="0.612" r="0.612" transform="translate(14.44 6.695)" fill="#2b2923"/>
              <path id="Trazado_116444" data-name="Trazado 116444" d="M200.687,143.081a.611.611,0,1,1-.611-.616A.611.611,0,0,1,200.687,143.081Z" transform="translate(-182.146 -135.771)" fill="#2b2923"/>
              <circle id="Elipse_4842" data-name="Elipse 4842" cx="0.612" cy="0.612" r="0.612" transform="translate(20.198 6.695)" fill="#2b2923"/>
              <circle id="Elipse_4843" data-name="Elipse 4843" cx="0.612" cy="0.612" r="0.612" transform="translate(23.077 6.695)" fill="#2b2923"/>
              <g id="Grupo_83270" data-name="Grupo 83270" transform="translate(7.191 8.923)">
                <circle id="Elipse_4844" data-name="Elipse 4844" cx="0.612" cy="0.612" r="0.612" fill="#2b2923"/>
                <path id="Trazado_116445" data-name="Trazado 116445" d="M199.216,143.529a.611.611,0,1,1-.611-.611A.608.608,0,0,1,199.216,143.529Z" transform="translate(-195.115 -142.917)" fill="#2b2923"/>
                <circle id="Elipse_4845" data-name="Elipse 4845" cx="0.612" cy="0.612" r="0.612" transform="translate(5.758)" fill="#2b2923"/>
                <circle id="Elipse_4846" data-name="Elipse 4846" cx="0.612" cy="0.612" r="0.612" transform="translate(8.637)" fill="#2b2923"/>
                <path id="Trazado_116446" data-name="Trazado 116446" d="M200.97,143.529a.611.611,0,1,1-.611-.611A.611.611,0,0,1,200.97,143.529Z" transform="translate(-188.23 -142.917)" fill="#2b2923"/>
                <circle id="Elipse_4847" data-name="Elipse 4847" cx="0.612" cy="0.612" r="0.612" transform="translate(14.395)" fill="#2b2923"/>
                <circle id="Elipse_4848" data-name="Elipse 4848" cx="0.612" cy="0.612" r="0.612" transform="translate(17.274)" fill="#2b2923"/>
              </g>
              <circle id="Elipse_4849" data-name="Elipse 4849" cx="0.612" cy="0.612" r="0.612" transform="translate(8.682 11.275)" fill="#2b2923"/>
              <circle id="Elipse_4850" data-name="Elipse 4850" cx="0.612" cy="0.612" r="0.612" transform="translate(11.561 11.275)" fill="#2b2923"/>
              <circle id="Elipse_4851" data-name="Elipse 4851" cx="0.612" cy="0.612" r="0.612" transform="translate(14.44 11.275)" fill="#2b2923"/>
              <path id="Trazado_116447" data-name="Trazado 116447" d="M200.687,144.006a.611.611,0,1,1-.611-.611A.612.612,0,0,1,200.687,144.006Z" transform="translate(-182.146 -132.121)" fill="#2b2923"/>
              <circle id="Elipse_4852" data-name="Elipse 4852" cx="0.612" cy="0.612" r="0.612" transform="translate(20.198 11.275)" fill="#2b2923"/>
              <circle id="Elipse_4853" data-name="Elipse 4853" cx="0.612" cy="0.612" r="0.612" transform="translate(23.077 11.275)" fill="#2b2923"/>
              <circle id="Elipse_4854" data-name="Elipse 4854" cx="0.612" cy="0.612" r="0.612" transform="translate(0 11.275)" fill="#2b2923"/>
              <path id="Trazado_116448" data-name="Trazado 116448" d="M197.755,144.006a.611.611,0,1,1-.611-.611A.612.612,0,0,1,197.755,144.006Z" transform="translate(-193.655 -132.121)" fill="#2b2923"/>
              <path id="Trazado_116449" data-name="Trazado 116449" d="M198.34,144.006a.611.611,0,1,1-.611-.611A.615.615,0,0,1,198.34,144.006Z" transform="translate(-191.359 -132.121)" fill="#2b2923"/>
            </g>
            <g id="Grupo_83273" data-name="Grupo 83273" transform="translate(26.001 50.483)">
              <circle id="Elipse_4855" data-name="Elipse 4855" cx="0.612" cy="0.612" r="0.612" transform="translate(4.581 10.173)" fill="#2b2923"/>
              <path id="Trazado_116450" data-name="Trazado 116450" d="M201.488,154.233a.613.613,0,1,1,.616-.616A.615.615,0,0,1,201.488,154.233Z" transform="translate(-196.297 -139.956)" fill="#2b2923"/>
              <circle id="Elipse_4856" data-name="Elipse 4856" cx="0.612" cy="0.612" r="0.612" transform="translate(4.581 15.931)" fill="#2b2923"/>
              <circle id="Elipse_4857" data-name="Elipse 4857" cx="0.612" cy="0.612" r="0.612" transform="translate(4.581 18.81)" fill="#2b2923"/>
              <circle id="Elipse_4858" data-name="Elipse 4858" cx="0.612" cy="0.612" r="0.612" transform="translate(4.581 21.689)" fill="#2b2923"/>
              <circle id="Elipse_4859" data-name="Elipse 4859" cx="0.612" cy="0.612" r="0.612" transform="translate(4.581 24.568)" fill="#2b2923"/>
              <g id="Grupo_83272" data-name="Grupo 83272" transform="translate(2.354 8.682)">
                <circle id="Elipse_4860" data-name="Elipse 4860" cx="0.612" cy="0.612" r="0.612" fill="#2b2923"/>
                <path id="Trazado_116451" data-name="Trazado 116451" d="M201.036,153.927a.611.611,0,1,1,.611-.611A.611.611,0,0,1,201.036,153.927Z" transform="translate(-200.425 -149.824)" fill="#2b2923"/>
                <circle id="Elipse_4861" data-name="Elipse 4861" cx="0.612" cy="0.612" r="0.612" transform="translate(0 5.758)" fill="#2b2923"/>
                <circle id="Elipse_4862" data-name="Elipse 4862" cx="0.612" cy="0.612" r="0.612" transform="translate(0 8.637)" fill="#2b2923"/>
                <circle id="Elipse_4863" data-name="Elipse 4863" cx="0.612" cy="0.612" r="0.612" transform="translate(0 11.516)" fill="#2b2923"/>
                <circle id="Elipse_4864" data-name="Elipse 4864" cx="0.612" cy="0.612" r="0.612" transform="translate(0 14.395)" fill="#2b2923"/>
                <path id="Trazado_116452" data-name="Trazado 116452" d="M201.036,156.853a.613.613,0,1,1,.611-.611A.611.611,0,0,1,201.036,156.853Z" transform="translate(-200.425 -138.354)" fill="#2b2923"/>
              </g>
              <circle id="Elipse_4865" data-name="Elipse 4865" cx="0.612" cy="0.612" r="0.612" transform="translate(4.581 1.491)" fill="#2b2923"/>
              <circle id="Elipse_4866" data-name="Elipse 4866" cx="0.612" cy="0.612" r="0.612" transform="translate(4.581 4.37)" fill="#2b2923"/>
              <circle id="Elipse_4867" data-name="Elipse 4867" cx="0.612" cy="0.612" r="0.612" transform="translate(4.581 7.249)" fill="#2b2923"/>
              <circle id="Elipse_4868" data-name="Elipse 4868" cx="0.612" cy="0.612" r="0.612" transform="translate(0.002 10.173)" fill="#2b2923"/>
              <path id="Trazado_116453" data-name="Trazado 116453" d="M200.563,154.233a.613.613,0,1,1,.611-.616A.616.616,0,0,1,200.563,154.233Z" transform="translate(-199.947 -139.956)" fill="#2b2923"/>
              <circle id="Elipse_4869" data-name="Elipse 4869" cx="0.612" cy="0.612" r="0.612" transform="translate(0.002 15.931)" fill="#2b2923"/>
              <circle id="Elipse_4870" data-name="Elipse 4870" cx="0.612" cy="0.612" r="0.612" transform="translate(0.002 18.81)" fill="#2b2923"/>
              <circle id="Elipse_4871" data-name="Elipse 4871" cx="0.612" cy="0.612" r="0.612" transform="translate(0.002 21.689)" fill="#2b2923"/>
              <circle id="Elipse_4872" data-name="Elipse 4872" cx="0.612" cy="0.612" r="0.612" transform="translate(0.002 24.568)" fill="#2b2923"/>
              <circle id="Elipse_4873" data-name="Elipse 4873" cx="0.612" cy="0.612" r="0.612" transform="translate(0.002 1.491)" fill="#2b2923"/>
              <circle id="Elipse_4874" data-name="Elipse 4874" cx="0.612" cy="0.612" r="0.612" transform="translate(0.002 4.37)" fill="#2b2923"/>
              <circle id="Elipse_4875" data-name="Elipse 4875" cx="0.612" cy="0.612" r="0.612" transform="translate(0.002 7.249)" fill="#2b2923"/>
              <circle id="Elipse_4876" data-name="Elipse 4876" cx="0.612" cy="0.612" r="0.612" transform="translate(2.354)" fill="#2b2923"/>
              <circle id="Elipse_4877" data-name="Elipse 4877" cx="0.612" cy="0.612" r="0.612" transform="translate(2.354 2.879)" fill="#2b2923"/>
              <circle id="Elipse_4878" data-name="Elipse 4878" cx="0.612" cy="0.612" r="0.612" transform="translate(2.354 5.758)" fill="#2b2923"/>
            </g>
            <g id="Grupo_83288" data-name="Grupo 83288" transform="translate(4.821 19.215)">
              <rect id="Rectángulo_34303" data-name="Rectángulo 34303" width="10.301" height="28.054" fill="#706b64" opacity="0.4" style="mix-blend-mode: multiply;isolation: isolate"/>
              <g id="Grupo_83274" data-name="Grupo 83274" transform="translate(1.002 0.922)">
                <circle id="Elipse_4879" data-name="Elipse 4879" cx="1.041" cy="1.041" r="1.041" fill="#c1233a"/>
                <circle id="Elipse_4880" data-name="Elipse 4880" cx="0.667" cy="0.667" r="0.667" transform="translate(0.374 0.374)" fill="#322f28"/>
              </g>
              <g id="Grupo_83275" data-name="Grupo 83275" transform="translate(4.109 0.922)">
                <path id="Trazado_116454" data-name="Trazado 116454" d="M198.564,145.24a1.042,1.042,0,1,1-1.044-1.044A1.044,1.044,0,0,1,198.564,145.24Z" transform="translate(-196.481 -144.196)" fill="#099ebf"/>
                <path id="Trazado_116455" data-name="Trazado 116455" d="M197.892,144.942a.667.667,0,1,1-.67-.67A.67.67,0,0,1,197.892,144.942Z" transform="translate(-196.183 -143.898)" fill="#322f28"/>
              </g>
              <g id="Grupo_83279" data-name="Grupo 83279" transform="translate(1.001 21.514)">
                <g id="Grupo_83276" data-name="Grupo 83276">
                  <path id="Trazado_116456" data-name="Trazado 116456" d="M197.933,149.416a1.042,1.042,0,1,1-1.039-1.039A1.044,1.044,0,0,1,197.933,149.416Z" transform="translate(-195.85 -148.377)" fill="#827d79"/>
                  <path id="Trazado_116457" data-name="Trazado 116457" d="M197.261,149.118a.667.667,0,1,1-.665-.665A.67.67,0,0,1,197.261,149.118Z" transform="translate(-195.552 -148.079)" fill="#322f28"/>
                </g>
                <g id="Grupo_83277" data-name="Grupo 83277" transform="translate(3.108)">
                  <path id="Trazado_116458" data-name="Trazado 116458" d="M198.564,149.416a1.042,1.042,0,1,1-1.044-1.039A1.045,1.045,0,0,1,198.564,149.416Z" transform="translate(-196.481 -148.377)" fill="#827d79"/>
                  <path id="Trazado_116459" data-name="Trazado 116459" d="M197.892,149.118a.667.667,0,1,1-.67-.665A.671.671,0,0,1,197.892,149.118Z" transform="translate(-196.183 -148.079)" fill="#322f28"/>
                </g>
                <g id="Grupo_83278" data-name="Grupo 83278" transform="translate(6.216)">
                  <path id="Trazado_116460" data-name="Trazado 116460" d="M199.2,149.416a1.042,1.042,0,1,1-1.044-1.039A1.045,1.045,0,0,1,199.2,149.416Z" transform="translate(-197.112 -148.377)" fill="#827d79"/>
                  <path id="Trazado_116461" data-name="Trazado 116461" d="M198.523,149.118a.667.667,0,1,1-.67-.665A.671.671,0,0,1,198.523,149.118Z" transform="translate(-196.814 -148.079)" fill="#322f28"/>
                </g>
              </g>
              <g id="Grupo_83280" data-name="Grupo 83280" transform="translate(1.001 24.829)">
                <path id="Trazado_116462" data-name="Trazado 116462" d="M197.933,150.094a1.042,1.042,0,1,1-1.039-1.044A1.043,1.043,0,0,1,197.933,150.094Z" transform="translate(-195.85 -149.05)" fill="#827d79"/>
                <path id="Trazado_116463" data-name="Trazado 116463" d="M197.261,149.8a.667.667,0,1,1-.665-.67A.668.668,0,0,1,197.261,149.8Z" transform="translate(-195.552 -148.752)" fill="#322f28"/>
              </g>
              <g id="Grupo_83281" data-name="Grupo 83281" transform="translate(4.109 24.829)">
                <path id="Trazado_116464" data-name="Trazado 116464" d="M198.564,150.094a1.042,1.042,0,1,1-1.044-1.044A1.044,1.044,0,0,1,198.564,150.094Z" transform="translate(-196.481 -149.05)" fill="#827d79"/>
                <path id="Trazado_116465" data-name="Trazado 116465" d="M197.892,149.8a.667.667,0,1,1-.67-.67A.67.67,0,0,1,197.892,149.8Z" transform="translate(-196.183 -148.752)" fill="#322f28"/>
              </g>
              <g id="Grupo_83282" data-name="Grupo 83282" transform="translate(7.217 24.829)">
                <path id="Trazado_116466" data-name="Trazado 116466" d="M199.2,150.094a1.042,1.042,0,1,1-1.044-1.044A1.044,1.044,0,0,1,199.2,150.094Z" transform="translate(-197.112 -149.05)" fill="#827d79"/>
                <path id="Trazado_116467" data-name="Trazado 116467" d="M198.523,149.8a.667.667,0,1,1-.67-.67A.67.67,0,0,1,198.523,149.8Z" transform="translate(-196.814 -148.752)" fill="#322f28"/>
              </g>
              <g id="Grupo_83283" data-name="Grupo 83283" transform="translate(1.002 15.89)">
                <rect id="Rectángulo_34304" data-name="Rectángulo 34304" width="1.315" height="3.945" fill="#2b2923"/>
                <rect id="Rectángulo_34305" data-name="Rectángulo 34305" width="1.315" height="3.945" transform="translate(2.469)" fill="#2b2923"/>
                <rect id="Rectángulo_34306" data-name="Rectángulo 34306" width="2.394" height="3.945" transform="translate(4.937)" fill="#2b2923"/>
                <rect id="Rectángulo_34307" data-name="Rectángulo 34307" width="1.275" height="2.844" transform="translate(5.722 0.551)" fill="#49453e"/>
                <rect id="Rectángulo_34308" data-name="Rectángulo 34308" width="0.412" height="2.844" transform="translate(3.081 0.551)" fill="#49453e"/>
                <rect id="Rectángulo_34309" data-name="Rectángulo 34309" width="0.413" height="2.844" transform="translate(0.606 0.551)" fill="#49453e"/>
              </g>
              <g id="Grupo_83285" data-name="Grupo 83285" transform="translate(1.002 10.098)">
                <rect id="Rectángulo_34310" data-name="Rectángulo 34310" width="1.885" height="3.945" rx="0.148" fill="#827d79"/>
                <rect id="Rectángulo_34311" data-name="Rectángulo 34311" width="1.483" height="3.587" rx="0.125" transform="translate(0.201 0.179)" fill="#099ebf"/>
                <g id="Grupo_83284" data-name="Grupo 83284" transform="translate(0.327 0.489)">
                  <circle id="Elipse_4881" data-name="Elipse 4881" cx="0.137" cy="0.137" r="0.137" transform="translate(0 0.448)" fill="#49453e"/>
                  <path id="Trazado_116468" data-name="Trazado 116468" d="M196.188,146.478a.135.135,0,1,1-.271,0,.135.135,0,1,1,.271,0Z" transform="translate(-195.915 -145.445)" fill="#49453e"/>
                  <circle id="Elipse_4882" data-name="Elipse 4882" cx="0.137" cy="0.137" r="0.137" transform="translate(0 1.344)" fill="#49453e"/>
                  <circle id="Elipse_4883" data-name="Elipse 4883" cx="0.137" cy="0.137" r="0.137" transform="translate(0 1.792)" fill="#49453e"/>
                  <circle id="Elipse_4884" data-name="Elipse 4884" cx="0.137" cy="0.137" r="0.137" transform="translate(0 2.24)" fill="#49453e"/>
                  <path id="Trazado_116469" data-name="Trazado 116469" d="M196.285,146.387a.135.135,0,1,1-.271,0,.135.135,0,1,1,.271,0Z" transform="translate(-195.535 -145.802)" fill="#49453e"/>
                  <circle id="Elipse_4885" data-name="Elipse 4885" cx="0.137" cy="0.137" r="0.137" transform="translate(0.221)" fill="#49453e"/>
                  <circle id="Elipse_4886" data-name="Elipse 4886" cx="0.137" cy="0.137" r="0.137" transform="translate(0.717)" fill="#49453e"/>
                  <circle id="Elipse_4887" data-name="Elipse 4887" cx="0.137" cy="0.137" r="0.137" transform="translate(0.221 2.64)" fill="#49453e"/>
                  <circle id="Elipse_4888" data-name="Elipse 4888" cx="0.137" cy="0.137" r="0.137" transform="translate(0.717 2.64)" fill="#49453e"/>
                  <path id="Trazado_116470" data-name="Trazado 116470" d="M196.285,146.478a.135.135,0,1,1-.271,0,.135.135,0,1,1,.271,0Z" transform="translate(-195.535 -145.445)" fill="#49453e"/>
                  <path id="Trazado_116471" data-name="Trazado 116471" d="M196.285,146.569a.135.135,0,1,1-.271,0,.135.135,0,1,1,.271,0Z" transform="translate(-195.535 -145.088)" fill="#49453e"/>
                  <path id="Trazado_116472" data-name="Trazado 116472" d="M196.285,146.66a.135.135,0,1,1-.271,0,.135.135,0,1,1,.271,0Z" transform="translate(-195.535 -144.731)" fill="#49453e"/>
                  <path id="Trazado_116473" data-name="Trazado 116473" d="M196.285,146.751a.135.135,0,1,1-.133-.138A.137.137,0,0,1,196.285,146.751Z" transform="translate(-195.535 -144.373)" fill="#49453e"/>
                  <circle id="Elipse_4889" data-name="Elipse 4889" cx="0.137" cy="0.137" r="0.137" transform="translate(0.956 0.448)" fill="#49453e"/>
                  <path id="Trazado_116474" data-name="Trazado 116474" d="M196.387,146.478a.138.138,0,0,1-.138.138.135.135,0,0,1-.138-.138.138.138,0,0,1,.138-.138A.141.141,0,0,1,196.387,146.478Z" transform="translate(-195.154 -145.445)" fill="#49453e"/>
                  <circle id="Elipse_4890" data-name="Elipse 4890" cx="0.137" cy="0.137" r="0.137" transform="translate(0.956 1.344)" fill="#49453e"/>
                  <circle id="Elipse_4891" data-name="Elipse 4891" cx="0.137" cy="0.137" r="0.137" transform="translate(0.956 1.792)" fill="#49453e"/>
                  <circle id="Elipse_4892" data-name="Elipse 4892" cx="0.137" cy="0.137" r="0.137" transform="translate(0.956 2.24)" fill="#49453e"/>
                </g>
              </g>
              <g id="Grupo_83287" data-name="Grupo 83287" transform="translate(1.002 4.754)">
                <rect id="Rectángulo_34312" data-name="Rectángulo 34312" width="1.885" height="3.945" rx="0.148" fill="#827d79"/>
                <rect id="Rectángulo_34313" data-name="Rectángulo 34313" width="1.483" height="3.587" rx="0.125" transform="translate(0.201 0.179)" fill="#f7c75c"/>
                <g id="Grupo_83286" data-name="Grupo 83286" transform="translate(0.327 0.489)">
                  <circle id="Elipse_4893" data-name="Elipse 4893" cx="0.137" cy="0.137" r="0.137" transform="translate(0 0.448)" fill="#49453e"/>
                  <circle id="Elipse_4894" data-name="Elipse 4894" cx="0.137" cy="0.137" r="0.137" transform="translate(0 0.896)" fill="#49453e"/>
                  <circle id="Elipse_4895" data-name="Elipse 4895" cx="0.137" cy="0.137" r="0.137" transform="translate(0 1.344)" fill="#49453e"/>
                  <circle id="Elipse_4896" data-name="Elipse 4896" cx="0.137" cy="0.137" r="0.137" transform="translate(0 1.792)" fill="#49453e"/>
                  <circle id="Elipse_4897" data-name="Elipse 4897" cx="0.137" cy="0.137" r="0.137" transform="translate(0 2.24)" fill="#49453e"/>
                  <path id="Trazado_116475" data-name="Trazado 116475" d="M196.285,145.3a.135.135,0,1,1-.271,0,.135.135,0,1,1,.271,0Z" transform="translate(-195.535 -144.718)" fill="#49453e"/>
                  <circle id="Elipse_4898" data-name="Elipse 4898" cx="0.137" cy="0.137" r="0.137" transform="translate(0.221)" fill="#49453e"/>
                  <circle id="Elipse_4899" data-name="Elipse 4899" cx="0.137" cy="0.137" r="0.137" transform="translate(0.717)" fill="#49453e"/>
                  <circle id="Elipse_4900" data-name="Elipse 4900" cx="0.137" cy="0.137" r="0.137" transform="translate(0.221 2.64)" fill="#49453e"/>
                  <circle id="Elipse_4901" data-name="Elipse 4901" cx="0.137" cy="0.137" r="0.137" transform="translate(0.717 2.64)" fill="#49453e"/>
                  <path id="Trazado_116476" data-name="Trazado 116476" d="M196.285,145.393a.135.135,0,1,1-.271,0,.135.135,0,1,1,.271,0Z" transform="translate(-195.535 -144.361)" fill="#49453e"/>
                  <path id="Trazado_116477" data-name="Trazado 116477" d="M196.285,145.484a.135.135,0,1,1-.271,0,.135.135,0,1,1,.271,0Z" transform="translate(-195.535 -144.003)" fill="#49453e"/>
                  <path id="Trazado_116478" data-name="Trazado 116478" d="M196.285,145.575a.135.135,0,1,1-.271,0,.135.135,0,1,1,.271,0Z" transform="translate(-195.535 -143.646)" fill="#49453e"/>
                  <path id="Trazado_116479" data-name="Trazado 116479" d="M196.285,145.666a.135.135,0,1,1-.271,0,.135.135,0,1,1,.271,0Z" transform="translate(-195.535 -143.289)" fill="#49453e"/>
                  <circle id="Elipse_4902" data-name="Elipse 4902" cx="0.137" cy="0.137" r="0.137" transform="translate(0.956 0.448)" fill="#49453e"/>
                  <circle id="Elipse_4903" data-name="Elipse 4903" cx="0.137" cy="0.137" r="0.137" transform="translate(0.956 0.896)" fill="#49453e"/>
                  <circle id="Elipse_4904" data-name="Elipse 4904" cx="0.137" cy="0.137" r="0.137" transform="translate(0.956 1.344)" fill="#49453e"/>
                  <circle id="Elipse_4905" data-name="Elipse 4905" cx="0.137" cy="0.137" r="0.137" transform="translate(0.956 1.792)" fill="#49453e"/>
                  <circle id="Elipse_4906" data-name="Elipse 4906" cx="0.137" cy="0.137" r="0.137" transform="translate(0.956 2.24)" fill="#49453e"/>
                </g>
              </g>
            </g>
            <g id="Grupo_83289" data-name="Grupo 83289" transform="translate(16.963 24.564)">
              <circle id="Elipse_4907" data-name="Elipse 4907" cx="0.612" cy="0.612" r="0.612" transform="translate(4.276 3.605)" fill="#2b2923"/>
              <path id="Trazado_116480" data-name="Trazado 116480" d="M200.786,146.438a.611.611,0,1,1-.611-.611A.607.607,0,0,1,200.786,146.438Z" transform="translate(-192.409 -142.222)" fill="#2b2923"/>
              <circle id="Elipse_4908" data-name="Elipse 4908" cx="0.612" cy="0.612" r="0.612" transform="translate(10.034 3.605)" fill="#2b2923"/>
              <circle id="Elipse_4909" data-name="Elipse 4909" cx="0.612" cy="0.612" r="0.612" transform="translate(2.888 5.838)" fill="#2b2923"/>
              <path id="Trazado_116481" data-name="Trazado 116481" d="M200.5,146.9a.611.611,0,1,1-.611-.616A.611.611,0,0,1,200.5,146.9Z" transform="translate(-193.516 -140.443)" fill="#2b2923"/>
              <circle id="Elipse_4910" data-name="Elipse 4910" cx="0.612" cy="0.612" r="0.612" transform="translate(8.646 5.838)" fill="#2b2923"/>
              <path id="Trazado_116482" data-name="Trazado 116482" d="M200.5,146.041a.611.611,0,1,1-.611-.611A.611.611,0,0,1,200.5,146.041Z" transform="translate(-193.516 -143.78)" fill="#2b2923"/>
              <circle id="Elipse_4911" data-name="Elipse 4911" cx="0.612" cy="0.612" r="0.612" transform="translate(8.646 1.648)" fill="#2b2923"/>
              <circle id="Elipse_4912" data-name="Elipse 4912" cx="0.612" cy="0.612" r="0.612" transform="translate(2.888 1.648)" fill="#2b2923"/>
              <path id="Trazado_116483" data-name="Trazado 116483" d="M200.5,148.646a.611.611,0,1,1-.611-.611A.608.608,0,0,1,200.5,148.646Z" transform="translate(-193.516 -133.555)" fill="#2b2923"/>
              <circle id="Elipse_4913" data-name="Elipse 4913" cx="0.612" cy="0.612" r="0.612" transform="translate(8.646 14.479)" fill="#2b2923"/>
              <circle id="Elipse_4914" data-name="Elipse 4914" cx="0.612" cy="0.612" r="0.612" transform="translate(11.525 5.838)" fill="#2b2923"/>
              <path id="Trazado_116484" data-name="Trazado 116484" d="M199.617,147.344a.611.611,0,1,1-1.221,0,.611.611,0,1,1,1.221,0Z" transform="translate(-196.998 -138.665)" fill="#2b2923"/>
              <path id="Trazado_116485" data-name="Trazado 116485" d="M200.206,147.344a.613.613,0,1,1-.616-.611A.615.615,0,0,1,200.206,147.344Z" transform="translate(-194.705 -138.665)" fill="#2b2923"/>
              <path id="Trazado_116486" data-name="Trazado 116486" d="M200.786,147.344a.611.611,0,1,1-.611-.611A.611.611,0,0,1,200.786,147.344Z" transform="translate(-192.409 -138.665)" fill="#2b2923"/>
              <circle id="Elipse_4915" data-name="Elipse 4915" cx="0.612" cy="0.612" r="0.612" transform="translate(1.388 3.605)" fill="#2b2923"/>
              <circle id="Elipse_4916" data-name="Elipse 4916" cx="0.612" cy="0.612" r="0.612" transform="translate(0 5.838)" fill="#2b2923"/>
              <path id="Trazado_116487" data-name="Trazado 116487" d="M201.375,147.344a.613.613,0,1,1-.611-.611A.614.614,0,0,1,201.375,147.344Z" transform="translate(-190.117 -138.665)" fill="#2b2923"/>
              <path id="Trazado_116488" data-name="Trazado 116488" d="M201.955,147.344a.611.611,0,1,1-.611-.611A.611.611,0,0,1,201.955,147.344Z" transform="translate(-187.82 -138.665)" fill="#2b2923"/>
              <circle id="Elipse_4917" data-name="Elipse 4917" cx="0.612" cy="0.612" r="0.612" transform="translate(2.888 10.299)" fill="#2b2923"/>
              <path id="Trazado_116489" data-name="Trazado 116489" d="M200.5,147.8a.611.611,0,1,1-1.221,0,.611.611,0,0,1,1.221,0Z" transform="translate(-193.516 -136.887)" fill="#2b2923"/>
              <circle id="Elipse_4918" data-name="Elipse 4918" cx="0.612" cy="0.612" r="0.612" transform="translate(8.646 10.299)" fill="#2b2923"/>
              <circle id="Elipse_4919" data-name="Elipse 4919" cx="0.612" cy="0.612" r="0.612" transform="translate(11.525 10.299)" fill="#2b2923"/>
              <path id="Trazado_116490" data-name="Trazado 116490" d="M200.206,148.254a.613.613,0,1,1-.616-.616A.615.615,0,0,1,200.206,148.254Z" transform="translate(-194.705 -135.113)" fill="#2b2923"/>
              <circle id="Elipse_4920" data-name="Elipse 4920" cx="0.612" cy="0.612" r="0.612" transform="translate(0.041 10.299)" fill="#2b2923"/>
              <path id="Trazado_116491" data-name="Trazado 116491" d="M199.628,148.254a.613.613,0,1,1-.616-.616A.615.615,0,0,1,199.628,148.254Z" transform="translate(-196.974 -135.113)" fill="#2b2923"/>
              <path id="Trazado_116492" data-name="Trazado 116492" d="M200.786,148.254a.611.611,0,1,1-.611-.616A.611.611,0,0,1,200.786,148.254Z" transform="translate(-192.409 -135.113)" fill="#2b2923"/>
              <path id="Trazado_116493" data-name="Trazado 116493" d="M200.786,148.989a.611.611,0,1,1-.611-.611A.612.612,0,0,1,200.786,148.989Z" transform="translate(-192.409 -132.208)" fill="#2b2923"/>
              <path id="Trazado_116494" data-name="Trazado 116494" d="M200.786,145.706a.611.611,0,1,1-.611-.611A.611.611,0,0,1,200.786,145.706Z" transform="translate(-192.409 -145.095)" fill="#2b2923"/>
              <path id="Trazado_116495" data-name="Trazado 116495" d="M199.919,148.646a.611.611,0,1,1-.611-.611A.611.611,0,0,1,199.919,148.646Z" transform="translate(-195.816 -133.555)" fill="#2b2923"/>
              <circle id="Elipse_4921" data-name="Elipse 4921" cx="0.612" cy="0.612" r="0.612" transform="translate(11.531 1.648)" fill="#2b2923"/>
              <circle id="Elipse_4922" data-name="Elipse 4922" cx="0.612" cy="0.612" r="0.612" transform="translate(13.03 3.605)" fill="#2b2923"/>
              <circle id="Elipse_4923" data-name="Elipse 4923" cx="0.612" cy="0.612" r="0.612" transform="translate(14.418 5.838)" fill="#2b2923"/>
              <path id="Trazado_116496" data-name="Trazado 116496" d="M201.031,147.8a.611.611,0,1,0,.611-.611A.611.611,0,0,0,201.031,147.8Z" transform="translate(-186.654 -136.887)" fill="#2b2923"/>
              <path id="Trazado_116497" data-name="Trazado 116497" d="M200.749,148.254a.613.613,0,1,0,.611-.616A.614.614,0,0,0,200.749,148.254Z" transform="translate(-187.761 -135.113)" fill="#2b2923"/>
              <path id="Trazado_116498" data-name="Trazado 116498" d="M200.455,148.646a.611.611,0,1,0,.611-.611A.611.611,0,0,0,200.455,148.646Z" transform="translate(-188.915 -133.555)" fill="#2b2923"/>
              <path id="Trazado_116499" data-name="Trazado 116499" d="M200.2,148.254a.613.613,0,1,1-.611-.616A.614.614,0,0,1,200.2,148.254Z" transform="translate(-194.713 -135.113)" fill="#2b2923"/>
              <path id="Trazado_116500" data-name="Trazado 116500" d="M201.375,148.254a.613.613,0,1,1-.611-.616A.614.614,0,0,1,201.375,148.254Z" transform="translate(-190.117 -135.113)" fill="#2b2923"/>
            </g>
            <rect id="Rectángulo_34314" data-name="Rectángulo 34314" width="16.611" height="0.791" transform="translate(5.867 51.42)" fill="#706b64" opacity="0.4" style="mix-blend-mode: multiply;isolation: isolate"/>
            <rect id="Rectángulo_34315" data-name="Rectángulo 34315" width="16.611" height="0.791" transform="translate(5.867 56.971)" fill="#706b64" opacity="0.4" style="mix-blend-mode: multiply;isolation: isolate"/>
            <rect id="Rectángulo_34316" data-name="Rectángulo 34316" width="16.611" height="0.791" transform="translate(5.867 62.521)" fill="#706b64" opacity="0.4" style="mix-blend-mode: multiply;isolation: isolate"/>
            <rect id="Rectángulo_34317" data-name="Rectángulo 34317" width="16.611" height="0.791" transform="translate(5.867 68.071)" fill="#706b64" opacity="0.4" style="mix-blend-mode: multiply;isolation: isolate"/>
            <rect id="Rectángulo_34318" data-name="Rectángulo 34318" width="16.611" height="0.791" transform="translate(5.867 73.621)" fill="#706b64" opacity="0.4" style="mix-blend-mode: multiply;isolation: isolate"/>
            <rect id="Rectángulo_34319" data-name="Rectángulo 34319" width="18.703" height="4.831" transform="translate(4.821 50.556)" fill="#706b64" opacity="0.4" style="mix-blend-mode: multiply;isolation: isolate"/>
            <rect id="Rectángulo_34320" data-name="Rectángulo 34320" width="16.611" height="0.791" transform="translate(5.867 51.06)" fill="#827d79"/>
            <rect id="Rectángulo_34321" data-name="Rectángulo 34321" width="18.703" height="4.831" transform="translate(4.821 56.107)" fill="#706b64" opacity="0.4" style="mix-blend-mode: multiply;isolation: isolate"/>
            <rect id="Rectángulo_34322" data-name="Rectángulo 34322" width="16.611" height="0.791" transform="translate(5.867 56.611)" fill="#827d79"/>
            <rect id="Rectángulo_34323" data-name="Rectángulo 34323" width="18.703" height="4.831" transform="translate(4.821 61.657)" fill="#706b64" opacity="0.4" style="mix-blend-mode: multiply;isolation: isolate"/>
            <rect id="Rectángulo_34324" data-name="Rectángulo 34324" width="16.611" height="0.791" transform="translate(5.867 62.161)" fill="#827d79"/>
            <rect id="Rectángulo_34325" data-name="Rectángulo 34325" width="18.703" height="4.831" transform="translate(4.821 67.207)" fill="#706b64" opacity="0.4" style="mix-blend-mode: multiply;isolation: isolate"/>
            <rect id="Rectángulo_34326" data-name="Rectángulo 34326" width="16.611" height="0.791" transform="translate(5.867 67.711)" fill="#827d79"/>
            <rect id="Rectángulo_34327" data-name="Rectángulo 34327" width="18.703" height="4.831" transform="translate(4.821 72.757)" fill="#706b64" opacity="0.4" style="mix-blend-mode: multiply;isolation: isolate"/>
            <rect id="Rectángulo_34328" data-name="Rectángulo 34328" width="16.611" height="0.791" transform="translate(5.867 73.261)" fill="#827d79"/>
          </g>
        </g>
        <rect id="Rectángulo_34329" data-name="Rectángulo 34329" width="48.364" height="8.161" transform="translate(149.423 121.557)" fill="#a13d1f"/>
        <rect id="Rectángulo_34330" data-name="Rectángulo 34330" width="4.681" height="130.825" transform="translate(147.416 4.303)" fill="#a13d1f"/>
        <rect id="Rectángulo_34331" data-name="Rectángulo 34331" width="4.681" height="130.825" transform="translate(8.355 4.303)" fill="#cc7442"/>
        <rect id="Rectángulo_34332" data-name="Rectángulo 34332" width="2.785" height="130.825" transform="translate(66.3 4.303)" fill="#cc7442"/>
        <rect id="Rectángulo_34333" data-name="Rectángulo 34333" width="2.785" height="130.825" transform="translate(69.085 4.303)" fill="#b04c25"/>
        <rect id="Rectángulo_34334" data-name="Rectángulo 34334" width="63.428" height="13.638" transform="translate(8.355 4.7)" fill="#cc7442"/>
        <rect id="Rectángulo_34335" data-name="Rectángulo 34335" width="4.681" height="130.825" transform="translate(236.501 4.303)" fill="#b04c25"/>
        <rect id="Rectángulo_34336" data-name="Rectángulo 34336" width="4.681" height="130.825" transform="translate(197.14 4.303)" fill="#b04c25"/>
        <rect id="Rectángulo_34337" data-name="Rectángulo 34337" width="172.097" height="13.638" transform="translate(69.085 4.7)" fill="#b04c25"/>
        <rect id="Rectángulo_34338" data-name="Rectángulo 34338" width="44.046" height="8.161" transform="translate(197.14 121.557)" fill="#b04c25"/>
        <rect id="Rectángulo_34339" data-name="Rectángulo 34339" width="4.681" height="130.825" transform="translate(197.337 4.303)" fill="#b04c25"/>
        <rect id="Rectángulo_34340" data-name="Rectángulo 34340" width="172.097" height="8.254" transform="translate(69.085 4.341)" fill="#a13d1f"/>
        <rect id="Rectángulo_34341" data-name="Rectángulo 34341" width="60.73" height="7.895" transform="translate(8.355 4.7)" fill="#b7572c"/>
        <rect id="Rectángulo_34342" data-name="Rectángulo 34342" width="70.822" height="8.944" fill="#db8351"/>
        <rect id="Rectángulo_34343" data-name="Rectángulo 34343" width="181.583" height="8.944" transform="translate(68.998)" fill="#bf5b34"/>
        <rect id="Rectángulo_34344" data-name="Rectángulo 34344" width="250.581" height="1.848" fill="#ff925c"/>
      </g>
      <g id="Grupo_83307" data-name="Grupo 83307" transform="translate(71.861)">
        <path id="Trazado_116501" data-name="Trazado 116501" d="M239.758,168.12c-20.11,0-32.374-8.9-39.24-16.672a52.435,52.435,0,0,1-10.565-18.357H168.474V132.6h21.849l.049.182A51.669,51.669,0,0,0,200.9,151.138c6.8,7.684,18.948,16.495,38.866,16.495,1.384,0,2.8-.044,4.251-.133,34.256-2.064,48.618-35.226,48.761-35.561l.453.192c-.138.335-14.618,33.773-49.184,35.861C242.58,168.081,241.152,168.12,239.758,168.12Z" transform="translate(-168.474 -46.044)" fill="#322f28"/>
        <g id="Grupo_83306" data-name="Grupo 83306" transform="translate(72.738)">
          <rect id="Rectángulo_34345" data-name="Rectángulo 34345" width="3.888" height="72.48" fill="#49453e"/>
          <rect id="Rectángulo_34346" data-name="Rectángulo 34346" width="1.025" height="72.48" transform="translate(2.358)" fill="#322f28" opacity="0.4" style="mix-blend-mode: screen;isolation: isolate"/>
          <rect id="Rectángulo_34347" data-name="Rectángulo 34347" width="93.753" height="72.48" transform="translate(2.862)" fill="#322f28"/>
          <g id="Grupo_83292" data-name="Grupo 83292" transform="translate(8.903 7.736)">
            <rect id="Rectángulo_34348" data-name="Rectángulo 34348" width="1.801" height="6.077" fill="#2b2923"/>
            <rect id="Rectángulo_34349" data-name="Rectángulo 34349" width="1.801" height="6.077" transform="translate(3.826)" fill="#2b2923"/>
            <rect id="Rectángulo_34350" data-name="Rectángulo 34350" width="1.801" height="6.077" transform="translate(7.653)" fill="#2b2923"/>
            <rect id="Rectángulo_34351" data-name="Rectángulo 34351" width="1.801" height="6.077" transform="translate(11.479)" fill="#2b2923"/>
            <rect id="Rectángulo_34352" data-name="Rectángulo 34352" width="1.801" height="6.077" transform="translate(15.305)" fill="#2b2923"/>
            <rect id="Rectángulo_34353" data-name="Rectángulo 34353" width="1.801" height="6.077" transform="translate(19.132)" fill="#2b2923"/>
            <rect id="Rectángulo_34354" data-name="Rectángulo 34354" width="1.8" height="6.077" transform="translate(22.958)" fill="#2b2923"/>
          </g>
          <g id="Grupo_83293" data-name="Grupo 83293" transform="translate(65.849 7.736)">
            <rect id="Rectángulo_34355" data-name="Rectángulo 34355" width="1.8" height="6.077" fill="#2b2923"/>
            <rect id="Rectángulo_34356" data-name="Rectángulo 34356" width="1.801" height="6.077" transform="translate(3.826)" fill="#2b2923"/>
            <rect id="Rectángulo_34357" data-name="Rectángulo 34357" width="1.801" height="6.077" transform="translate(7.653)" fill="#2b2923"/>
            <rect id="Rectángulo_34358" data-name="Rectángulo 34358" width="1.801" height="6.077" transform="translate(11.479)" fill="#2b2923"/>
            <rect id="Rectángulo_34359" data-name="Rectángulo 34359" width="1.8" height="6.077" transform="translate(15.305)" fill="#2b2923"/>
            <rect id="Rectángulo_34360" data-name="Rectángulo 34360" width="1.801" height="6.077" transform="translate(19.131)" fill="#2b2923"/>
            <rect id="Rectángulo_34361" data-name="Rectángulo 34361" width="1.801" height="6.077" transform="translate(22.958)" fill="#2b2923"/>
          </g>
          <g id="Grupo_83294" data-name="Grupo 83294" transform="translate(12.856 21.614)">
            <circle id="Elipse_4924" data-name="Elipse 4924" cx="1.65" cy="1.65" r="1.65" transform="translate(0 0.001)" fill="#2b2923"/>
            <circle id="Elipse_4925" data-name="Elipse 4925" cx="1.65" cy="1.65" r="1.65" transform="translate(0 34.364)" fill="#2b2923"/>
            <path id="Trazado_116502" data-name="Trazado 116502" d="M203.459,120.538a1.65,1.65,0,1,1-1.65-1.65A1.654,1.654,0,0,1,203.459,120.538Z" transform="translate(-129.693 -118.888)" fill="#2b2923"/>
            <path id="Trazado_116503" data-name="Trazado 116503" d="M203.459,127.515a1.65,1.65,0,1,1-1.65-1.65A1.65,1.65,0,0,1,203.459,127.515Z" transform="translate(-129.693 -91.501)" fill="#2b2923"/>
          </g>
          <g id="Grupo_83295" data-name="Grupo 83295" transform="translate(32.6 61.921)">
            <rect id="Rectángulo_34362" data-name="Rectángulo 34362" width="8.033" height="23.745" transform="translate(13.122)" fill="#2b2923"/>
            <path id="Trazado_116504" data-name="Trazado 116504" d="M224.136,136.137H189.861v-2.793S195.19,131.2,207.2,131.2s16.938,2.147,16.938,2.147Z" transform="translate(-189.861 -110.878)" fill="#2b2923"/>
            <rect id="Rectángulo_34363" data-name="Rectángulo 34363" width="8.033" height="4.202" transform="translate(13.122 10.413)" fill="#2b2923" opacity="0.3" style="mix-blend-mode: multiply;isolation: isolate"/>
          </g>
          <rect id="Rectángulo_34364" data-name="Rectángulo 34364" width="61.358" height="39.98" transform="translate(19.059 32.47)" fill="#2b2923"/>
          <rect id="Rectángulo_34365" data-name="Rectángulo 34365" width="4.024" height="39.98" transform="translate(19.059 32.47)" fill="#3a3730"/>
          <g id="Grupo_83302" data-name="Grupo 83302" transform="translate(62.023 64.411)">
            <rect id="Rectángulo_34366" data-name="Rectángulo 34366" width="14.855" height="4.727" fill="#322f28"/>
            <rect id="Rectángulo_34367" data-name="Rectángulo 34367" width="0.869" height="4.727" transform="translate(13.986)" fill="#49453e"/>
            <g id="Grupo_83296" data-name="Grupo 83296" transform="translate(1.164 0.837)">
              <path id="Trazado_116505" data-name="Trazado 116505" d="M199.12,129.274a1.524,1.524,0,1,1-1.527-1.527A1.528,1.528,0,0,1,199.12,129.274Z" transform="translate(-196.071 -127.747)" fill="#49453e"/>
              <path id="Trazado_116506" data-name="Trazado 116506" d="M198.619,129.05a1.246,1.246,0,1,1-1.246-1.246A1.244,1.244,0,0,1,198.619,129.05Z" transform="translate(-195.851 -127.523)" fill="#2b2923"/>
              <path id="Trazado_116507" data-name="Trazado 116507" d="M197.141,128.395a.424.424,0,1,1-.424-.424A.424.424,0,0,1,197.141,128.395Z" transform="translate(-195.196 -126.868)" fill="#49453e"/>
            </g>
            <g id="Grupo_83301" data-name="Grupo 83301" transform="translate(5.865 0.838)">
              <rect id="Rectángulo_34368" data-name="Rectángulo 34368" width="7.542" height="3.033" rx="0.149" fill="#49453e"/>
              <rect id="Rectángulo_34369" data-name="Rectángulo 34369" width="6.864" height="2.474" rx="0.128" transform="translate(0.339 0.279)" fill="#2b2923"/>
              <g id="Grupo_83300" data-name="Grupo 83300" transform="translate(1.116 0.604)">
                <g id="Grupo_83297" data-name="Grupo 83297">
                  <path id="Trazado_116508" data-name="Trazado 116508" d="M197.681,128.087a.214.214,0,0,1-.217.212.21.21,0,0,1-.212-.212.214.214,0,0,1,.212-.217A.219.219,0,0,1,197.681,128.087Z" transform="translate(-197.252 -127.87)" fill="#49453e"/>
                  <path id="Trazado_116509" data-name="Trazado 116509" d="M197.845,128.087a.214.214,0,0,1-.428,0,.214.214,0,1,1,.428,0Z" transform="translate(-196.604 -127.87)" fill="#49453e"/>
                  <path id="Trazado_116510" data-name="Trazado 116510" d="M198.007,128.087a.212.212,0,0,1-.424,0,.212.212,0,1,1,.424,0Z" transform="translate(-195.953 -127.87)" fill="#49453e"/>
                  <path id="Trazado_116511" data-name="Trazado 116511" d="M198.172,128.087a.212.212,0,0,1-.424,0,.212.212,0,1,1,.424,0Z" transform="translate(-195.305 -127.87)" fill="#49453e"/>
                  <path id="Trazado_116512" data-name="Trazado 116512" d="M198.342,128.087a.214.214,0,0,1-.217.212.21.21,0,0,1-.212-.212.214.214,0,0,1,.212-.217A.219.219,0,0,1,198.342,128.087Z" transform="translate(-194.657 -127.87)" fill="#49453e"/>
                  <path id="Trazado_116513" data-name="Trazado 116513" d="M198.506,128.087a.21.21,0,0,1-.212.212.214.214,0,0,1-.217-.212.219.219,0,0,1,.217-.217A.214.214,0,0,1,198.506,128.087Z" transform="translate(-194.01 -127.87)" fill="#49453e"/>
                  <path id="Trazado_116514" data-name="Trazado 116514" d="M198.668,128.087a.212.212,0,0,1-.424,0,.212.212,0,1,1,.424,0Z" transform="translate(-193.358 -127.87)" fill="#49453e"/>
                </g>
                <g id="Grupo_83298" data-name="Grupo 83298" transform="translate(0 0.699)">
                  <path id="Trazado_116515" data-name="Trazado 116515" d="M197.681,128.224a.219.219,0,0,1-.217.217.214.214,0,0,1-.212-.217.21.21,0,0,1,.212-.212A.214.214,0,0,1,197.681,128.224Z" transform="translate(-197.252 -128.012)" fill="#49453e"/>
                  <circle id="Elipse_4926" data-name="Elipse 4926" cx="0.213" cy="0.213" r="0.213" transform="translate(0.814)" fill="#49453e"/>
                  <path id="Trazado_116516" data-name="Trazado 116516" d="M198.007,128.224a.212.212,0,1,1-.424,0,.212.212,0,0,1,.424,0Z" transform="translate(-195.953 -128.012)" fill="#49453e"/>
                  <circle id="Elipse_4927" data-name="Elipse 4927" cx="0.213" cy="0.213" r="0.213" transform="translate(2.442)" fill="#49453e"/>
                  <circle id="Elipse_4928" data-name="Elipse 4928" cx="0.213" cy="0.213" r="0.213" transform="translate(3.256)" fill="#49453e"/>
                  <path id="Trazado_116517" data-name="Trazado 116517" d="M198.506,128.224a.214.214,0,0,1-.212.217.219.219,0,0,1-.217-.217.214.214,0,0,1,.217-.212A.21.21,0,0,1,198.506,128.224Z" transform="translate(-194.01 -128.012)" fill="#49453e"/>
                  <circle id="Elipse_4929" data-name="Elipse 4929" cx="0.213" cy="0.213" r="0.213" transform="translate(4.884)" fill="#49453e"/>
                </g>
                <g id="Grupo_83299" data-name="Grupo 83299" transform="translate(0 1.397)">
                  <path id="Trazado_116518" data-name="Trazado 116518" d="M197.681,128.366a.214.214,0,0,1-.217.212.212.212,0,1,1,0-.424A.214.214,0,0,1,197.681,128.366Z" transform="translate(-197.252 -128.152)" fill="#49453e"/>
                  <circle id="Elipse_4930" data-name="Elipse 4930" cx="0.213" cy="0.213" r="0.213" transform="translate(0.814)" fill="#49453e"/>
                  <path id="Trazado_116519" data-name="Trazado 116519" d="M198.007,128.366a.212.212,0,1,1-.212-.212A.21.21,0,0,1,198.007,128.366Z" transform="translate(-195.953 -128.152)" fill="#49453e"/>
                  <circle id="Elipse_4931" data-name="Elipse 4931" cx="0.213" cy="0.213" r="0.213" transform="translate(2.442)" fill="#49453e"/>
                  <circle id="Elipse_4932" data-name="Elipse 4932" cx="0.213" cy="0.213" r="0.213" transform="translate(3.256)" fill="#49453e"/>
                  <path id="Trazado_116520" data-name="Trazado 116520" d="M198.506,128.366a.21.21,0,0,1-.212.212.212.212,0,1,1,0-.424A.21.21,0,0,1,198.506,128.366Z" transform="translate(-194.01 -128.152)" fill="#49453e"/>
                  <circle id="Elipse_4933" data-name="Elipse 4933" cx="0.213" cy="0.213" r="0.213" transform="translate(4.884)" fill="#49453e"/>
                </g>
              </g>
            </g>
            <rect id="Rectángulo_34370" data-name="Rectángulo 34370" width="14.855" height="1.657" fill="#2b2923" opacity="0.4" style="mix-blend-mode: multiply;isolation: isolate"/>
          </g>
          <path id="Trazado_116521" data-name="Trazado 116521" d="M203.157,161.072h-3.588v-39.98l3.588,4Z" transform="translate(-119.152 -88.622)" fill="#2b2923" opacity="0.3" style="mix-blend-mode: multiply;isolation: isolate"/>
          <g id="Grupo_83304" data-name="Grupo 83304" transform="translate(26.985 35.12)">
            <rect id="Rectángulo_34371" data-name="Rectángulo 34371" width="18.183" height="12.004" rx="0.538" fill="#3a3730"/>
            <g id="Grupo_83303" data-name="Grupo 83303" transform="translate(2.024 1.499)">
              <rect id="Rectángulo_34372" data-name="Rectángulo 34372" width="14.135" height="1.351" transform="translate(0 0.151)" fill="#2b2923"/>
              <rect id="Rectángulo_34373" data-name="Rectángulo 34373" width="14.135" height="1.351" transform="translate(0 2.552)" fill="#2b2923"/>
              <rect id="Rectángulo_34374" data-name="Rectángulo 34374" width="14.135" height="1.351" transform="translate(0 4.953)" fill="#2b2923"/>
              <rect id="Rectángulo_34375" data-name="Rectángulo 34375" width="14.135" height="1.351" transform="translate(0 7.354)" fill="#2b2923"/>
              <rect id="Rectángulo_34376" data-name="Rectángulo 34376" width="1.186" height="1.75" transform="translate(9.857 4.753)" fill="#3a3730"/>
              <rect id="Rectángulo_34377" data-name="Rectángulo 34377" width="1.187" height="1.75" transform="translate(2.739)" fill="#3a3730"/>
              <rect id="Rectángulo_34378" data-name="Rectángulo 34378" width="1.186" height="1.75" transform="translate(5.62 7.231)" fill="#3a3730"/>
            </g>
          </g>
          <g id="Grupo_83305" data-name="Grupo 83305" transform="translate(20.026 57.521)">
            <rect id="Rectángulo_34379" data-name="Rectángulo 34379" width="1.659" height="5.082" fill="#2b2923"/>
            <rect id="Rectángulo_34380" data-name="Rectángulo 34380" width="1.659" height="5.081" transform="translate(0 6.58)" fill="#2b2923"/>
            <rect id="Rectángulo_34381" data-name="Rectángulo 34381" width="0.513" height="4.433" transform="translate(0.778 6.904)" fill="#3a3730"/>
            <rect id="Rectángulo_34382" data-name="Rectángulo 34382" width="0.513" height="4.433" transform="translate(0.778 0.324)" fill="#3a3730"/>
          </g>
          <rect id="Rectángulo_34383" data-name="Rectángulo 34383" width="0.548" height="39.98" transform="translate(22.536 32.47)" fill="#322f28" opacity="0.4" style="mix-blend-mode: screen;isolation: isolate"/>
        </g>
      </g>
      <path id="Trazado_116522" data-name="Trazado 116522" d="M241.848,193.285a1.6,1.6,0,0,1-.813-.246l.251-.424a.919.919,0,0,0,.995.054c4.457-2.62,4.369-40.319,3.694-60.109H185.364v-.488h61.084l.01.231c.079,2.344,1.916,57.351-3.93,60.788A1.318,1.318,0,0,1,241.848,193.285Z" transform="translate(-30.314 -45.518)" fill="#2b2923"/>
      <g id="Grupo_83310" data-name="Grupo 83310" transform="translate(206.665 65.528)">
        <g id="Grupo_83308" data-name="Grupo 83308" transform="translate(6.161)">
          <rect id="Rectángulo_34384" data-name="Rectángulo 34384" width="6.864" height="2.474" rx="0.128" fill="#26241f"/>
          <rect id="Rectángulo_34385" data-name="Rectángulo 34385" width="6.864" height="2.474" rx="0.128" transform="translate(1.945)" fill="#2b2923"/>
        </g>
        <path id="Trazado_116523" data-name="Trazado 116523" d="M204.552,213.144c-2.67,0-3.423-4.531-4.226-9.324-.719-4.265-1.453-8.683-3.581-8.683v-.492c2.546,0,3.28,4.418,4.063,9.092.734,4.384,1.492,8.92,3.743,8.92,3.024,0,4.881-16.849,5.108-46.224.128-16.14-.039-33.665-3.64-37.27a2,2,0,0,0-1.453-.665h-.015v-.492h.015a2.486,2.486,0,0,1,1.8.808c3.738,3.743,3.921,20.637,3.788,37.62C209.915,197.432,208.029,213.144,204.552,213.144Z" transform="translate(-192.305 -127.015)" fill="#2b2923"/>
        <g id="Grupo_83309" data-name="Grupo 83309" transform="translate(0 66.051)">
          <rect id="Rectángulo_34386" data-name="Rectángulo 34386" width="5.95" height="3.685" rx="0.369" fill="#23211d"/>
          <rect id="Rectángulo_34387" data-name="Rectángulo 34387" width="5.95" height="3.685" rx="0.369" transform="translate(1.469)" fill="#2b2923"/>
        </g>
      </g>
    </g>
  </g>
</svg>
