<svg xmlns="http://www.w3.org/2000/svg" width="361" height="260.528" viewBox="0 0 361 260.528">
  <g id="Grupo_83233" data-name="Grupo 83233" transform="translate(-202.631 -201.734)">
    <g id="Grupo_83232" data-name="Grupo 83232" transform="translate(226.998 201.734)">
      <g id="Grupo_83230" data-name="Grupo 83230" transform="translate(0)">
        <g id="Grupo_83215" data-name="Grupo 83215" transform="translate(0 60.38)">
          <path id="Rectángulo_34246" data-name="Rectángulo 34246" d="M9.316,0h12.5a9.316,9.316,0,0,1,9.316,9.316v0a0,0,0,0,1,0,0H0a0,0,0,0,1,0,0v0A9.316,9.316,0,0,1,9.316,0Z" transform="translate(51.605 0)" fill="#365e99"/>
          <path id="Rectángulo_34247" data-name="Rectángulo 34247" d="M0,0H31.136a0,0,0,0,1,0,0V0a9.316,9.316,0,0,1-9.316,9.316H9.316A9.316,9.316,0,0,1,0,0V0A0,0,0,0,1,0,0Z" transform="translate(257.158 9.316) rotate(180)" fill="#365e99"/>
          <rect id="Rectángulo_34248" data-name="Rectángulo 34248" width="157.754" height="97.08" transform="translate(74.343 30.598)" fill="#b75742"/>
          <path id="Trazado_116238" data-name="Trazado 116238" d="M629.286,718.317H565.992l4.855-19.063a15.7,15.7,0,0,1,15.215-11.826h27.524a15.7,15.7,0,0,1,15.7,15.7Z" transform="translate(-533.662 -682.77)" fill="#b75742"/>
          <path id="Trazado_116239" data-name="Trazado 116239" d="M1646.963,718.317h63.294l-4.855-19.063a15.7,15.7,0,0,0-15.215-11.826h-27.524a15.7,15.7,0,0,0-15.7,15.7Z" transform="translate(-1433.825 -682.77)" fill="#b75742"/>
          <path id="Trazado_116240" data-name="Trazado 116240" d="M484.827,860.088h0a51.213,51.213,0,1,0-98.338-25.938h0s-13.785,96.7-13.785,98.414A33.738,33.738,0,0,0,406.442,966.3c8.613,0,16.872-2.809,22.433-8.538,12.131-12.5,41.1-68.393,51.847-89.537a51.008,51.008,0,0,0,4.1-8.139Z" transform="translate(-372.704 -768.209)" fill="#f47458"/>
          <path id="Trazado_116241" data-name="Trazado 116241" d="M1530.484,860.088h0a51.213,51.213,0,1,1,98.339-25.938h0s13.784,96.7,13.784,98.414a33.738,33.738,0,0,1-33.738,33.738c-8.613,0-16.871-2.809-22.433-8.538-12.131-12.5-41.1-68.393-51.847-89.537a51.023,51.023,0,0,1-4.1-8.139Z" transform="translate(-1333.844 -768.209)" fill="#f47458"/>
          <path id="Trazado_116242" data-name="Trazado 116242" d="M1684.181,883.466H1665.2a2.62,2.62,0,0,1-2.62-2.62V861.861a3.677,3.677,0,0,0-3.677-3.677h-20.778a3.677,3.677,0,0,0-3.677,3.677v18.985a2.62,2.62,0,0,1-2.62,2.62h-18.985a3.677,3.677,0,0,0-3.677,3.677v20.777a3.677,3.677,0,0,0,3.677,3.677h18.985a2.62,2.62,0,0,1,2.62,2.62V933.2a3.677,3.677,0,0,0,3.677,3.677H1658.9a3.677,3.677,0,0,0,3.677-3.677V914.219a2.62,2.62,0,0,1,2.62-2.62h18.985a3.677,3.677,0,0,0,3.677-3.677V887.144A3.677,3.677,0,0,0,1684.181,883.466Z" transform="translate(-1402.346 -824.964)" fill="#b75742"/>
          <g id="Grupo_83213" data-name="Grupo 83213" transform="translate(211.81 63.65)">
            <circle id="Elipse_4790" data-name="Elipse 4790" cx="8.918" cy="8.918" r="8.918" fill="#d6d6d6"/>
            <circle id="Elipse_4791" data-name="Elipse 4791" cx="8.918" cy="8.918" r="8.918" transform="translate(50.871)" fill="#f7cc7f"/>
          </g>
          <g id="Grupo_83214" data-name="Grupo 83214" transform="translate(237.246 38.215)">
            <circle id="Elipse_4792" data-name="Elipse 4792" cx="8.918" cy="8.918" r="8.918" transform="translate(0 50.871)" fill="#365e99"/>
            <circle id="Elipse_4793" data-name="Elipse 4793" cx="8.918" cy="8.918" r="8.918" fill="#50bfa5"/>
          </g>
          <path id="Trazado_116243" data-name="Trazado 116243" d="M608.942,883.466H589.957a2.62,2.62,0,0,1-2.62-2.62V861.861a3.677,3.677,0,0,0-3.677-3.677H562.882a3.677,3.677,0,0,0-3.677,3.677v18.985a2.62,2.62,0,0,1-2.62,2.62H537.6a3.677,3.677,0,0,0-3.677,3.677v20.777A3.677,3.677,0,0,0,537.6,911.6h18.985a2.62,2.62,0,0,1,2.62,2.62V933.2a3.677,3.677,0,0,0,3.677,3.677h20.778a3.677,3.677,0,0,0,3.677-3.677V914.219a2.62,2.62,0,0,1,2.62-2.62h18.985a3.677,3.677,0,0,0,3.677-3.677V887.144A3.678,3.678,0,0,0,608.942,883.466Z" transform="translate(-506.956 -824.964)" fill="#b75742"/>
          <ellipse id="Elipse_4794" data-name="Elipse 4794" cx="8.09" cy="5.363" rx="8.09" ry="5.363" transform="translate(128.7 87.278)" fill="#f47458"/>
          <rect id="Rectángulo_34249" data-name="Rectángulo 34249" width="15.651" height="15.651" rx="7.825" transform="translate(58.489 39.307)" fill="#50bfa5"/>
          <path id="Rectángulo_34250" data-name="Rectángulo 34250" d="M7.825,0h0a7.825,7.825,0,0,1,7.825,7.825v0a7.825,7.825,0,0,1-7.825,7.825h0A7.825,7.825,0,0,1,0,7.826v0A7.825,7.825,0,0,1,7.825,0Z" transform="translate(58.489 90.178)" fill="#365e99"/>
          <path id="Rectángulo_34251" data-name="Rectángulo 34251" d="M7.825,0h0a7.825,7.825,0,0,1,7.825,7.825v0a7.825,7.825,0,0,1-7.825,7.825h0A7.825,7.825,0,0,1,0,7.825v0A7.825,7.825,0,0,1,7.825,0Z" transform="translate(83.925 64.743)" fill="#f7cc7f"/>
          <path id="Rectángulo_34252" data-name="Rectángulo 34252" d="M7.825,0h0a7.825,7.825,0,0,1,7.825,7.825v0a7.825,7.825,0,0,1-7.825,7.825h0A7.825,7.825,0,0,1,0,7.825v0A7.825,7.825,0,0,1,7.825,0Z" transform="translate(33.054 64.743)" fill="#d6d6d6"/>
        </g>
        <g id="Grupo_83227" data-name="Grupo 83227" transform="translate(96.844 136.809)">
          <g id="Grupo_83218" data-name="Grupo 83218" transform="translate(0.803)">
            <g id="Grupo_83217" data-name="Grupo 83217">
              <path id="Trazado_116244" data-name="Trazado 116244" d="M1031.4,1116.57l-71.743.4a3.182,3.182,0,0,0-3.165,3.2l.205,36.986.033,5.927a2.058,2.058,0,0,0,1.833,2.222l30.791-.171.049,8.807-18.242.1a2.467,2.467,0,0,0-2.453,2.48l20.71-.115,6.049-.034.394,0,6.049-.034,20.709-.115a2.467,2.467,0,0,0-2.481-2.452l-18.242.1-.049-8.807,31.185-.173a2.058,2.058,0,0,0,1.808-2.242l-.033-5.927-.205-36.987A3.182,3.182,0,0,0,1031.4,1116.57Z" transform="translate(-956.492 -1116.56)" fill="#213854"/>
              <path id="Trazado_116245" data-name="Trazado 116245" d="M1091.113,1407.138l-18.243.1-.058-10.414-6.049.034-.393,0-6.049.034.058,10.414-18.242.1a2.466,2.466,0,0,0-2.453,2.48l20.709-.115,6.049-.034.393,0,6.049-.034,20.71-.115A2.466,2.466,0,0,0,1091.113,1407.138Z" transform="translate(-1025.768 -1349.939)" fill="#001333"/>
              <path id="Trazado_116246" data-name="Trazado 116246" d="M1044.966,1156.664l-.206-36.986a3.183,3.183,0,0,0-3.2-3.164l-71.743.4a3.183,3.183,0,0,0-3.166,3.2l.205,36.987Z" transform="translate(-964.952 -1116.514)" fill="#001333"/>
              <path id="Trazado_116247" data-name="Trazado 116247" d="M967.88,1356.991l.033,5.927a2.059,2.059,0,0,0,1.833,2.222l74.468-.413a2.059,2.059,0,0,0,1.808-2.243l-.033-5.927Z" transform="translate(-965.975 -1316.406)" fill="#001333"/>
              <path id="Trazado_116248" data-name="Trazado 116248" d="M1052.236,1163.075l-.2-35.281a1.706,1.706,0,0,0-1.745-1.665l-70.981.394a1.706,1.706,0,0,0-1.726,1.684l.2,35.281Z" transform="translate(-974.059 -1124.521)" fill="#a8e2ff"/>
              <g id="Grupo_83216" data-name="Grupo 83216" transform="translate(7.691 15.798)">
                <path id="Trazado_116249" data-name="Trazado 116249" d="M1008.187,1219.8l-.088-.914a2.539,2.539,0,0,1-.973.8,3.169,3.169,0,0,1-1.331.258,2.847,2.847,0,0,1-2.441-1.219,5.679,5.679,0,0,1-.882-3.382,4.928,4.928,0,0,1,.953-3.224,3.648,3.648,0,0,1,4.619-.586,3.045,3.045,0,0,1,1.117,1.641l-1.489.369a2.185,2.185,0,0,0-.662-.914,1.556,1.556,0,0,0-.961-.3,1.573,1.573,0,0,0-1.424.788,4.483,4.483,0,0,0-.486,2.324,4.377,4.377,0,0,0,.484,2.268,1.53,1.53,0,0,0,1.38.791,1.562,1.562,0,0,0,1.164-.469,2.185,2.185,0,0,0,.565-1.3h-1.635v-1.372h3.253v4.431Z" transform="translate(-1002.472 -1210.964)" fill="#f47458"/>
                <path id="Trazado_116250" data-name="Trazado 116250" d="M1048.1,1220.323l2.632-8.728h2.052l2.626,8.728h-1.641l-.539-1.911h-3.013l-.557,1.911Zm2.509-3.3h2.221l-1.114-3.9Z" transform="translate(-1040.467 -1211.49)" fill="#f47458"/>
                <path id="Trazado_116251" data-name="Trazado 116251" d="M1097.931,1220.323v-8.728h2.35l1.26,4.238q.176.569.3,1.114t.185,1.061q.105-.487.24-1t.328-1.152l1.284-4.261h2.257v8.728h-1.407V1213q-.111.487-.24.967t-.276.961l-1.594,5.393h-1.2l-1.547-5.393q-.241-.844-.343-1.234t-.173-.695v7.321Z" transform="translate(-1081.964 -1211.49)" fill="#f47458"/>
                <path id="Trazado_116252" data-name="Trazado 116252" d="M1158.942,1220.323v-8.728h5.668v1.419h-4.033v2.063h2.937v1.4h-2.937v2.362h4.209v1.489Z" transform="translate(-1132.77 -1211.49)" fill="#f47458"/>
                <path id="Trazado_116253" data-name="Trazado 116253" d="M1220.479,1215.454a5.112,5.112,0,0,1,.961-3.3,3.579,3.579,0,0,1,5.325,0,6.121,6.121,0,0,1,0,6.6,3.558,3.558,0,0,1-5.316,0A5.1,5.1,0,0,1,1220.479,1215.454Zm1.665,0a4.144,4.144,0,0,0,.5,2.248,1.775,1.775,0,0,0,2.919,0,4.144,4.144,0,0,0,.5-2.248,4.218,4.218,0,0,0-.5-2.268,1.764,1.764,0,0,0-2.919,0A4.218,4.218,0,0,0,1222.144,1215.454Z" transform="translate(-1184.014 -1210.964)" fill="#f47458"/>
                <path id="Trazado_116254" data-name="Trazado 116254" d="M1269.52,1220.323l-2.608-8.728h1.647l1.993,7.122,1.97-7.122h1.653l-2.6,8.728Z" transform="translate(-1222.681 -1211.49)" fill="#f47458"/>
                <path id="Trazado_116255" data-name="Trazado 116255" d="M1316.884,1220.323v-8.728h5.668v1.419h-4.033v2.063h2.937v1.4h-2.937v2.362h4.209v1.489Z" transform="translate(-1264.294 -1211.49)" fill="#f47458"/>
                <path id="Trazado_116256" data-name="Trazado 116256" d="M1359.813,1220.323v-8.728h2.954a3.935,3.935,0,0,1,2.468.642,2.725,2.725,0,0,1,.393,3.385,2.134,2.134,0,0,1-1.2.786l1.934,3.915H1364.6l-1.682-3.54h-1.5v3.54Zm1.606-4.924h1.43a1.875,1.875,0,0,0,1.163-.293,1.316,1.316,0,0,0,0-1.835,1.875,1.875,0,0,0-1.163-.293h-1.43Z" transform="translate(-1300.042 -1211.49)" fill="#f47458"/>
              </g>
            </g>
          </g>
          <rect id="Rectángulo_34253" data-name="Rectángulo 34253" width="1.34" height="59.936" transform="translate(133.663 61.286)" fill="#001333"/>
          <rect id="Rectángulo_34254" data-name="Rectángulo 34254" width="134.829" height="6.784" transform="translate(0.253 79.428) rotate(-0.319)" fill="#e6ae5a"/>
          <rect id="Rectángulo_34255" data-name="Rectángulo 34255" width="1.34" height="59.454" transform="translate(19.202 62.06)" fill="#001333"/>
          <g id="Grupo_83220" data-name="Grupo 83220" transform="translate(64.268 38.872)">
            <path id="Trazado_116257" data-name="Trazado 116257" d="M1393.118,1387.954l13.433-3.342s4.722-6.4,9.273-11.928c1.417,1.33,2.24,3.41,3.666,4.726l-10.016,11.676a1.972,1.972,0,0,1-1.438.687l-14.319.423Z" transform="translate(-1383.551 -1368.707)" fill="#f7a491"/>
            <g id="Grupo_83219" data-name="Grupo 83219" transform="translate(0 18.593)">
              <path id="Trazado_116258" data-name="Trazado 116258" d="M1336.346,1462.13c-.142-.217.209-.587.473-.865a11.963,11.963,0,0,1,2.37-1.181,16.5,16.5,0,0,1,3.893.577,3.514,3.514,0,0,0,1.648.182c.26-.054.651-.128.955-.193l.635,2.312c-2.332-.016-4.768.171-4.989.166a8.7,8.7,0,0,1-2.286-.845,2.094,2.094,0,0,0-1.3.175,5.161,5.161,0,0,1-1.78.546C1335.763,1462.9,1336.346,1462.13,1336.346,1462.13Z" transform="translate(-1335.92 -1460.068)" fill="#f7a491"/>
            </g>
            <path id="Trazado_116259" data-name="Trazado 116259" d="M1386.575,1460.4l-.571.112.018,3.23a2.019,2.019,0,0,0,.573.09C1386.656,1463.781,1386.575,1460.4,1386.575,1460.4Z" transform="translate(-1377.627 -1441.748)" fill="#f4f4f4"/>
            <path id="Trazado_116260" data-name="Trazado 116260" d="M1414.906,1348.916c-2.42-.351-12.6,15.609-12.6,15.609l-13.653,2.958.02,3.609,14.936-.688c.02,0,.037-.01.06-.014a5.923,5.923,0,0,0,3.191-1.695c3.1-3.4,10-11.105,10.85-13.057C1418.8,1353.114,1417.326,1349.267,1414.906,1348.916Z" transform="translate(-1379.829 -1348.91)" fill="#001333"/>
          </g>
          <rect id="Rectángulo_34256" data-name="Rectángulo 34256" width="1.34" height="59.454" transform="translate(115.061 62.06)" fill="#001333"/>
          <rect id="Rectángulo_34257" data-name="Rectángulo 34257" width="134.853" height="2.314" transform="matrix(1, -0.006, 0.006, 1, 0.146, 60.067)" fill="#e6ae5a"/>
          <rect id="Rectángulo_34258" data-name="Rectángulo 34258" width="1.34" height="59.454" transform="translate(0.161 62.06)" fill="#001333"/>
          <path id="Trazado_116261" data-name="Trazado 116261" d="M972.647,1477.266l-20.383.113a9.728,9.728,0,0,1-.013-2.313l20.382-.113Z" transform="translate(-952.106 -1414.998)" fill="#cf9048"/>
          <path id="Trazado_116262" data-name="Trazado 116262" d="M972.366,1597.484l-20.528.113a46.027,46.027,0,0,1-.038-6.784l20.528-.113C972.412,1592.914,972.4,1595.174,972.366,1597.484Z" transform="translate(-951.693 -1511.385)" fill="#cf9048"/>
          <g id="Grupo_83222" data-name="Grupo 83222" transform="translate(102.274 14.25)">
            <g id="Grupo_83221" data-name="Grupo 83221">
              <path id="Trazado_116263" data-name="Trazado 116263" d="M1582.712,1297.455l2.722,6.82s-3.488,4.388-6.137,4.229c-2.223-.133-1.41-3.182-1.41-3.182s.255-4.028-.534-5.93S1582.712,1297.455,1582.712,1297.455Z" transform="translate(-1574.918 -1281.439)" fill="#f7a491"/>
              <path id="Trazado_116264" data-name="Trazado 116264" d="M1582.394,1299.776a17.858,17.858,0,0,1-4.517,2.452,9.61,9.61,0,0,0-.524-2.836c-.365-.878.75-1.358,2.054-1.62,1.731-.239,3.305-.317,3.305-.317l.523,1.311A3.6,3.6,0,0,1,1582.394,1299.776Z" transform="translate(-1574.918 -1281.439)" fill="#fe875e"/>
              <path id="Trazado_116265" data-name="Trazado 116265" d="M1574.469,1227.559c.176-.039.106,8.284-2.466,10.3s-7.029,2.276-8.317.33c-1.425-2.152,0-10.95,3.819-12.892S1574.469,1227.559,1574.469,1227.559Z" transform="translate(-1563.143 -1220.922)" fill="#f7a491"/>
              <path id="Trazado_116266" data-name="Trazado 116266" d="M1580.751,1201.838a9.3,9.3,0,0,1,4.642,3.259c1.2.267,2.754,1.08,4.058,3.923,1.6,3.5-.5,6.947-3.211,8.456s-2.727,3.534-2.727,3.534l-.8-1.995a8.393,8.393,0,0,1,1.006-3.07c.768-1.122-.963-2.112-1.332-3.155-.284-.8-.039-2.544-.478-3.869,0,0-2.17-2.081-3.9-2.325C1575.062,1206.181,1577.413,1200.8,1580.751,1201.838Z" transform="translate(-1574.404 -1201.706)" fill="#2d4972"/>
            </g>
            <path id="Trazado_116267" data-name="Trazado 116267" d="M1592.321,1236.146a3.265,3.265,0,0,1,.217,2.041c-.278,1.027-2.3,7.975-1.7,8.773s4.381,2.343,4.381,2.343l1.663-5.7-1.8-7.925Z" transform="translate(-1586.115 -1230)" fill="#2d4972"/>
            <path id="Trazado_116268" data-name="Trazado 116268" d="M1603.549,1221.684a39.682,39.682,0,0,0,3.361-6.083,2.117,2.117,0,0,1,1.343.367c.475.425-1.723,5.6-2.853,7.623Z" transform="translate(-1596.791 -1213.274)" fill="#071521"/>
            <path id="Trazado_116269" data-name="Trazado 116269" d="M1586.569,1249.516a3.2,3.2,0,1,1-3.824-2.41A3.2,3.2,0,0,1,1586.569,1249.516Z" transform="translate(-1577.392 -1239.446)" fill="#dd6652"/>
            <path id="Trazado_116270" data-name="Trazado 116270" d="M1584.348,1250.019a3.2,3.2,0,1,1-3.824-2.41A3.195,3.195,0,0,1,1584.348,1250.019Z" transform="translate(-1575.543 -1239.864)" fill="#f7cc7f"/>
            <path id="Trazado_116271" data-name="Trazado 116271" d="M1589.205,1256.327a1.983,1.983,0,1,1-2.373-1.5A1.983,1.983,0,0,1,1589.205,1256.327Z" transform="translate(-1581.583 -1245.904)" fill="#13375b"/>
            <path id="Trazado_116272" data-name="Trazado 116272" d="M1586.08,1257.043a1.982,1.982,0,0,1,1.133-2.251,1.956,1.956,0,0,0-.38.048,1.983,1.983,0,1,0,.877,3.867,2.006,2.006,0,0,0,.363-.121A1.984,1.984,0,0,1,1586.08,1257.043Z" transform="translate(-1581.583 -1245.912)" fill="#13375b" opacity="0.5" style="mix-blend-mode: multiply;isolation: isolate"/>
          </g>
          <g id="Grupo_83226" data-name="Grupo 83226" transform="translate(65.255 36.093)">
            <g id="Grupo_83223" data-name="Grupo 83223" transform="translate(38.595 71.963)">
              <path id="Trazado_116273" data-name="Trazado 116273" d="M1574.324,1767.5l-1.757-4.945,4.528-.025c.254,3.178.354,5.324.354,5.324l1.169,3.251,1.191,3.864s-3.846,1.014-5.873-.091l.2-3.854Z" transform="translate(-1572.567 -1762.534)" fill="#f7a491"/>
              <path id="Trazado_116274" data-name="Trazado 116274" d="M1580.954,1813.223a6.453,6.453,0,0,0,4.461.037l.259.687,1,3.261s-3.9.989-5.922-.115Z" transform="translate(-1579.381 -1804.745)" fill="#2d4972"/>
            </g>
            <g id="Grupo_83224" data-name="Grupo 83224" transform="translate(0 32.976)">
              <path id="Trazado_116275" data-name="Trazado 116275" d="M1374.309,1782.924s1.276,2.979.236,4.221-5.385,2.483-5.951,3.156a1.873,1.873,0,0,0-.52,1.243l12.215-.414-.157-3.675-1.156-5.533Z" transform="translate(-1363.682 -1739.692)" fill="#f7a491"/>
              <path id="Trazado_116276" data-name="Trazado 116276" d="M1364.389,1815.266s3.147,1.245,4.659.486,1.464-.966,1.9-.689.451,4.007.451,4.007l-13.567.205c-.956-.015-1.444-.714-.671-1.319a11.181,11.181,0,0,1,1.492-.9A43.08,43.08,0,0,1,1364.389,1815.266Z" transform="translate(-1354.282 -1767.192)" fill="#2d4972"/>
              <path id="Trazado_116277" data-name="Trazado 116277" d="M1374.1,1529.461c-1.37-.367-29.967,5.314-32.251,11.64-.371,1.029,4.29,17.255,10.241,32.747l6.225-.991s-.877-15.892-6.286-26.708c3.163.767,20.208-2.845,23.319-5.648C1379.312,1536.926,1375.466,1529.828,1374.1,1529.461Z" transform="translate(-1341.824 -1529.445)" fill="#365e99"/>
            </g>
            <path id="Trazado_116278" data-name="Trazado 116278" d="M1500.788,1631.347s8.88,18.048,10.311,21.354a35.782,35.782,0,0,1,1.838,4.961l5.5-.031s-2.237-20.67-5.849-26.351S1500.788,1631.347,1500.788,1631.347Z" transform="translate(-1474.199 -1579.183)" fill="#365e99"/>
            <g id="Grupo_83225" data-name="Grupo 83225" transform="translate(9.842)">
              <path id="Trazado_116279" data-name="Trazado 116279" d="M1507.073,1333.155l21.635.041a2.3,2.3,0,0,1,2.542,2.582l-7.89,45.178a3.468,3.468,0,0,1-3.442,2.57l-21.635-.041a2.3,2.3,0,0,1-2.543-2.582l7.89-45.178A3.469,3.469,0,0,1,1507.073,1333.155Z" transform="translate(-1479.809 -1333.011)" fill="#e6ae5a"/>
              <path id="Trazado_116280" data-name="Trazado 116280" d="M1404.559,1379.887l15.957-.088,8.227-45.106c.236-1.248,1.767-2.267,3.419-2.276l21.635-.12c1.653-.009,2.8.995,2.565,2.243l-8.917,48.756c-.236,1.248-1.767,2.267-3.42,2.276l-3.912.022-17.722.1-17.8.1c-2.161.012-3.92-1.3-3.929-2.93S1402.4,1379.9,1404.559,1379.887Z" transform="translate(-1400.663 -1332.297)" fill="#f8d18b"/>
            </g>
            <rect id="Rectángulo_34259" data-name="Rectángulo 34259" width="2.262" height="27.845" transform="translate(37.88 81.205) rotate(179.682)" fill="#001333"/>
            <path id="Trazado_116281" data-name="Trazado 116281" d="M1508.724,1826.563l-22.477-.034a1.874,1.874,0,0,0-1.877,1.871h0a.328.328,0,0,0,.327.328l25.571.039a.327.327,0,0,0,.328-.327h0A1.874,1.874,0,0,0,1508.724,1826.563Z" transform="translate(-1460.526 -1743.861)" fill="#001333"/>
            <path id="Trazado_116282" data-name="Trazado 116282" d="M1548.335,1817.779l-2.753.015a1.475,1.475,0,0,0-1.467,1.483h0a1.475,1.475,0,0,0,1.483,1.466l2.753-.016a1.474,1.474,0,0,0,1.467-1.482h0A1.475,1.475,0,0,0,1548.335,1817.779Z" transform="translate(-1510.279 -1736.575)" fill="#001333"/>
          </g>
        </g>
        <g id="Grupo_83229" data-name="Grupo 83229" transform="translate(39.341)">
          <path id="Trazado_116283" data-name="Trazado 116283" d="M779.357,514.092l1.618,4.872-4.932-1.946Z" transform="translate(-747.92 -478.047)" fill="#f79c8d"/>
          <path id="Trazado_116284" data-name="Trazado 116284" d="M749.787,427.42c.329.014,1.23.315,2.547,2.805,1.682,3.18,4.142,12.785,4.142,12.785l-7.34,2.734-.943-2.005L746.639,428.3S749.7,427.416,749.787,427.42Z" transform="translate(-723.434 -405.872)" fill="#dd513a"/>
          <path id="Trazado_116285" data-name="Trazado 116285" d="M642.632,419.143a44.834,44.834,0,0,1,9.7,1.385s1.771,15.22-1.594,26.785c-.753,2.589.623,10.732.623,10.732l-21.75-.287s2.577-19.686,1.606-22.866-.994-14.262-.994-14.262.149-.023,4.887-.842A49.225,49.225,0,0,1,642.632,419.143Z" transform="translate(-625.982 -398.98)" fill="#f47458"/>
          <path id="Trazado_116286" data-name="Trazado 116286" d="M666.718,827.629a18.564,18.564,0,0,0,1.573,6.055,11.605,11.605,0,0,1-.148,4.374c-.047.359-3.273,1.1-4.323.769-.661-.21-1.819-2.995-1.171-5.741a6.721,6.721,0,0,0-.885-4.716Z" transform="translate(-652.755 -739.141)" fill="#f7a491"/>
          <path id="Trazado_116287" data-name="Trazado 116287" d="M647.063,622.622s15.014-.834,18.367,1.2-.606,6.2-.606,6.2-12.223,5.314-32.687,6.5c-4.846.28-5.263-12.635-4.357-13.7S647.063,622.622,647.063,622.622Z" transform="translate(-624.136 -568.141)" fill="#256653"/>
          <path id="Trazado_116288" data-name="Trazado 116288" d="M666.555,874.211c-1.982-.368-2.888-3.835-3.15-4.938-.38-1.6-.357-4.8.306-5.443a2.561,2.561,0,0,0,1.585,1.017c1.341.4,3.371.11,4.156-1.017a9.211,9.211,0,0,1,.325,4.235C669.736,868.436,668.634,874.6,666.555,874.211Z" transform="translate(-653.915 -769.286)" fill="#184655"/>
          <path id="Trazado_116289" data-name="Trazado 116289" d="M622.527,634.107c.6,4.539,3.325,26.268,3.325,26.268a12.178,12.178,0,0,1-5.88.777s-9.24-28.549-8.806-33.06,3.607-4.891,3.607-4.891S620.939,622.091,622.527,634.107Z" transform="translate(-610.607 -568.883)" fill="#3c8f7c"/>
          <path id="Trazado_116290" data-name="Trazado 116290" d="M614.972,438.036c2.034-.763,3.028,17.561,3.3,25.1a88.608,88.608,0,0,0,11.441-.115c.735-.055,2.43-.676,3.161-.772a7.321,7.321,0,0,1,1.8-.085,33.956,33.956,0,0,1,4.21,1.9c.4.418,1.475,1.47,1.293,1.926s-2.071-1.269-2.071-1.269l-.923-.518c1.149,1.123,3.341,2.6,3.025,3.139s-2.285-.975-3.694-2c1.209,1.092,2.71,3.045,2.364,3.35-.311.274-2.019-1.988-3.844-2.639-.677-.241-1.351.427-1.883.508a3.83,3.83,0,0,1-1.379.077l-1.976-.561c-.673.061-.69.459-1.37.6-.789.168-2.084.345-3.09.59-5.788,1.414-7.719,2.071-9.492,2.07C610.477,469.339,610.166,439.839,614.972,438.036Z" transform="translate(-610.966 -414.693)" fill="#f7a491"/>
          <path id="Trazado_116291" data-name="Trazado 116291" d="M608.052,446.714c-.381-7.725-.325-17.247,4.005-18.872,1.709-.641,4.721,3.213,4.179,19.029A32.528,32.528,0,0,1,608.052,446.714Z" transform="translate(-607.904 -406.169)" fill="#dd513a"/>
          <path id="Trazado_116292" data-name="Trazado 116292" d="M718.4,521.153h-.441l-6.636,16.308.457-.07Z" transform="translate(-694.023 -483.927)" fill="#f79c8d"/>
          <path id="Trazado_116293" data-name="Trazado 116293" d="M783.921,824.992c.063,2.711.164,5.894.074,6.278-.043.184-.629.93-.678,1.12,1.067,4.175,4.181,6.247,7.01,7.624-.9-2.046-2.311-4.308-2.449-4.8-.26-.922-.239-2.716,1.315-9.659C787.044,825.669,785.85,826,783.921,824.992Z" transform="translate(-753.976 -736.945)" fill="#f7a491"/>
          <path id="Trazado_116294" data-name="Trazado 116294" d="M769.409,863.829a12.267,12.267,0,0,0-2.9,2.422,1.416,1.416,0,0,0-.557,1.277c.1.318,8.3,7.594,10.485,8.426a1.161,1.161,0,0,0,.712-.048c1.037-.609-1.9-7.183-3.574-8.3C772.493,866.883,771.1,866.632,769.409,863.829Z" transform="translate(-739.503 -769.286)" fill="#184655"/>
          <path id="Trazado_116295" data-name="Trazado 116295" d="M788.9,627.719c.971-2.042,3.178-4.7,7.062-3.1,3.7,1.528,4.7,5.282,3.53,9.126s-8.595,26.322-9.584,30.3a14.843,14.843,0,0,1-5.233-.336s.658-18.269.932-22.594A41.883,41.883,0,0,1,788.9,627.719Z" transform="translate(-755.105 -569.679)" fill="#3c8f7c"/>
          <path id="Trazado_116296" data-name="Trazado 116296" d="M670.448,521.153H649.913a1.339,1.339,0,0,0-1.239.834l-6.323,15.474H631.029a.574.574,0,0,0-.573.575h0a.574.574,0,0,0,.573.575h32.222a2.249,2.249,0,0,0,2.052-1.333l6.367-14.231A1.343,1.343,0,0,0,670.448,521.153Z" transform="translate(-626.684 -483.927)"/>
          <path id="Trazado_116297" data-name="Trazado 116297" d="M792.372,567.565a1.131,1.131,0,1,1-.847-1.479A1.209,1.209,0,0,1,792.372,567.565Z" transform="translate(-759.664 -521.328)" fill="#fff"/>
          <g id="Grupo_83228" data-name="Grupo 83228" transform="translate(10.1)">
            <path id="Trazado_116298" data-name="Trazado 116298" d="M679.715,300.17a15.7,15.7,0,0,1-1.816-.727,9.124,9.124,0,0,0-2.072-.78,4.994,4.994,0,0,0-4.2,1.121c-1.354,1.469-3.761.265-3.276,7.961.549,8.711,5.392,7.755,5.51,7.607s4.32-5.573,4.32-5.573,1.469,3.214,1.469,3.1S687.15,302.674,679.715,300.17Z" transform="translate(-668.285 -298.596)" fill="#0e2e35"/>
            <path id="Trazado_116299" data-name="Trazado 116299" d="M689.873,378.208l.418,3.113s.937,4.484-.268,5.349-5.124-5.477-5.124-5.477l.414-7.887Z" transform="translate(-682.119 -360.81)" fill="#f7a491"/>
            <path id="Trazado_116300" data-name="Trazado 116300" d="M686.573,375.861a8.93,8.93,0,0,0,5.049,4.985l-.355-2.639-4.561-4.9Z" transform="translate(-683.514 -360.809)" fill="#f47458"/>
            <path id="Trazado_116301" data-name="Trazado 116301" d="M686.959,321.73a4.15,4.15,0,0,1,4.78,4.2,31.564,31.564,0,0,1-.35,3.992c-.555,3.593-3.007,6.757-4.627,6.474s-5.7-3.382-4.981-8.5C682.223,324.742,684.279,322.162,686.959,321.73Z" transform="translate(-679.453 -317.816)" fill="#f7a491"/>
            <path id="Trazado_116302" data-name="Trazado 116302" d="M677.183,354.316a1.208,1.208,0,1,1-.918-1.634A1.336,1.336,0,0,1,677.183,354.316Z" transform="translate(-673.731 -343.624)" fill="#f7a491"/>
            <path id="Trazado_116303" data-name="Trazado 116303" d="M680.352,320.939s1.96.487,2.687-.774,3.328-3.981,6.634-2.853-2.909-2.742-3.174-2.742-3.438-.022-3.438-.022-2.446,2.013-2.535,2.233-.794,2.632-.794,2.632Z" transform="translate(-677.818 -311.88)" fill="#0e2e35"/>
          </g>
          <path id="Trazado_116304" data-name="Trazado 116304" d="M704.8,384.2l3.566.682a1.587,1.587,0,0,1-1.917,1.089C704.528,385.658,704.8,384.2,704.8,384.2Z" transform="translate(-688.583 -369.879)" fill="#fff"/>
        </g>
      </g>
      <g id="Grupo_83231" data-name="Grupo 83231" transform="translate(128.312 95.135)">
        <ellipse id="Elipse_4795" data-name="Elipse 4795" cx="31.28" cy="15.571" rx="31.28" ry="15.571" fill="#fef6e9"/>
        <path id="Trazado_116305" data-name="Trazado 116305" d="M1399.208,983.947l14.113,16.183-9.814-23.377Z" transform="translate(-1355.822 -958.456)" fill="#fef6e9"/>
      </g>
    </g>
    <path id="Trazado_116306" data-name="Trazado 116306" d="M228.415,1842.375H586.643a1.386,1.386,0,0,0,1.386-1.386h0a1.386,1.386,0,0,0-1.386-1.386H228.415a1.386,1.386,0,0,0-1.386,1.386h0A1.386,1.386,0,0,0,228.415,1842.375Z" transform="translate(-24.398 -1380.112)" fill="#d0c9fa"/>
  </g>
</svg>
