<svg xmlns="http://www.w3.org/2000/svg" width="369.924" height="378.078" viewBox="0 0 369.924 378.078">
  <g id="Grupo_83356" data-name="Grupo 83356" transform="translate(-95.362 -20.976)">
    <g id="chair" transform="translate(144.873 122.161)">
      <g id="Grupo_83317" data-name="Grupo 83317" transform="translate(84.405 115.265)">
        <path id="Trazado_116524" data-name="Trazado 116524" d="M116.312,55.147s6.1,57.92,28.66,57.92h31.591V55.147Zm54.917,52.2H145.545c-18.334,0-23.3-47.086-23.3-47.086h48.983Z" transform="translate(-112.262 -46.565)" fill="#606f96"/>
        <path id="Trazado_116525" data-name="Trazado 116525" d="M115.873,55.147s6.1,57.92,28.667,57.92h31.584V55.147Zm54.917,52.2H145.113c-18.341,0-23.306-47.086-23.306-47.086H170.79Z" transform="translate(-114.714 -46.565)" fill="#8091bf"/>
        <path id="Trazado_116526" data-name="Trazado 116526" d="M117.46,65.723h5.1c-.52-3.3-.757-5.459-.757-5.459H170.79v5.459h5.334V55.147H115.873S116.347,59.493,117.46,65.723Z" transform="translate(-114.714 -46.565)" fill="#606f96"/>
        <path id="Trazado_116527" data-name="Trazado 116527" d="M187.8,55.261c-1.8-1.956-72.1-1.317-72.1-1.317l1.343,10.333h71.993S189.6,57.217,187.8,55.261Z" transform="translate(-115.697 -53.844)" fill="#2b2923"/>
      </g>
      <path id="Trazado_116528" data-name="Trazado 116528" d="M189.577,112.048l-.105-.626-.086-3.708c-.83-19.994-.994-38.841-1.027-46.711l-.105-4.8a20.309,20.309,0,0,0-20.3-19.862H123.188a20.31,20.31,0,0,0-20.3,20.758c-.079,33.692.494,161.016,34.469,161.016h70.537l-3.444-19.921C193.311,169.955,190.018,120.781,189.577,112.048Z" transform="translate(-102.88 -36.341)" fill="#2b2923"/>
      <path id="Trazado_116529" data-name="Trazado 116529" d="M192.484,112.048l-.119-.626-.145-3.708c-1.172-19.994-1.673-38.841-1.837-46.711l-.191-4.8a20.741,20.741,0,0,0-20.646-19.862H124.785A19.9,19.9,0,0,0,104.838,57.1s.4,26.7,2.134,54.324c.612,9.7,8.4,106.692,35.134,106.692h70.531l-3.78-19.921C197.226,169.955,193.077,120.781,192.484,112.048Z" transform="translate(-92.037 -36.341)" fill="#2b2923"/>
      <g id="Grupo_83318" data-name="Grupo 83318" transform="translate(88.803 261.529)">
        <rect id="Rectángulo_34390" data-name="Rectángulo 34390" width="0.68" height="7.515" transform="translate(5.891 1.133)" fill="#423e36"/>
        <rect id="Rectángulo_34391" data-name="Rectángulo 34391" width="0.68" height="7.515" transform="translate(0 1.133)" fill="#423e36"/>
        <rect id="Rectángulo_34392" data-name="Rectángulo 34392" width="2.696" height="9.781" transform="translate(0.363)" fill="#2b2923"/>
        <rect id="Rectángulo_34393" data-name="Rectángulo 34393" width="2.696" height="9.781" transform="translate(3.535)" fill="#2b2923"/>
        <rect id="Rectángulo_34394" data-name="Rectángulo 34394" width="2.697" height="7.515" transform="translate(2.175 1.133)" fill="#2b2923"/>
        <rect id="Rectángulo_34395" data-name="Rectángulo 34395" width="2.016" height="4.206" transform="translate(0.703 0.553)" fill="#35322b" opacity="0.2" style="mix-blend-mode: screen;isolation: isolate"/>
        <rect id="Rectángulo_34396" data-name="Rectángulo 34396" width="2.243" height="4.206" transform="translate(3.762 0.553)" fill="#35322b" opacity="0.2" style="mix-blend-mode: screen;isolation: isolate"/>
      </g>
      <g id="Grupo_83319" data-name="Grupo 83319" transform="translate(54.687 261.679)">
        <circle id="Elipse_4934" data-name="Elipse 4934" cx="4.815" cy="4.815" r="4.815" fill="#2b2923"/>
        <path id="Trazado_116530" data-name="Trazado 116530" d="M116.7,79.009a2.591,2.591,0,1,1-2.595-2.595A2.59,2.59,0,0,1,116.7,79.009Z" transform="translate(-109.298 -74.192)" fill="#423e36"/>
      </g>
      <g id="Grupo_83320" data-name="Grupo 83320" transform="translate(119.861 261.682)">
        <path id="Trazado_116531" data-name="Trazado 116531" d="M130.709,80.891a4.814,4.814,0,1,1-4.814-4.814A4.812,4.812,0,0,1,130.709,80.891Z" transform="translate(-121.081 -76.077)" fill="#2b2923"/>
        <path id="Trazado_116532" data-name="Trazado 116532" d="M126.6,79.009a2.591,2.591,0,1,1-2.588-2.595A2.589,2.589,0,0,1,126.6,79.009Z" transform="translate(-119.199 -74.195)" fill="#423e36"/>
      </g>
      <rect id="Rectángulo_34397" data-name="Rectángulo 34397" width="81.955" height="6.654" transform="translate(95.415 173.908) rotate(90)" fill="#8091bf"/>
      <rect id="Rectángulo_34398" data-name="Rectángulo 34398" width="81.955" height="2.431" transform="translate(91.193 173.908) rotate(90)" fill="#606f96"/>
      <path id="Trazado_116533" data-name="Trazado 116533" d="M128.082,87.909l5.29-24.925H115.507L120.8,87.909Z" transform="translate(-32.351 112.475)" fill="#606f96"/>
      <path id="Trazado_116534" data-name="Trazado 116534" d="M111.184,82.13h74.8V80.079L155.94,75.065H141.232l-30.048,5.014Z" transform="translate(-56.498 179.951)" fill="#8091bf"/>
      <path id="Trazado_116535" data-name="Trazado 116535" d="M115.481,93.219h18.212l-3.382-21.253H118.863Z" transform="translate(-32.498 162.645)" fill="#8091bf"/>
      <path id="Trazado_116536" data-name="Trazado 116536" d="M127.907,78.646a5.368,5.368,0,0,0,1.765-.237c3.681-1.337,2.924-12.809,2.819-14.113a.552.552,0,0,0-.547-.514l-.046.007a.545.545,0,0,0-.507.593c.342,4.6.079,12.19-2.1,12.987-2.634.935-12.624-2.121-16.26-3.392a.558.558,0,0,0-.369,1.054C113.86,75.438,123.2,78.646,127.907,78.646Z" transform="translate(-50.325 116.931)" fill="#2b2923"/>
      <path id="Trazado_116537" data-name="Trazado 116537" d="M116.488,64.913c2.417.639,6.006,3.22,5.505,5.1s-4.886,2.351-7.31,1.712-3.984-2.687-3.484-4.564S114.065,64.274,116.488,64.913Z" transform="translate(-56.931 122.175)" fill="#2b2923"/>
      <path id="Trazado_116538" data-name="Trazado 116538" d="M142.863,71.966H154.31l-7.168,3.21-2.247,24.26H111.184V97.385l28.272-4.732Z" transform="translate(-56.498 162.645)" fill="#606f96"/>
      <path id="Rectángulo_34399" data-name="Rectángulo 34399" d="M1.7,0H110.376a1.642,1.642,0,0,1,1.642,1.642V21.959a0,0,0,0,1,0,0H0a0,0,0,0,1,0,0V1.7A1.7,1.7,0,0,1,1.7,0Z" transform="translate(36.079 159.817)" fill="#2b2923"/>
      <path id="Trazado_116539" data-name="Trazado 116539" d="M119.183,60.609a11.014,11.014,0,0,0-10.761,9.121H219.684a10.676,10.676,0,0,0-10.478-9.121Z" transform="translate(-71.927 99.208)" fill="#322f28"/>
      <path id="Trazado_116540" data-name="Trazado 116540" d="M200.479,169.527a456.387,456.387,0,0,1-7.995-57.478l-.119-.626-.145-3.708c-1.172-19.994-1.666-38.841-1.837-46.711l-.191-4.8a20.741,20.741,0,0,0-20.646-19.862H124.785A19.9,19.9,0,0,0,104.838,57.1s.4,26.7,2.134,54.324A471.923,471.923,0,0,0,113.1,160c13.118,13.072,30.451,21.1,49.53,21.1A68.509,68.509,0,0,0,200.479,169.527Z" transform="translate(-92.037 -36.341)" fill="#322f28"/>
      <rect id="Rectángulo_34400" data-name="Rectángulo 34400" width="75.776" height="34.279" rx="1.806" transform="translate(17.534 6.653)" fill="#322f28" opacity="0.2" style="mix-blend-mode: screen;isolation: isolate"/>
    </g>
    <g id="Grupo_83337" data-name="Grupo 83337" transform="translate(95.362 20.976)">
      <path id="Trazado_116541" data-name="Trazado 116541" d="M134.345,47.01c-.619,7.1-5.407,12.48-10.688,12.012s-9.062-6.586-8.443-13.685,5.407-12.473,10.688-12.012S134.964,39.918,134.345,47.01Z" transform="translate(15.152 47.846)" fill="#322f28"/>
      <path id="Trazado_116542" data-name="Trazado 116542" d="M127.2,36.1s7.606-1.976,9.766-5.815l-6.823-6.763-6.862,10.7Z" transform="translate(60.557 -6.745)" fill="#ed9558"/>
      <path id="Trazado_116543" data-name="Trazado 116543" d="M123.4,36.71c.7-2.47,1.521-4.241,5.2-8.054s5.433-6.408,6.25-5.868-.026,2.733-1.488,4.649c-3.293,4.3.3,8.989-5.986,12.381S123.4,36.71,123.4,36.71Z" transform="translate(58.911 -11.252)" fill="#ed9558"/>
      <path id="Trazado_116544" data-name="Trazado 116544" d="M124.126,28.431c-.889-1.607,4.34-6.605,6.052-4.682.8.9-.151,1.771-1.679,2.944C126.786,28.016,124.725,29.518,124.126,28.431Z" transform="translate(64.733 -7.912)" fill="#ffb476"/>
      <path id="Trazado_116545" data-name="Trazado 116545" d="M124.15,29.131c-.52-.856,1.271-2.674,3.233-4.05,1.64-1.152,3.115-1.93,3.932-1.093.922.942-.54,2.437-2.535,3.78C126.883,29.039,124.75,30.1,124.15,29.131Z" transform="translate(64.926 -6.116)" fill="#ffb476"/>
      <path id="Trazado_116546" data-name="Trazado 116546" d="M124.248,29.492c-.52-.85,1.139-2.312,3.108-3.688,1.646-1.146,3.517-2.4,4.333-1.561.935.961-.731,2.562-2.779,3.905C127.04,29.373,124.827,30.447,124.248,29.492Z" transform="translate(65.441 -4.251)" fill="#ffb476"/>
      <path id="Trazado_116547" data-name="Trazado 116547" d="M124.53,28.48c-.27-.724.83-1.554,2.6-2.647,1.376-.856,2.443-2.246,3.148-1.106.533.863-.678,2.549-2.371,3.286S124.846,29.343,124.53,28.48Z" transform="translate(67.326 -2.429)" fill="#ffb476"/>
      <path id="Trazado_116548" data-name="Trazado 116548" d="M108.129,36.928s-4.926.619-7.725-2.41c-2.983-3.233,5.2-11.143,5.2-11.143l4.979,11.795Z" transform="translate(-70.856 -7.578)" fill="#ed9558"/>
      <g id="Grupo_83327" data-name="Grupo 83327">
        <path id="Trazado_116549" data-name="Trazado 116549" d="M97.666,21.344a2.394,2.394,0,0,1,1.679-.323c.9.2,3.853,1.027,3.853,1.027l.23,1.554S98,23.2,97.666,21.344Z" transform="translate(-82.493 -20.976)" fill="#2b2923"/>
        <path id="Trazado_116550" data-name="Trazado 116550" d="M105.509,24.757a2.373,2.373,0,0,0-1.08-1.33c-.817-.421-3.556-1.758-3.556-1.758l-1.232,1.093S104.06,25.962,105.509,24.757Z" transform="translate(-71.462 -17.112)" fill="#2b2923"/>
        <g id="Grupo_83321" data-name="Grupo 83321" transform="translate(0 0.365)">
          <path id="Trazado_116551" data-name="Trazado 116551" d="M129.389,28.35a32.237,32.237,0,0,0-4.011-2.232l-.738.408L120.2,24.8l-.481-.184-4.452-1.725-.263-.8a31.969,31.969,0,0,0-4.465-1.06c-7.185-.2-17.722,14.64-14.613,17.722,3.536,3.5,7.949-1.462,11.88-1.831l12.888,5c2.654,2.924,2.575,9.562,7.54,9.358C132.6,51.11,134.829,33.039,129.389,28.35Z" transform="translate(-95.362 -21.032)" fill="#ead8e2"/>
        </g>
        <path id="Trazado_116552" data-name="Trazado 116552" d="M102.241,24.9a2.642,2.642,0,1,1-1.508-3.418A2.641,2.641,0,0,1,102.241,24.9Z" transform="translate(-85.455 -19.146)" fill="#2b2923"/>
        <path id="Trazado_116553" data-name="Trazado 116553" d="M104.013,26.653a2.642,2.642,0,1,1-1.508-3.418A2.641,2.641,0,0,1,104.013,26.653Z" transform="translate(-75.558 -9.355)" fill="#2b2923"/>
        <path id="Trazado_116554" data-name="Trazado 116554" d="M100.347,26.183l1.587.612a2.632,2.632,0,0,0,.507-.784,2.664,2.664,0,0,0,.158-.922l-1.587-.619.566-1.462a2.354,2.354,0,0,0-.645-.415,2.544,2.544,0,0,0-.757-.132L99.6,23.924l-1.587-.612a2.567,2.567,0,0,0-.5.79,2.5,2.5,0,0,0-.158.922l1.587.612L98.371,27.1a2.675,2.675,0,0,0,.652.415,2.5,2.5,0,0,0,.757.125Z" transform="translate(-84.219 -12.677)" fill="#2b2923"/>
        <g id="Grupo_83322" data-name="Grupo 83322" transform="translate(28.776 8.611)">
          <path id="Trazado_116555" data-name="Trazado 116555" d="M102.207,23.754a1.078,1.078,0,1,1-.612-1.4A1.075,1.075,0,0,1,102.207,23.754Z" transform="translate(-97.542 -22.284)" fill="#2b2923"/>
          <path id="Trazado_116556" data-name="Trazado 116556" d="M102.207,23.754a1.078,1.078,0,1,1-.612-1.4A1.075,1.075,0,0,1,102.207,23.754Z" transform="translate(-97.542 -22.284)" fill="#2b2923"/>
          <path id="Trazado_116557" data-name="Trazado 116557" d="M101.988,24.313a1.077,1.077,0,1,1-.612-1.39A1.072,1.072,0,0,1,101.988,24.313Z" transform="translate(-98.765 -19.128)" fill="#2b2923"/>
          <path id="Trazado_116558" data-name="Trazado 116558" d="M100.983,24.759a1.078,1.078,0,1,1,1.4-.612A1.079,1.079,0,0,1,100.983,24.759Z" transform="translate(-96.576 -20.094)" fill="#2b2923"/>
          <path id="Trazado_116559" data-name="Trazado 116559" d="M100.418,24.54a1.078,1.078,0,1,1,1.4-.619A1.079,1.079,0,0,1,100.418,24.54Z" transform="translate(-99.732 -21.317)" fill="#2b2923"/>
          <path id="Trazado_116560" data-name="Trazado 116560" d="M101.263,23.108a.542.542,0,0,1-.7.316.547.547,0,1,1,.4-1.021A.539.539,0,0,1,101.263,23.108Z" transform="translate(-97.093 -21.835)" fill="#ffc83e"/>
          <path id="Trazado_116561" data-name="Trazado 116561" d="M100.871,23.283a.542.542,0,0,1-.7.316.55.55,0,1,1,.7-.316Z" transform="translate(-99.282 -20.871)" fill="#40c9ff"/>
          <path id="Trazado_116562" data-name="Trazado 116562" d="M101.441,23.5a.552.552,0,0,1-1.027-.4.546.546,0,0,1,.711-.31A.553.553,0,0,1,101.441,23.5Z" transform="translate(-96.118 -19.707)" fill="#e82e37"/>
          <path id="Trazado_116563" data-name="Trazado 116563" d="M101.049,23.664a.55.55,0,0,1-.711.316.55.55,0,1,1,.711-.316Z" transform="translate(-98.308 -18.743)" fill="#bae533"/>
        </g>
        <g id="Grupo_83324" data-name="Grupo 83324" transform="translate(19.167 7.999)">
          <path id="Trazado_116564" data-name="Trazado 116564" d="M99.837,23.291a.809.809,0,1,1-.461-1.047A.81.81,0,0,1,99.837,23.291Z" transform="translate(-98.273 -22.191)" fill="#2b2923"/>
          <path id="Trazado_116565" data-name="Trazado 116565" d="M100.646,23.607a.812.812,0,0,1-1.515-.586.812.812,0,0,1,1.515.586Z" transform="translate(-93.774 -20.446)" fill="#2b2923"/>
          <g id="Grupo_83323" data-name="Grupo 83323" transform="translate(0.306 0.304)">
            <path id="Trazado_116566" data-name="Trazado 116566" d="M99.294,22.922A.5.5,0,1,1,99,22.27.511.511,0,0,1,99.294,22.922Z" transform="translate(-98.319 -22.237)" fill="#f4e4ec"/>
            <path id="Trazado_116567" data-name="Trazado 116567" d="M100.1,23.234a.5.5,0,1,1-.29-.652A.512.512,0,0,1,100.1,23.234Z" transform="translate(-93.827 -20.494)" fill="#f4e4ec"/>
          </g>
        </g>
        <path id="Trazado_116568" data-name="Trazado 116568" d="M127.569,43.131c-2.944-.033-5.2-6.586-6-7.521s-11.933-5.249-13.843-5.433-10.431,4.584-12.335.369a2.866,2.866,0,0,0,1.89,2.944c3.266,1.39,7.079-2.45,10.517-2.772l12.888,5c2.654,2.924,2.575,9.562,7.54,9.358,4.373-.171,6.6-18.242,1.159-22.931C133.964,29.308,131.349,43.177,127.569,43.131Z" transform="translate(-95.36 -14.459)" fill="#ceb2ca"/>
        <g id="Grupo_83325" data-name="Grupo 83325" transform="translate(12.055 2.492)">
          <path id="Trazado_116569" data-name="Trazado 116569" d="M101.239,24.209a2.094,2.094,0,1,1-1.192-2.713A2.091,2.091,0,0,1,101.239,24.209Z" transform="translate(-97.193 -21.355)" fill="#56534e"/>
          <path id="Trazado_116570" data-name="Trazado 116570" d="M100.045,23.4a1.423,1.423,0,1,1-.81-1.844A1.42,1.42,0,0,1,100.045,23.4Z" transform="translate(-96.624 -20.786)" fill="#2b2923"/>
        </g>
        <g id="Grupo_83326" data-name="Grupo 83326" transform="translate(23.692 13.955)">
          <path id="Trazado_116571" data-name="Trazado 116571" d="M103.005,25.945a2.094,2.094,0,1,1-1.2-2.707A2.088,2.088,0,0,1,103.005,25.945Z" transform="translate(-98.96 -23.095)" fill="#56534e"/>
          <path id="Trazado_116572" data-name="Trazado 116572" d="M101.812,25.131a1.423,1.423,0,1,1-.81-1.837A1.428,1.428,0,0,1,101.812,25.131Z" transform="translate(-98.391 -22.525)" fill="#2b2923"/>
        </g>
        <path id="Trazado_116573" data-name="Trazado 116573" d="M98.384,21.3,99,23.774l6.422,2.421,2.432-1.244Z" transform="translate(-78.483 -19.141)" fill="#2b2923"/>
        <path id="Trazado_116574" data-name="Trazado 116574" d="M95.873,31.33c-1.646-1.251,5.367-10.675,7.033-9.378C106.258,24.553,99.133,33.819,95.873,31.33Z" transform="translate(-93.898 -16.21)" fill="#fcf0f7"/>
      </g>
      <path id="Trazado_116575" data-name="Trazado 116575" d="M171.067,143.327s-27.975-36.872-37.676-55.437c-7.349-14.073-27.218-63.01-27.218-63.01l-5.222,3.675s6.125,44.182,19.177,70.188S157.3,159.916,157.3,159.916Z" transform="translate(-64.145 0.829)" fill="#ffb476"/>
      <path id="Trazado_116576" data-name="Trazado 116576" d="M101.975,25.335l-1.034.415S107.131,70.2,120.184,96.2c4.807,9.575,11.11,20.382,17.162,30.234l5.288-3.938A158.945,158.945,0,0,1,121.2,85.961C112.953,66.014,103.147,29.642,101.975,25.335Z" transform="translate(-64.201 3.37)" fill="#ed9558"/>
      <path id="Trazado_116577" data-name="Trazado 116577" d="M113.83,139.048s27.238-32.118,36.385-50.965c6.935-14.284,24.307-63.241,24.307-63.241l5.44,3.9s-4.347,43.4-16.622,69.774S126.9,156.486,126.9,156.486Z" transform="translate(7.791 0.616)" fill="#ffb476"/>
      <path id="Trazado_116578" data-name="Trazado 116578" d="M138.739,89.725C131.8,105.234,117.9,123.661,117.9,123.661l3.984,4.86c6.572-10.063,13.645-21.8,18.709-32.671,12.275-26.375,16.622-69.774,16.622-69.774l-1.054-.757C155.374,28.73,145.4,74.816,138.739,89.725Z" transform="translate(30.535 3.281)" fill="#ed9558"/>
      <path id="Trazado_116579" data-name="Trazado 116579" d="M139.527,52.884,124.711,38.105,105.794,55.525l14.775,21.606Z" transform="translate(-37.092 74.699)" fill="#f4e4ec"/>
      <g id="Grupo_83328" data-name="Grupo 83328" transform="translate(197.743 363.086)">
        <path id="Trazado_116580" data-name="Trazado 116580" d="M146.4,87.159c-.441-.955-1.93-.83-8.443-3.28-7.349-2.759-7.231-5.743-7.2-7.461.007-.751-4.037.046-4,.533.408,5.789-1.976,8.008-1.2,10.115.711,1.943,12.275,1.883,14.291,1.844C141.648,88.878,147.179,88.858,146.4,87.159Z" transform="translate(-125.389 -76.11)" fill="#ed9558"/>
        <path id="Trazado_116581" data-name="Trazado 116581" d="M141.293,79.14c-.119.612-1.12,1.409-5.887,1-7.382-.639-9.312-2.97-9.312-2.97h-.02c-.474,1.679-.935,2.858-.527,3.971.711,1.943,12.275,1.883,14.291,1.844,1.811-.033,7.343-.053,6.559-1.752C146.041,80.47,144.98,80.378,141.293,79.14Z" transform="translate(-125.389 -70.185)" fill="#2d313d"/>
      </g>
      <g id="Grupo_83329" data-name="Grupo 83329" transform="translate(173.497 363.086)">
        <path id="Trazado_116582" data-name="Trazado 116582" d="M142.633,87.159c-.349-.955-1.844-.83-8.133-3.28-7.086-2.759-6.684-5.743-6.5-7.461.079-.751-4.043.046-4.057.533-.138,5.789-2.726,8.008-2.153,10.115.533,1.943,12.1,1.883,14.119,1.844C137.727,88.878,143.259,88.858,142.633,87.159Z" transform="translate(-121.707 -76.11)" fill="#ffb476"/>
        <path id="Trazado_116583" data-name="Trazado 116583" d="M137.734,79.14c-.184.612-1.258,1.409-5.986,1-7.317-.639-9.035-2.97-9.035-2.97h-.02c-.632,1.679-1.205,2.858-.9,3.971.533,1.943,12.1,1.883,14.119,1.844,1.818-.033,7.35-.053,6.724-1.752C142.357,80.47,141.3,80.378,137.734,79.14Z" transform="translate(-121.707 -70.185)" fill="#2d313d"/>
      </g>
      <path id="Trazado_116584" data-name="Trazado 116584" d="M149.5,57.42s8.186,5.624,4.1,20.711H120.357S121.378,57.17,149.5,57.42Z" transform="translate(44.248 182.568)" fill="#303047"/>
      <path id="Trazado_116585" data-name="Trazado 116585" d="M203.727,199.445h-7.56C192,184.074,184.129,144.35,183.642,129.79a175.336,175.336,0,0,1,2.351-33.738H113.941c-2.891-1.245-1.765-26.382,10.853-37.083,9.582-8.127,34.785-3.385,34.785-3.385,16.912,8.838,43.5,13.691,46.9,27.6,2.292,9.378-.191,26.434-1.311,59.691C204.419,165.339,203.747,189.751,203.727,199.445Z" transform="translate(1.036 164.647)" fill="#007ca0"/>
      <path id="Trazado_116586" data-name="Trazado 116586" d="M114.286,52.555A59.046,59.046,0,0,0,131.31,37.981l14.962,17.406L131.81,76.012Z" transform="translate(10.338 74.004)" fill="#f4e4ec"/>
      <path id="Trazado_116587" data-name="Trazado 116587" d="M117.719,56.987l6.981-1.8C150.686,66.74,163.791,66.213,168.546,76.4c2.852,6.118-6.026,52.217-7.942,86.251-2.674-12.908-5.189-30.787-5.44-38.334a175.337,175.337,0,0,1,2.351-33.738H119.431Z" transform="translate(29.513 170.12)" fill="#006b91"/>
      <path id="Trazado_116588" data-name="Trazado 116588" d="M156.428,58.689c21.3,8.146,56.28,10.082,57.129,24.077.606,9.984-3.741,25.078-7.988,58.335-2.865,22.463-5.163,46.869-6.092,56.57h-7.771c-2.726-15.371-7.317-55.094-6.434-69.655A181.429,181.429,0,0,1,190.8,94.277H114.985c-12.69-10.761-.421-39.75-.421-39.75Z" transform="translate(-17.882 166.422)" fill="#099ebf"/>
      <path id="Trazado_116589" data-name="Trazado 116589" d="M109.788,71.038,122.7,58.288s29.51,9.345,71.822,8.476c0,0-7.284,23.517-8.153,40.534-.731,14.291,4.853,57.472,6.217,69.365H188.61c-2.726-15.371-7.317-55.094-6.434-69.655A181.428,181.428,0,0,1,187.7,73.27H111.889A13.7,13.7,0,0,1,109.788,71.038Z" transform="translate(-14.786 187.429)" fill="#007ca0"/>
      <path id="Trazado_116590" data-name="Trazado 116590" d="M109.731,79.911s18.505-11.847,32.361-20.817l.869.086c.079-.066.138-.145.217-.211,9.582-8.127,34.785-3.385,34.785-3.385,1.376.724,7.27,3.378,7.277,3.385s-12.545-.29-15.469,5.743a44.91,44.91,0,0,0-34.884,9.819c-11.538,9.582-13.606,17.827-19.408,21.522h-1.027c-4.07-3.471-4.024-5.1-5.123-10.326C110.831,84.225,109.731,79.911,109.731,79.911Z" transform="translate(-17.35 164.647)" fill="#006b91"/>
      <path id="Trazado_116591" data-name="Trazado 116591" d="M164.86,70.33s9.128-16.582,6.059-24.083C164.4,30.29,145.439,27.036,144.385,29.5c-10.524-5.17-23.53,2.792-28.436,8.746C98.86,58.963,113.15,90.883,133.6,89.928,165.13,98.18,164.86,70.33,164.86,70.33Z" transform="translate(-22.811 17.316)" fill="#c73700"/>
      <path id="Trazado_116592" data-name="Trazado 116592" d="M120.278,104.865c-.744-10.886-17.774-34.679-10.543-57.492h0c4.274-1.8,8.113-3.22,11.795-4.406,14.442-4.616,25.763-4.241,44.452,3.912.119,2.015.751,12.743.869,14.738,1.521,3.767,4.228,12.354,3.536,16.385-1.093,6.408-13.764,18.1-13.395,25.525.876,17.965,25.868,29.7,34.021,33.217-54.851-1.851-58.288,36.5-73.488,33.211C106.139,137.838,121.193,118.385,120.278,104.865Z" transform="translate(-25.052 85.271)" fill="#f4e4ec"/>
      <path id="Trazado_116593" data-name="Trazado 116593" d="M110.795,41.423c2.18,8.337,10.069,17.32,19.329,15.417,5.65-1.166,6.664-13.744,5.315-16.826L133.785,41.2S115.826,39.211,110.795,41.423Z" transform="translate(-9.161 85.36)" fill="#ed9558"/>
      <path id="Trazado_116594" data-name="Trazado 116594" d="M111.009,35.013s4.952,20.883-.092,35.147L125.3,73.038l8.515-1.047a60.526,60.526,0,0,1-1.837-21.166C132.735,41.994,111.009,35.013,111.009,35.013Z" transform="translate(-8.48 57.427)" fill="#ed9558"/>
      <path id="Trazado_116595" data-name="Trazado 116595" d="M132.659,50.825c.757-8.831-20.968-15.812-20.968-15.812s4.663,19.757.263,33.962a7.718,7.718,0,0,0-1.159.382c1.831,5.1,4.656,9.97,8.713,12.42a64.447,64.447,0,0,0,13.823-15.14A62.587,62.587,0,0,1,132.659,50.825Z" transform="translate(-9.161 57.427)" fill="#d1652f"/>
      <path id="Trazado_116596" data-name="Trazado 116596" d="M139.167,89.459c2.147-.329,5.235-4.379,7.257-6.5,4.294-4.5,8.219-9.938,4.992-21.324,0,0,7.718-29.944-16.694-31.551S107.3,52.738,113.365,70.657,137.126,89.775,139.167,89.459Z" transform="translate(-9.835 29.468)" fill="#ffb476"/>
      <path id="Trazado_116597" data-name="Trazado 116597" d="M128.559,30.057C111.6,33.751,111.16,85.823,139.412,89.1a2.349,2.349,0,0,1-.257.086c-2.041.316-19.737-.882-25.8-18.8C107.848,54.114,109.876,32.678,128.559,30.057Z" transform="translate(-9.823 29.745)" fill="#ed9558"/>
      <path id="Trazado_116598" data-name="Trazado 116598" d="M120.256,33.243s-4.643,4.452-3.681,10.313a8.935,8.935,0,0,0,5.953,7.244s-1.192,4.215-5.038,4.241,3-3.945,3-3.945-5.216-3.174-5.743-7.422C114,37.629,120.256,33.243,120.256,33.243Z" transform="translate(12.58 47.54)" fill="#ed9558"/>
      <path id="Trazado_116599" data-name="Trazado 116599" d="M115.7,33.677c.118,1.014,2.134.507,5.828,2.43,3.378,1.765,3.233,2.595,3.787,2.8s1.008-2.555-2.931-4.669C118.584,32.2,115.535,32.208,115.7,33.677Z" transform="translate(18.197 44.13)" fill="#c73700"/>
      <path id="Trazado_116600" data-name="Trazado 116600" d="M124.054,33.906c.007.606-2.792.27-6.658,1.831-3.53,1.422-5.209,3.773-5.426,3.207s.632-3.431,4.755-5.156C120.708,32.122,124.054,32.273,124.054,33.906Z" transform="translate(-2.769 43.992)" fill="#c73700"/>
      <path id="Trazado_116601" data-name="Trazado 116601" d="M121.051,32.391l1.745,1.245c5.677-4.136,15.206-6.809,27.468.053,0,0-1.027,4.821-8.271,6.395-14.62,3.187-20.415,3.9-24.867,13.27-.151,6.79.85,12.486-.784,12.822-1.087.224-3.7-1.778-3.7-1.778S103.658,35.414,121.051,32.391Z" transform="translate(-11.804 26.528)" fill="#c73700"/>
      <g id="Grupo_83330" data-name="Grupo 83330" transform="translate(96.392 91.373)">
        <path id="Trazado_116602" data-name="Trazado 116602" d="M110,40.021a5.176,5.176,0,1,0,5.183-5.17A5.177,5.177,0,0,0,110,40.021Z" transform="translate(-109.999 -34.851)" fill="#ed9558"/>
        <path id="Trazado_116603" data-name="Trazado 116603" d="M113.635,35.127a3.328,3.328,0,0,1,1.962.7,2.846,2.846,0,0,0-.889-.178A2.875,2.875,0,0,0,114.7,41.4a2.63,2.63,0,0,0,.691-.138,3.219,3.219,0,0,1-1.765.573,3.355,3.355,0,1,1,.007-6.711Z" transform="translate(-108.452 -33.309)" fill="#d1652f"/>
      </g>
      <path id="Trazado_116604" data-name="Trazado 116604" d="M111.32,44.531a11.256,11.256,0,0,0,5.038-1,8.707,8.707,0,0,0,1.8-1.073c6.151-4.893,15.127-6.375,22.687-7.613,5.947-.968,7.5-3.754,7.9-4.9.217-.086.441.191.441.191a16.011,16.011,0,0,0,1.567,2.193c-.724,1.495-2.674,4.136-7.843,5.262-14.613,3.187-20.409,3.9-24.86,13.263-.151,6.79.843,12.493-.79,12.829-1.087.224-3.7-1.778-3.7-1.778C111.814,62.193,108.343,53.395,111.32,44.531Z" transform="translate(-12.728 29.021)" fill="#c73700"/>
      <path id="Trazado_116605" data-name="Trazado 116605" d="M155.825,41.277c-.072-6.592-15.7-16.246-29.128-12.269-12.387,3.675-21.673,22.266-16.042,27.547,2.252,2.114,8.337-5.124,27.383-9.615C146.764,44.886,155.872,45.242,155.825,41.277Z" transform="translate(-19.348 18.689)" fill="#d64900"/>
      <path id="Trazado_116606" data-name="Trazado 116606" d="M123.648,41.377c5.018-3.662-4.913-12.763-6.823-11.729S120.165,43.919,123.648,41.377Z" transform="translate(22.253 27.006)" fill="#d64900"/>
      <g id="Grupo_83331" data-name="Grupo 83331" transform="translate(120.152 105.014)">
        <path id="Trazado_116607" data-name="Trazado 116607" d="M128.586,37.389l-14.929-.415s2.384,6.691,7.415,6.829S128.586,37.389,128.586,37.389Z" transform="translate(-113.327 -36.635)" fill="#562824"/>
        <path id="Trazado_116608" data-name="Trazado 116608" d="M125.591,37.369l-11.768-.3s3.154,1.877,10.833,1.857Z" transform="translate(-112.4 -36.082)" fill="#efe5d8"/>
        <path id="Trazado_116609" data-name="Trazado 116609" d="M113.931,37.785c1.218,1.7,3.082,3.424,5.611,3.5a5.678,5.678,0,0,0,2.8-.672A7.243,7.243,0,0,0,113.931,37.785Z" transform="translate(-111.797 -34.113)" fill="#a52131"/>
        <path id="Trazado_116610" data-name="Trazado 116610" d="M114.036,36.992c.165.112.356.435.3.514s-.422.007-.586-.105a.269.269,0,0,1-.105-.375A.261.261,0,0,1,114.036,36.992Z" transform="translate(-113.607 -36.922)" fill="#562824"/>
        <path id="Trazado_116611" data-name="Trazado 116611" d="M116.468,37.482c-.178.086-.553.092-.593.013s.2-.375.382-.461a.252.252,0,1,1,.211.448Z" transform="translate(-100.959 -36.524)" fill="#562824"/>
      </g>
      <g id="Grupo_83334" data-name="Grupo 83334" transform="translate(109.53 85.019)">
        <g id="Grupo_83332" data-name="Grupo 83332" transform="translate(0 0.045)">
          <path id="Trazado_116612" data-name="Trazado 116612" d="M122.321,34.978s-.487,2.628-5.334,2.147c-4.175-.421-5.42-2.753-4.2-2.364S122.321,34.978,122.321,34.978Z" transform="translate(-110.059 -29.288)" fill="#562824"/>
          <path id="Trazado_116613" data-name="Trazado 116613" d="M124.533,38.121l-10.208.619-2.331-.3C113.067,35.045,123.486,30.337,124.533,38.121Z" transform="translate(-111.994 -33.893)" fill="#562824"/>
          <path id="Trazado_116614" data-name="Trazado 116614" d="M122.264,37.2c-.217-1.534-1.409-3.457-4.715-3.075-3.345.382-5.887,3.023-5.012,4.465C114.078,41.133,122.929,41.93,122.264,37.2Z" transform="translate(-109.936 -32.901)" fill="#f4e6e1"/>
          <path id="Trazado_116615" data-name="Trazado 116615" d="M119.819,38.683a3,3,0,0,0,.158-.8,3.635,3.635,0,1,0-7.27-.066,3.42,3.42,0,0,0,.4,1.613C115.064,40.409,118.706,40.158,119.819,38.683Z" transform="translate(-108.017 -32.15)" fill="#562824"/>
        </g>
        <g id="Grupo_83333" data-name="Grupo 83333" transform="translate(23.128)">
          <path id="Trazado_116616" data-name="Trazado 116616" d="M115.523,34.754s-.092,2.773,4.748,2.213c2.937-.336,3.892-2.595,2.667-2.233S115.523,34.754,115.523,34.754Z" transform="translate(-115.411 -29.368)" fill="#562824"/>
          <path id="Trazado_116617" data-name="Trazado 116617" d="M115.506,37.751l8.048.237,1.666-.639C123.547,33.187,116.784,32.153,115.506,37.751Z" transform="translate(-115.506 -33.886)" fill="#562824"/>
          <path id="Trazado_116618" data-name="Trazado 116618" d="M115.577,36.943c.3-1.528,1.916-3.326,4.979-2.792,3.181.56,3.655,3.378,3.036,4.34C121.833,41.217,114.727,41.394,115.577,36.943Z" transform="translate(-115.504 -32.946)" fill="#f4e6e1"/>
          <path id="Trazado_116619" data-name="Trazado 116619" d="M119.084,34.19a3.43,3.43,0,0,0-3.457,3.392,3.275,3.275,0,0,0,.349,1.436c1.185,1.179,5.137.9,6.335-.547a2.9,2.9,0,0,0,.165-.823A3.426,3.426,0,0,0,119.084,34.19Z" transform="translate(-114.83 -32.189)" fill="#562824"/>
        </g>
      </g>
      <path id="Trazado_116620" data-name="Trazado 116620" d="M136.451,31.46S118.189,33.7,115.068,52.3c-1.561,9.345-1.093,26.783,5.387,29.49,0,0-8.811.461-8.35-15.16.342-11.373,2.338-20.02-1.205-27.876C116.293,34.4,131.558,29.807,136.451,31.46Z" transform="translate(-8.58 35.658)" fill="#c73700"/>
      <path id="Trazado_116621" data-name="Trazado 116621" d="M111.22,34.845c-.659-2.8-4.827-9.114-5.637-9.806-1.883-1.488-4.768-2.45-5.42-1.541-.751,1.054,2.522,2.292,3.536,3.6s-.389,6.276,2.95,10.161C109.673,40.778,111.22,34.845,111.22,34.845Z" transform="translate(-69.165 -8.866)" fill="#ffb476"/>
      <path id="Trazado_116622" data-name="Trazado 116622" d="M98.882,25.078c.132-1.732,4.886-.659,4.7.955C103.386,27.693,98.743,27.041,98.882,25.078Z" transform="translate(-75.721 -3.011)" fill="#ffb476"/>
      <path id="Trazado_116623" data-name="Trazado 116623" d="M99.082,25.466c.158-1.739,4.893-.6,4.682,1.021C103.547,28.139,98.911,27.421,99.082,25.466Z" transform="translate(-74.611 -0.765)" fill="#ffb476"/>
      <path id="Trazado_116624" data-name="Trazado 116624" d="M99.431,25.882c.066-1.271,2.931-1.12,2.825.079C102.151,27.186,99.352,27.317,99.431,25.882Z" transform="translate(-72.642 1.46)" fill="#ffb476"/>
      <path id="Trazado_116625" data-name="Trazado 116625" d="M120.572,66.016c2.312,16,11.215,30.484,11.749,38.308.915,13.52-14.139,32.974-2.753,65.091,15.2,3.293,18.637-35.061,73.488-33.211-8.153-3.517-33.145-15.252-34.021-33.217-.369-7.422,12.3-19.118,13.395-25.525.026-.158.02-.362.04-.533a36.829,36.829,0,0,1-17.34,6.948c-32.388,4.9-36.741-22.858-36.741-22.858L110.483,40.1l-4.689,4.32,14.778,21.6Z" transform="translate(-37.094 85.812)" fill="#eacce4"/>
      <path id="Trazado_116626" data-name="Trazado 116626" d="M119.451,28.964c-15.16,14.475-13.8,38.426-2.641,75.444s6.809,51.709,6.809,51.709,16.859-12.651,17.142-29.8c.408-24.5-13.066-35.931-12.519-47.765,0,0-7.349,4.623-12.519-7.9C104.653,43.86,119.451,28.964,119.451,28.964Z" transform="translate(-23.342 23.64)" fill="#c73700"/>
      <path id="Trazado_116627" data-name="Trazado 116627" d="M115.87,71.956s-.869,7.527-3.932,12.631c0,0,3.879-17.557-2.213-43.583C109.726,41,118.985,65.048,115.87,71.956Z" transform="translate(-15.132 90.889)" fill="#c73700"/>
      <path id="Trazado_116628" data-name="Trazado 116628" d="M129.337,31.149c.2-1.844,2.107-3.727,3.069-4.511,1.594-1.278,2.529-3.576,2.081-3.912-.876-.178-2.568,2.338-6.032,5.927-3.675,3.813-4.491,5.585-5.189,8.054a8.772,8.772,0,0,0-.257.915c.77,1.442,1.982,2.759,3.721,2.4.151-.072.244-.079.4-.165l.046.02C130.45,38.6,129.179,32.565,129.337,31.149Z" transform="translate(59.055 -11.249)" fill="#ffb476"/>
      <path id="Trazado_116629" data-name="Trazado 116629" d="M148.693,30.309s-32.3-4.248-33.369,33.731l-5.775-2.766s.5-34.528,32.157-33.31A32.428,32.428,0,0,1,148.693,30.309Z" transform="translate(-16.121 17.882)" fill="#322f28"/>
      <g id="Grupo_83335" data-name="Grupo 83335" transform="translate(84.029 79.003)">
        <path id="Trazado_116630" data-name="Trazado 116630" d="M108.687,50.466c1.857,8.159,8.285,13.658,14.356,12.275s9.5-9.121,7.639-17.28S122.405,31.8,116.327,33.186,106.83,42.307,108.687,50.466Z" transform="translate(-107.783 -32.973)" fill="#2b2923"/>
        <path id="Trazado_116631" data-name="Trazado 116631" d="M108.552,48.205c1.581,6.941,7.047,11.623,12.223,10.445s8.08-7.758,6.5-14.705-7.053-11.63-12.223-10.451S106.971,41.257,108.552,48.205Z" transform="translate(-108.122 -31.081)" fill="#322f28"/>
        <path id="Trazado_116632" data-name="Trazado 116632" d="M110.941,42.91c2.206,3.833,5.624,5.993,7.633,4.834s1.837-5.2-.369-9.022-5.631-5.993-7.633-4.834S108.729,39.084,110.941,42.91Z" transform="translate(-102.279 -29.605)" fill="#322f28" opacity="0.4" style="mix-blend-mode: screen;isolation: isolate"/>
        <path id="Trazado_116633" data-name="Trazado 116633" d="M110.248,37.878c-.329,1.225.046,2.384.843,2.6s1.7-.606,2.028-1.831-.053-2.384-.843-2.6S110.578,36.653,110.248,37.878Z" transform="translate(-96.91 -15.985)" fill="#322f28" opacity="0.4" style="mix-blend-mode: screen;isolation: isolate"/>
      </g>
      <g id="Grupo_83336" data-name="Grupo 83336" transform="translate(98.288 107.079)">
        <path id="Trazado_116634" data-name="Trazado 116634" d="M130.346,51.415c-3.036,0-10-.3-13.224-2.878-4.867-3.885-6.763-10.754-6.836-11.044l.948-.257c.02.072,1.9,6.842,6.506,10.53,3.82,3.043,13.909,2.641,14.021,2.634l.046.981C131.716,51.388,131.176,51.415,130.346,51.415Z" transform="translate(-110.287 -37.236)" fill="#2b2923"/>
        <path id="Trazado_116635" data-name="Trazado 116635" d="M119.255,40.726c.059,1.021-1.2,1.916-2.805,2s-2.95-.672-3-1.686,1.205-1.916,2.805-2S119.2,39.711,119.255,40.726Z" transform="translate(-92.649 -27.199)" fill="#2b2923"/>
      </g>
    </g>
    <g id="Grupo_83338" data-name="Grupo 83338" transform="translate(149.527 237.381)">
      <path id="Trazado_116636" data-name="Trazado 116636" d="M104.2,55.139s6.111,57.92,28.667,57.92h31.591V55.139Zm54.923,52.2H133.441c-18.334,0-23.3-47.086-23.3-47.086h48.983Z" transform="translate(-100.158 -46.564)" fill="#606f96"/>
      <path id="Trazado_116637" data-name="Trazado 116637" d="M103.763,55.139s6.1,57.92,28.66,57.92h31.591V55.139Zm54.917,52.2H133c-18.341,0-23.306-47.086-23.306-47.086H158.68Z" transform="translate(-102.604 -46.564)" fill="#8091bf"/>
      <path id="Trazado_116638" data-name="Trazado 116638" d="M105.344,65.722h5.11c-.52-3.3-.757-5.466-.757-5.466H158.68v5.466h5.334V55.139H103.763S104.237,59.485,105.344,65.722Z" transform="translate(-102.604 -46.564)" fill="#606f96"/>
      <path id="Trazado_116639" data-name="Trazado 116639" d="M175.685,55.254c-1.811-1.956-72.1-1.317-72.1-1.317l1.343,10.326h71.993S177.49,57.21,175.685,55.254Z" transform="translate(-103.587 -53.837)" fill="#2b2923"/>
    </g>
    <g id="Grupo_83355" data-name="Grupo 83355" transform="translate(285.646 97.223)">
      <g id="Grupo_83354" data-name="Grupo 83354" transform="translate(20.972)">
        <g id="Grupo_83353" data-name="Grupo 83353">
          <rect id="Rectángulo_34401" data-name="Rectángulo 34401" width="5.691" height="106.097" fill="#49453e"/>
          <rect id="Rectángulo_34402" data-name="Rectángulo 34402" width="1.501" height="106.097" transform="translate(3.451)" fill="#322f28" opacity="0.4" style="mix-blend-mode: screen;isolation: isolate"/>
          <rect id="Rectángulo_34403" data-name="Rectángulo 34403" width="137.239" height="106.097" transform="translate(4.189)" fill="#322f28"/>
          <g id="Grupo_83339" data-name="Grupo 83339" transform="translate(13.033 11.323)">
            <rect id="Rectángulo_34404" data-name="Rectángulo 34404" width="2.635" height="8.896" fill="#2b2923"/>
            <rect id="Rectángulo_34405" data-name="Rectángulo 34405" width="2.636" height="8.896" transform="translate(5.601)" fill="#2b2923"/>
            <rect id="Rectángulo_34406" data-name="Rectángulo 34406" width="2.636" height="8.896" transform="translate(11.202)" fill="#2b2923"/>
            <rect id="Rectángulo_34407" data-name="Rectángulo 34407" width="2.636" height="8.896" transform="translate(16.804)" fill="#2b2923"/>
            <rect id="Rectángulo_34408" data-name="Rectángulo 34408" width="2.636" height="8.896" transform="translate(22.405)" fill="#2b2923"/>
            <rect id="Rectángulo_34409" data-name="Rectángulo 34409" width="2.636" height="8.896" transform="translate(28.006)" fill="#2b2923"/>
            <rect id="Rectángulo_34410" data-name="Rectángulo 34410" width="2.636" height="8.896" transform="translate(33.606)" fill="#2b2923"/>
          </g>
          <g id="Grupo_83340" data-name="Grupo 83340" transform="translate(96.391 11.323)">
            <rect id="Rectángulo_34411" data-name="Rectángulo 34411" width="2.636" height="8.896" fill="#2b2923"/>
            <rect id="Rectángulo_34412" data-name="Rectángulo 34412" width="2.636" height="8.896" transform="translate(5.601)" fill="#2b2923"/>
            <rect id="Rectángulo_34413" data-name="Rectángulo 34413" width="2.636" height="8.896" transform="translate(11.202)" fill="#2b2923"/>
            <rect id="Rectángulo_34414" data-name="Rectángulo 34414" width="2.636" height="8.896" transform="translate(16.803)" fill="#2b2923"/>
            <rect id="Rectángulo_34415" data-name="Rectángulo 34415" width="2.636" height="8.896" transform="translate(22.405)" fill="#2b2923"/>
            <rect id="Rectángulo_34416" data-name="Rectángulo 34416" width="2.636" height="8.896" transform="translate(28.006)" fill="#2b2923"/>
            <rect id="Rectángulo_34417" data-name="Rectángulo 34417" width="2.636" height="8.896" transform="translate(33.607)" fill="#2b2923"/>
          </g>
          <g id="Grupo_83341" data-name="Grupo 83341" transform="translate(18.815 31.641)">
            <path id="Trazado_116640" data-name="Trazado 116640" d="M135.132,39.776a2.417,2.417,0,1,1-2.417-2.417A2.418,2.418,0,0,1,135.132,39.776Z" transform="translate(-130.298 -37.358)" fill="#2b2923"/>
            <path id="Trazado_116641" data-name="Trazado 116641" d="M135.132,47.414A2.417,2.417,0,1,1,132.715,45,2.418,2.418,0,0,1,135.132,47.414Z" transform="translate(-130.298 5.305)" fill="#2b2923"/>
            <circle id="Elipse_4935" data-name="Elipse 4935" cx="2.416" cy="2.416" r="2.416" transform="translate(103.152)" fill="#2b2923"/>
            <circle id="Elipse_4936" data-name="Elipse 4936" cx="2.416" cy="2.416" r="2.416" transform="translate(103.152 50.3)" fill="#2b2923"/>
          </g>
          <g id="Grupo_83342" data-name="Grupo 83342" transform="translate(49.707 87.387)">
            <rect id="Rectángulo_34418" data-name="Rectángulo 34418" width="10.741" height="31.749" transform="translate(17.549)" fill="#2b2923"/>
            <path id="Trazado_116642" data-name="Trazado 116642" d="M180.824,56.56H134.989V52.826s7.132-2.878,23.188-2.878,22.648,2.878,22.648,2.878Z" transform="translate(-134.989 -22.787)" fill="#2b2923"/>
            <rect id="Rectángulo_34419" data-name="Rectángulo 34419" width="10.741" height="5.617" transform="translate(17.549 13.922)" fill="#2b2923" opacity="0.3" style="mix-blend-mode: multiply;isolation: isolate"/>
          </g>
          <rect id="Rectángulo_34420" data-name="Rectángulo 34420" width="89.818" height="58.524" transform="translate(27.899 47.53)" fill="#2b2923"/>
          <rect id="Rectángulo_34421" data-name="Rectángulo 34421" width="5.89" height="58.524" transform="translate(27.899 47.53)" fill="#3a3730"/>
          <g id="Grupo_83349" data-name="Grupo 83349" transform="translate(90.79 94.286)">
            <rect id="Rectángulo_34422" data-name="Rectángulo 34422" width="21.745" height="6.919" fill="#322f28"/>
            <rect id="Rectángulo_34423" data-name="Rectángulo 34423" width="1.273" height="6.919" transform="translate(20.472)" fill="#49453e"/>
            <g id="Grupo_83343" data-name="Grupo 83343" transform="translate(1.704 1.23)">
              <path id="Trazado_116643" data-name="Trazado 116643" d="M145.951,49.291a2.233,2.233,0,1,1-2.233-2.232A2.234,2.234,0,0,1,145.951,49.291Z" transform="translate(-141.486 -47.058)" fill="#49453e"/>
              <path id="Trazado_116644" data-name="Trazado 116644" d="M145.2,48.944a1.824,1.824,0,1,1-1.824-1.824A1.824,1.824,0,0,1,145.2,48.944Z" transform="translate(-141.14 -46.712)" fill="#2b2923"/>
              <circle id="Elipse_4937" data-name="Elipse 4937" cx="0.62" cy="0.62" r="0.62" transform="translate(1.61 1.61)" fill="#49453e"/>
            </g>
            <g id="Grupo_83348" data-name="Grupo 83348" transform="translate(8.586 1.227)">
              <rect id="Rectángulo_34424" data-name="Rectángulo 34424" width="11.039" height="4.44" rx="0.163" fill="#49453e"/>
              <rect id="Rectángulo_34425" data-name="Rectángulo 34425" width="10.048" height="3.622" rx="0.14" transform="translate(0.496 0.409)" fill="#2b2923"/>
              <g id="Grupo_83347" data-name="Grupo 83347" transform="translate(1.633 0.885)">
                <g id="Grupo_83344" data-name="Grupo 83344">
                  <path id="Trazado_116645" data-name="Trazado 116645" d="M143.4,47.508a.315.315,0,0,1-.316.31.313.313,0,0,1,0-.626A.316.316,0,0,1,143.4,47.508Z" transform="translate(-142.779 -47.192)" fill="#49453e"/>
                  <circle id="Elipse_4938" data-name="Elipse 4938" cx="0.312" cy="0.312" r="0.312" transform="translate(1.191 0.001)" fill="#49453e"/>
                  <circle id="Elipse_4939" data-name="Elipse 4939" cx="0.312" cy="0.312" r="0.312" transform="translate(2.383 0.001)" fill="#49453e"/>
                  <path id="Trazado_116646" data-name="Trazado 116646" d="M143.941,47.508a.31.31,0,1,1-.309-.316A.309.309,0,0,1,143.941,47.508Z" transform="translate(-139.746 -47.192)" fill="#49453e"/>
                  <circle id="Elipse_4940" data-name="Elipse 4940" cx="0.312" cy="0.312" r="0.312" transform="translate(4.766 0.001)" fill="#49453e"/>
                  <path id="Trazado_116647" data-name="Trazado 116647" d="M144.3,47.508a.31.31,0,1,1-.309-.316A.309.309,0,0,1,144.3,47.508Z" transform="translate(-137.724 -47.192)" fill="#49453e"/>
                  <path id="Trazado_116648" data-name="Trazado 116648" d="M144.484,47.508a.31.31,0,1,1-.309-.316A.309.309,0,0,1,144.484,47.508Z" transform="translate(-136.713 -47.192)" fill="#49453e"/>
                </g>
                <g id="Grupo_83345" data-name="Grupo 83345" transform="translate(0 1.021)">
                  <path id="Trazado_116649" data-name="Trazado 116649" d="M143.4,47.663a.315.315,0,0,1-.316.31.309.309,0,0,1-.31-.31.315.315,0,0,1,.31-.316A.32.32,0,0,1,143.4,47.663Z" transform="translate(-142.779 -47.347)" fill="#49453e"/>
                  <circle id="Elipse_4941" data-name="Elipse 4941" cx="0.312" cy="0.312" r="0.312" transform="translate(1.191 0.002)" fill="#49453e"/>
                  <circle id="Elipse_4942" data-name="Elipse 4942" cx="0.312" cy="0.312" r="0.312" transform="translate(2.383 0.002)" fill="#49453e"/>
                  <path id="Trazado_116650" data-name="Trazado 116650" d="M143.941,47.663a.31.31,0,1,1-.619,0,.31.31,0,1,1,.619,0Z" transform="translate(-139.746 -47.347)" fill="#49453e"/>
                  <circle id="Elipse_4943" data-name="Elipse 4943" cx="0.312" cy="0.312" r="0.312" transform="translate(4.766 0.002)" fill="#49453e"/>
                  <path id="Trazado_116651" data-name="Trazado 116651" d="M144.3,47.663a.31.31,0,1,1-.619,0,.31.31,0,1,1,.619,0Z" transform="translate(-137.724 -47.347)" fill="#49453e"/>
                  <path id="Trazado_116652" data-name="Trazado 116652" d="M144.484,47.663a.309.309,0,1,1-.619,0,.31.31,0,1,1,.619,0Z" transform="translate(-136.713 -47.347)" fill="#49453e"/>
                </g>
                <g id="Grupo_83346" data-name="Grupo 83346" transform="translate(0 2.041)">
                  <path id="Trazado_116653" data-name="Trazado 116653" d="M143.4,47.818a.315.315,0,0,1-.316.31.309.309,0,0,1-.31-.31.315.315,0,0,1,.31-.316A.32.32,0,0,1,143.4,47.818Z" transform="translate(-142.779 -47.502)" fill="#49453e"/>
                  <circle id="Elipse_4944" data-name="Elipse 4944" cx="0.312" cy="0.312" r="0.312" transform="translate(1.191 0.003)" fill="#49453e"/>
                  <circle id="Elipse_4945" data-name="Elipse 4945" cx="0.312" cy="0.312" r="0.312" transform="translate(2.383 0.003)" fill="#49453e"/>
                  <path id="Trazado_116654" data-name="Trazado 116654" d="M143.941,47.818a.31.31,0,1,1-.619,0,.31.31,0,1,1,.619,0Z" transform="translate(-139.746 -47.502)" fill="#49453e"/>
                  <circle id="Elipse_4946" data-name="Elipse 4946" cx="0.312" cy="0.312" r="0.312" transform="translate(4.766 0.003)" fill="#49453e"/>
                  <path id="Trazado_116655" data-name="Trazado 116655" d="M144.3,47.818a.31.31,0,1,1-.619,0,.31.31,0,1,1,.619,0Z" transform="translate(-137.724 -47.502)" fill="#49453e"/>
                  <path id="Trazado_116656" data-name="Trazado 116656" d="M144.484,47.818a.309.309,0,1,1-.619,0,.31.31,0,1,1,.619,0Z" transform="translate(-136.713 -47.502)" fill="#49453e"/>
                </g>
              </g>
            </g>
            <rect id="Rectángulo_34426" data-name="Rectángulo 34426" width="21.745" height="2.425" fill="#2b2923" opacity="0.4" style="mix-blend-mode: multiply;isolation: isolate"/>
          </g>
          <path id="Trazado_116657" data-name="Trazado 116657" d="M150.567,98.3h-5.251V39.772l5.251,5.857Z" transform="translate(-27.599 7.759)" fill="#2b2923" opacity="0.3" style="mix-blend-mode: multiply;isolation: isolate"/>
          <g id="Grupo_83351" data-name="Grupo 83351" transform="translate(39.5 51.41)">
            <rect id="Rectángulo_34427" data-name="Rectángulo 34427" width="26.617" height="17.572" rx="0.589" fill="#3a3730"/>
            <g id="Grupo_83350" data-name="Grupo 83350" transform="translate(2.963 2.195)">
              <rect id="Rectángulo_34428" data-name="Rectángulo 34428" width="20.691" height="1.977" transform="translate(0 0.221)" fill="#2b2923"/>
              <rect id="Rectángulo_34429" data-name="Rectángulo 34429" width="20.691" height="1.977" transform="translate(0 3.736)" fill="#2b2923"/>
              <rect id="Rectángulo_34430" data-name="Rectángulo 34430" width="20.691" height="1.977" transform="translate(0 7.25)" fill="#2b2923"/>
              <rect id="Rectángulo_34431" data-name="Rectángulo 34431" width="20.691" height="1.977" transform="translate(0 10.765)" fill="#2b2923"/>
              <rect id="Rectángulo_34432" data-name="Rectángulo 34432" width="1.737" height="2.561" transform="translate(14.429 6.958)" fill="#3a3730"/>
              <rect id="Rectángulo_34433" data-name="Rectángulo 34433" width="1.737" height="2.562" transform="translate(4.009)" fill="#3a3730"/>
              <rect id="Rectángulo_34434" data-name="Rectángulo 34434" width="1.737" height="2.561" transform="translate(8.227 10.585)" fill="#3a3730"/>
            </g>
          </g>
          <g id="Grupo_83352" data-name="Grupo 83352" transform="translate(29.313 84.2)">
            <rect id="Rectángulo_34435" data-name="Rectángulo 34435" width="2.429" height="7.438" fill="#2b2923"/>
            <rect id="Rectángulo_34436" data-name="Rectángulo 34436" width="2.429" height="7.439" transform="translate(0 9.632)" fill="#2b2923"/>
            <rect id="Rectángulo_34437" data-name="Rectángulo 34437" width="0.75" height="6.489" transform="translate(1.139 10.107)" fill="#3a3730"/>
            <rect id="Rectángulo_34438" data-name="Rectángulo 34438" width="0.75" height="6.49" transform="translate(1.139 0.474)" fill="#3a3730"/>
          </g>
          <rect id="Rectángulo_34439" data-name="Rectángulo 34439" width="0.802" height="58.524" transform="translate(32.987 47.53)" fill="#322f28" opacity="0.4" style="mix-blend-mode: screen;isolation: isolate"/>
        </g>
      </g>
      <g id="table" transform="translate(0 120.768)">
        <rect id="Rectángulo_34440" data-name="Rectángulo 34440" width="76.316" height="29.531" fill="#edc7c4"/>
        <rect id="Rectángulo_34441" data-name="Rectángulo 34441" width="76.316" height="6.054" transform="translate(0 175.009)" fill="#edc7c4"/>
        <rect id="Rectángulo_34442" data-name="Rectángulo 34442" width="72.638" height="6.054" transform="translate(107.003 175.009)" fill="#d3aaa6"/>
        <rect id="Rectángulo_34443" data-name="Rectángulo 34443" width="106.932" height="77.026" transform="translate(72.709)" fill="#d3aaa6"/>
        <rect id="Rectángulo_34444" data-name="Rectángulo 34444" width="5.138" height="177.645" transform="translate(67.5 3.418)" fill="#edc7c4"/>
        <rect id="Rectángulo_34445" data-name="Rectángulo 34445" width="5.138" height="177.645" transform="translate(0 3.418)" fill="#edc7c4"/>
        <rect id="Rectángulo_34446" data-name="Rectángulo 34446" width="5.138" height="177.645" transform="translate(107.003 3.418)" fill="#d3aaa6"/>
        <rect id="Rectángulo_34447" data-name="Rectángulo 34447" width="5.137" height="177.645" transform="translate(72.606 3.418)" fill="#d3aaa6"/>
        <rect id="Rectángulo_34448" data-name="Rectángulo 34448" width="5.138" height="177.645" transform="translate(174.502 3.418)" fill="#d3aaa6"/>
      </g>
    </g>
  </g>
</svg>
