<svg xmlns="http://www.w3.org/2000/svg" xmlns:xlink="http://www.w3.org/1999/xlink" viewBox="0 0 859.84 578.71"><defs><style>.cls-1{fill:none;}.cls-2{clip-path:url(#clip-path);}.cls-3{fill:#123656;}</style><clipPath id="clip-path" transform="translate(166.8)"><path class="cls-1" d="M0,11.54H440.88a31.89,31.89,0,0,1,31.89,31.89V544.27a0,0,0,0,1,0,0H31.89A31.89,31.89,0,0,1,0,512.38V11.54A0,0,0,0,1,0,11.54Z"/></clipPath></defs><g id="Capa_2" data-name="Capa 2"><g id="vectores"><g class="cls-2"><image width="1280" height="850" transform="translate(0 7.72) scale(0.67)" xlink:href="../../../../../../../../Downloads/servicios_Carpeta/servicios_Carpeta/Links/ux-788002_1280.jpg"/></g><path class="cls-3" d="M431.37,91.13a12.49,12.49,0,0,1-8.84-21.32L488.69,3.65a12.49,12.49,0,0,1,17.66,17.66L440.2,87.47A12.46,12.46,0,0,1,431.37,91.13ZM497.52,2.46a10,10,0,0,0-7.08,2.94L424.28,71.56a10,10,0,0,0,0,14.17,10.27,10.27,0,0,0,14.17,0l66.16-66.16a10,10,0,0,0-7.09-17.11Z" transform="translate(166.8)"/><path class="cls-3" d="M388.27,91.36A12.49,12.49,0,0,1,379.44,70L445.59,3.88a12.49,12.49,0,0,1,17.67,17.67L397.1,87.7A12.44,12.44,0,0,1,388.27,91.36ZM454.43,2.7a10,10,0,0,0-7.09,2.93L381.18,71.79a10,10,0,0,0,0,14.17,10.27,10.27,0,0,0,14.17,0L461.51,19.8a10,10,0,0,0-7.08-17.1Z" transform="translate(166.8)"/></g></g></svg>